;TYPE=PLATED
;Layer: PTH_Through_Via
;EasyEDA Pro Client v2.1.49.573a4102.674264, 2024-02-19 19:22:53
;Gerber Generator version 0.3
M48
METRIC,LZ,000.00000
;Hole size 1 = 0.30500 METRIC
T01C0.30500
;Hole size 2 = 0.30998 METRIC
T02C0.30998
%
G05
G90
T01
X00546108Y-04356097
X00787408Y-04356097
X03949700Y-05156200
X03860808Y-01574797
X03403600Y-02590800
X02743200Y-05397500
X03263900Y-05359400
X02374908Y-01574797
X03784608Y-02006597
X04102108Y-02019297
X03670308Y-01790697
X03670308Y-01701797
X04305300Y-01790700
X04406908Y-01701797
X02139145Y-01681223
X02647145Y-04729223
X00088900Y-01219200
X00107145Y-01681223
X00107145Y-04221223
X00107145Y-04729223
X00635000Y-04826000
X01123145Y-00157223
X01168400Y-00685800
X01123145Y-03205223
X01123145Y-03713223
X01123145Y-04221223
X01631145Y-00157223
X01631145Y-00665223
X01631145Y-01681223
X01631145Y-02189223
X01631145Y-03713223
X01981200Y-03911600
X02139145Y-00157223
X02139145Y-00665223
X02139145Y-02189223
X02139145Y-02697223
X02139145Y-03713223
X01943100Y-04216400
X02133600Y-05194300
X02647145Y-00157223
X02647145Y-00665223
X02647145Y-01681223
X02647145Y-02189223
X02527308Y-02819397
X02647145Y-03205223
X02647145Y-04221223
X03155145Y-00157223
X03155145Y-00665223
X03155145Y-01681223
X02984508Y-02489197
X03155145Y-03205223
X03155145Y-03713223
X03663145Y-00157223
X03663145Y-00665223
X03479800Y-02159000
X03663145Y-05237223
X04171145Y-00157223
X04171145Y-00665223
X04171145Y-03205223
X04171145Y-03713223
X04171145Y-04221223
X04171145Y-04729223
X04679145Y-00157223
X04679145Y-00665223
X04679145Y-02189223
X04679145Y-02697223
X04679145Y-03205223
X05187145Y-00157223
X05187145Y-00665223
X05187145Y-01681223
X05187145Y-02189223
X05187145Y-02697223
X05187145Y-03205223
X05187145Y-03713223
X05187145Y-04221223
X05187145Y-04729223
X05187145Y-05237223
X05695145Y-00157223
X05695145Y-00665223
X05695145Y-01681223
X05695145Y-02697223
X05695145Y-03205223
X05695145Y-03713223
X05695145Y-04221223
X05695145Y-04729223
X05695145Y-05237223
X06203145Y-01173223
X06203145Y-01681223
X06203145Y-02189223
X06203145Y-02697223
X06203145Y-03205223
X06203145Y-03713223
X06203145Y-04221223
X06203145Y-04729223
X01549400Y-03352800
X03340100Y-03136900
X03848100Y-02895600
X04064000Y-02870200
X01435100Y-04648200
X01244600Y-04838700
X01244600Y-05016500
X01244600Y-05194300
X01244600Y-05397500
X01244600Y-05575300
X02133600Y-05397500
X01320800Y-04368800
X02209800Y-04127500
X02133600Y-05562600
X01663700Y-04432300
X03733800Y-02590800
X04284140Y-02232604
X03771900Y-02324100
X01244600Y-04648200
X01727200Y-04660900
X02095500Y-04457700
X02273243Y-04457700
X02273243Y-04659656
X02260600Y-04838700
X02260600Y-05003800
X02136891Y-05016500
X01790700Y-04914900
X01701800Y-05511800
X01600200Y-05511800
X01917700Y-05537200
X01816100Y-05372100
T02
X03111500Y-02730500
X03365508Y-01968497
M30