;TYPE=PLATED
;Layer: PTH_Through
;EasyEDA Pro Client v2.1.49.573a4102.674264, 2024-02-19 19:22:53
;Gerber Generator version 0.3
M48
METRIC,LZ,000.00000
;Hole size 1 = 0.30500 METRIC
T01C0.30500
;Hole size 2 = 0.30998 METRIC
T02C0.30998
;Hole size 3 = 0.80000 METRIC
T03C0.80000
;Hole size 4 = 1.00000 METRIC
T04C1.00000
;Hole size 5 = 1.09982 METRIC
T05C1.09982
;Hole size 6 = 1.20000 METRIC
T06C1.20000
%
G05
G90
T01
X00546108Y-04356097
X00787408Y-04356097
X03949700Y-05156200
X03860808Y-01574797
X03403600Y-02590800
X02743200Y-05397500
X03263900Y-05359400
X02374908Y-01574797
X03784608Y-02006597
X04102108Y-02019297
X03670308Y-01790697
X03670308Y-01701797
X04305300Y-01790700
X04406908Y-01701797
X02139145Y-01681223
X02647145Y-04729223
X00088900Y-01219200
X00107145Y-01681223
X00107145Y-04221223
X00107145Y-04729223
X00635000Y-04826000
X01123145Y-00157223
X01168400Y-00685800
X01123145Y-03205223
X01123145Y-03713223
X01123145Y-04221223
X01631145Y-00157223
X01631145Y-00665223
X01631145Y-01681223
X01631145Y-02189223
X01631145Y-03713223
X01981200Y-03911600
X02139145Y-00157223
X02139145Y-00665223
X02139145Y-02189223
X02139145Y-02697223
X02139145Y-03713223
X01943100Y-04216400
X02133600Y-05194300
X02647145Y-00157223
X02647145Y-00665223
X02647145Y-01681223
X02647145Y-02189223
X02527308Y-02819397
X02647145Y-03205223
X02647145Y-04221223
X03155145Y-00157223
X03155145Y-00665223
X03155145Y-01681223
X02984508Y-02489197
X03155145Y-03205223
X03155145Y-03713223
X03663145Y-00157223
X03663145Y-00665223
X03479800Y-02159000
X03663145Y-05237223
X04171145Y-00157223
X04171145Y-00665223
X04171145Y-03205223
X04171145Y-03713223
X04171145Y-04221223
X04171145Y-04729223
X04679145Y-00157223
X04679145Y-00665223
X04679145Y-02189223
X04679145Y-02697223
X04679145Y-03205223
X05187145Y-00157223
X05187145Y-00665223
X05187145Y-01681223
X05187145Y-02189223
X05187145Y-02697223
X05187145Y-03205223
X05187145Y-03713223
X05187145Y-04221223
X05187145Y-04729223
X05187145Y-05237223
X05695145Y-00157223
X05695145Y-00665223
X05695145Y-01681223
X05695145Y-02697223
X05695145Y-03205223
X05695145Y-03713223
X05695145Y-04221223
X05695145Y-04729223
X05695145Y-05237223
X06203145Y-01173223
X06203145Y-01681223
X06203145Y-02189223
X06203145Y-02697223
X06203145Y-03205223
X06203145Y-03713223
X06203145Y-04221223
X06203145Y-04729223
X01549400Y-03352800
X03340100Y-03136900
X03848100Y-02895600
X04064000Y-02870200
X01435100Y-04648200
X01244600Y-04838700
X01244600Y-05016500
X01244600Y-05194300
X01244600Y-05397500
X01244600Y-05575300
X02133600Y-05397500
X01320800Y-04368800
X02209800Y-04127500
X02133600Y-05562600
X01663700Y-04432300
X03733800Y-02590800
X04284140Y-02232604
X03771900Y-02324100
X01244600Y-04648200
X01727200Y-04660900
X02095500Y-04457700
X02273243Y-04457700
X02273243Y-04659656
X02260600Y-04838700
X02260600Y-05003800
X02136891Y-05016500
X01790700Y-04914900
X01701800Y-05511800
X01600200Y-05511800
X01917700Y-05537200
X01816100Y-05372100
T02
X03111500Y-02730500
X03365508Y-01968497
T03
X00965200Y-01935302
X00965200Y-02135302
X00965200Y-02335301
X00965200Y-02535301
X00965200Y-02735303
X00965200Y-02935303
X00965200Y-03135302
X00965200Y-03335302
X00965200Y-03535302
X00965200Y-03735301
X00965200Y-03935303
X00965200Y-04135308
X05579600Y-02079701G85X05579600Y-02009699
X05834610Y-01864712G85X05764610Y-01864712
X05834610Y-02224711G85X05764610Y-02224711
T04
X00850900Y-04572000
X00850900Y-04826000
X00840321Y-05193520
X00840321Y-05447520
T05
X00825500Y-01371600
X00825500Y-01117600
X01079500Y-01371600
X01079500Y-01117600
X01333500Y-01371600
X01333500Y-01117600
X01587500Y-01371600
X01587500Y-01117600
X01841500Y-01371600
X01841500Y-01117600
X02095500Y-01371600
X02095500Y-01117600
X02349500Y-01371600
X02349500Y-01117600
X02603500Y-01371600
X02603500Y-01117600
X02857500Y-01371600
X02857500Y-01117600
X03111500Y-01371600
X03111500Y-01117600
X03365500Y-01371600
X03365500Y-01117600
X03619500Y-01371600
X03619500Y-01117600
X03873500Y-01371600
X03873500Y-01117600
X04127500Y-01371600
X04127500Y-01117600
X04381500Y-01371600
X04381500Y-01117600
X04635500Y-01371600
X04635500Y-01117600
X04889500Y-01371600
X04889500Y-01117600
X05143500Y-01371600
X05143500Y-01117600
X05397500Y-01371600
X05397500Y-01117600
X05651500Y-01371600
X05651500Y-01117600
T06
X04292600Y-02844800
X04546600Y-02844800
X04800600Y-02844800
M30