G04 Layer: TopLayer*
G04 EasyEDA Pro v2.1.49.573a4102.674264, 2024-02-19 19:22:48*
G04 Gerber Generator version 0.3*
G04 Scale: 100 percent, Rotated: No, Reflected: No*
G04 Dimensions in millimeters*
G04 Leading zeros omitted, absolute positions, 3 integers and 5 decimals*
%FSLAX35Y35*%
%MOMM*%
%AMOval*1,1,$1,$2,$3*1,1,$1,$4,$5*20,1,$1,$2,$3,$4,$5,0*%
%ADD10C,6.19999*%
%ADD11C,0.5*%
%ADD12R,1.5X1.5*%
%ADD13C,1.5*%
%ADD14R,0.59995X2.2*%
%ADD15R,1.8X2.59999*%
%ADD16C,1.8035*%
%ADD17C,1.8*%
%ADD18R,1.5748X1.8*%
%ADD19R,1.8X1.8*%
%ADD20R,0.8X0.9*%
%ADD21R,0.9X0.8*%
%ADD22R,0.8X0.9*%
%ADD23R,0.86401X0.80648*%
%ADD24Oval,1.4X0.0X-0.35X0.0X0.35*%
%ADD25O,2.1X1.4*%
%ADD26O,0.905X0.28001*%
%ADD27O,0.28001X1.62001*%
%ADD28C,1.524*%
%ADD29R,1.0X0.6*%
%ADD30R,0.9X0.8*%
%ADD31Oval,0.4X0.4X0.0X-0.4X0.0*%
%ADD32R,0.80648X0.86401*%
%ADD33C,0.61001*%
%ADD34C,0.62001*%
%ADD35C,0.254*%
%ADD36C,0.259*%
G75*


G04 Pad Start*
G54D10*
G01X350020Y-400022D03*
G01X350020Y-5300012D03*
G01X6150008Y-5300012D03*
G01X6150008Y-400022D03*
G54D11*
G01X2275021Y-1751420D03*
G01X3670421Y-2511820D03*
G01X3552920Y-3210320D03*
G01X3365500Y-2349500D03*
G01X3562420Y-2345120D03*
G01X2070221Y-5264520D03*
G01X4875320Y-3808820D03*
G54D12*
G01X965200Y-1935302D03*
G54D13*
G01X965200Y-2135302D03*
G01X965200Y-2335301D03*
G01X965200Y-2535301D03*
G01X965200Y-2735301D03*
G01X965200Y-2935300D03*
G01X965200Y-3135300D03*
G01X965200Y-3335299D03*
G01X965200Y-3535299D03*
G01X965200Y-3735299D03*
G01X965200Y-3935298D03*
G01X965200Y-4135298D03*
G54D14*
G01X2551201Y-5007686D03*
G01X2651252Y-5007686D03*
G01X2751201Y-5007686D03*
G01X2851201Y-5007686D03*
G01X2951201Y-5007686D03*
G01X3051099Y-5007686D03*
G01X3151276Y-5007686D03*
G01X3251276Y-5007686D03*
G01X3351276Y-5007686D03*
G01X3451276Y-5007686D03*
G01X3551276Y-5007686D03*
G01X3651275Y-5007686D03*
G01X3751224Y-5007686D03*
G01X3851148Y-5007686D03*
G01X3951199Y-5007686D03*
G54D15*
G01X2321281Y-5228514D03*
G01X4181119Y-5228311D03*
G54D17*
G01X4292600Y-2844800D03*
G01X4546600Y-2844800D03*
G54D18*
G01X4800600Y-2844800D03*
G54D17*
G01X850900Y-4572000D03*
G54D19*
G01X850900Y-4826000D03*
G54D20*
G01X4060774Y-2788564D03*
G01X3920769Y-2788564D03*
G54D21*
G01X3329724Y-3033166D03*
G01X3329724Y-2893162D03*
G54D22*
G01X1651000Y-4806798D03*
G01X1791005Y-4806798D03*
G54D23*
G01X2001159Y-5153331D03*
G01X2001159Y-5002658D03*
G01X1407668Y-4226461D03*
G01X1407668Y-4075788D03*
G01X1572125Y-4226461D03*
G01X1572125Y-4075788D03*
G01X2006600Y-5523636D03*
G01X2006600Y-5372964D03*
G54D24*
G01X5579595Y-2044700D03*
G54D25*
G01X5799610Y-1864700D03*
G01X5799610Y-2224700D03*
G54D26*
G01X3479241Y-2718994D03*
G01X3479241Y-2769006D03*
G01X3479241Y-2818994D03*
G01X3479241Y-2869006D03*
G01X3759759Y-2718994D03*
G01X3759759Y-2769006D03*
G01X3759759Y-2818994D03*
G01X3759759Y-2869006D03*
G54D27*
G01X1500200Y-5405298D03*
G01X1550213Y-5405298D03*
G01X1600200Y-5405298D03*
G01X1650213Y-5405298D03*
G01X1700200Y-5405298D03*
G01X1500200Y-4983302D03*
G01X1550213Y-4983302D03*
G01X1600200Y-4983302D03*
G01X1650213Y-4983302D03*
G01X1700200Y-4983302D03*
G54D28*
G01X825500Y-1371600D03*
G01X825500Y-1117600D03*
G01X1079500Y-1371600D03*
G01X1079500Y-1117600D03*
G01X1333500Y-1371600D03*
G01X1333500Y-1117600D03*
G01X1587500Y-1371600D03*
G01X1587500Y-1117600D03*
G01X1841500Y-1371600D03*
G01X1841500Y-1117600D03*
G01X2095500Y-1371600D03*
G01X2095500Y-1117600D03*
G01X2349500Y-1371600D03*
G01X2349500Y-1117600D03*
G01X2603500Y-1371600D03*
G01X2603500Y-1117600D03*
G01X2857500Y-1371600D03*
G01X2857500Y-1117600D03*
G01X3111500Y-1371600D03*
G01X3111500Y-1117600D03*
G01X3365500Y-1371600D03*
G01X3365500Y-1117600D03*
G01X3619500Y-1371600D03*
G01X3619500Y-1117600D03*
G01X3873500Y-1371600D03*
G01X3873500Y-1117600D03*
G01X4127500Y-1371600D03*
G01X4127500Y-1117600D03*
G01X4381500Y-1371600D03*
G01X4381500Y-1117600D03*
G01X4635500Y-1371600D03*
G01X4635500Y-1117600D03*
G01X4889500Y-1371600D03*
G01X4889500Y-1117600D03*
G01X5143500Y-1371600D03*
G01X5143500Y-1117600D03*
G01X5397500Y-1371600D03*
G01X5397500Y-1117600D03*
G01X5651500Y-1371600D03*
G01X5651500Y-1117600D03*
G54D29*
G01X4022890Y-2482596D03*
G01X4022890Y-2292604D03*
G01X4282910Y-2292604D03*
G01X4282910Y-2387600D03*
G01X4282910Y-2482596D03*
G54D30*
G01X3863772Y-2325225D03*
G01X3863772Y-2465230D03*
G54D31*
G01X1417701Y-4372889D03*
G01X1417701Y-4437888D03*
G01X1417701Y-4502912D03*
G01X1417701Y-4567911D03*
G01X1782699Y-4567911D03*
G01X1782699Y-4502912D03*
G01X1782699Y-4437888D03*
G01X1782699Y-4372889D03*
G54D23*
G01X1779039Y-4227347D03*
G01X1779039Y-4076675D03*
G54D21*
G01X1944139Y-4431899D03*
G01X1944139Y-4291894D03*
G54D32*
G01X2127943Y-4736211D03*
G01X1977271Y-4736211D03*
G01X2128586Y-4583811D03*
G01X1977913Y-4583811D03*
G54D30*
G01X192187Y-1220325D03*
G01X192187Y-1360330D03*
G54D22*
G01X938609Y-680728D03*
G01X1078614Y-680728D03*
G54D17*
G01X840321Y-5193520D03*
G54D19*
G01X840321Y-5447520D03*
G04 Pad End*

G04 Via Start*
G54D33*
G01X546108Y-4356097D03*
G01X787408Y-4356097D03*
G01X3949700Y-5156200D03*
G01X3860808Y-1574797D03*
G01X3403600Y-2590800D03*
G01X2743200Y-5397500D03*
G01X3263900Y-5359400D03*
G01X2374908Y-1574797D03*
G01X3784608Y-2006597D03*
G01X4102108Y-2019297D03*
G01X3670308Y-1790697D03*
G01X3670308Y-1701797D03*
G01X4305300Y-1790700D03*
G01X4406908Y-1701797D03*
G01X2139145Y-1681223D03*
G01X2647145Y-4729223D03*
G01X88900Y-1219200D03*
G01X107145Y-1681223D03*
G01X107145Y-4221223D03*
G01X107145Y-4729223D03*
G01X635000Y-4826000D03*
G01X1123145Y-157223D03*
G01X1168400Y-685800D03*
G01X1123145Y-3205223D03*
G01X1123145Y-3713223D03*
G01X1123145Y-4221223D03*
G01X1631145Y-157223D03*
G01X1631145Y-665223D03*
G01X1631145Y-1681223D03*
G01X1631145Y-2189223D03*
G01X1631145Y-3713223D03*
G01X1981200Y-3911600D03*
G01X2139145Y-157223D03*
G01X2139145Y-665223D03*
G01X2139145Y-2189223D03*
G01X2139145Y-2697223D03*
G01X2139145Y-3713223D03*
G01X1943100Y-4216400D03*
G01X2133600Y-5194300D03*
G01X2647145Y-157223D03*
G01X2647145Y-665223D03*
G01X2647145Y-1681223D03*
G01X2647145Y-2189223D03*
G01X2527308Y-2819397D03*
G01X2647145Y-3205223D03*
G01X2647145Y-4221223D03*
G01X3155145Y-157223D03*
G01X3155145Y-665223D03*
G01X3155145Y-1681223D03*
G01X2984508Y-2489197D03*
G01X3155145Y-3205223D03*
G01X3155145Y-3713223D03*
G01X3663145Y-157223D03*
G01X3663145Y-665223D03*
G01X3479800Y-2159000D03*
G01X3663145Y-5237223D03*
G01X4171145Y-157223D03*
G01X4171145Y-665223D03*
G01X4171145Y-3205223D03*
G01X4171145Y-3713223D03*
G01X4171145Y-4221223D03*
G01X4171145Y-4729223D03*
G01X4679145Y-157223D03*
G01X4679145Y-665223D03*
G01X4679145Y-2189223D03*
G01X4679145Y-2697223D03*
G01X4679145Y-3205223D03*
G01X5187145Y-157223D03*
G01X5187145Y-665223D03*
G01X5187145Y-1681223D03*
G01X5187145Y-2189223D03*
G01X5187145Y-2697223D03*
G01X5187145Y-3205223D03*
G01X5187145Y-3713223D03*
G01X5187145Y-4221223D03*
G01X5187145Y-4729223D03*
G01X5187145Y-5237223D03*
G01X5695145Y-157223D03*
G01X5695145Y-665223D03*
G01X5695145Y-1681223D03*
G01X5695145Y-2697223D03*
G01X5695145Y-3205223D03*
G01X5695145Y-3713223D03*
G01X5695145Y-4221223D03*
G01X5695145Y-4729223D03*
G01X5695145Y-5237223D03*
G01X6203145Y-1173223D03*
G01X6203145Y-1681223D03*
G01X6203145Y-2189223D03*
G01X6203145Y-2697223D03*
G01X6203145Y-3205223D03*
G01X6203145Y-3713223D03*
G01X6203145Y-4221223D03*
G01X6203145Y-4729223D03*
G54D34*
G01X3111500Y-2730500D03*
G01X3365508Y-1968497D03*
G54D33*
G01X1549400Y-3352800D03*
G01X3340100Y-3136900D03*
G01X3848100Y-2895600D03*
G01X4064000Y-2870200D03*
G01X1435100Y-4648200D03*
G01X1244600Y-4838700D03*
G01X1244600Y-5016500D03*
G01X1244600Y-5194300D03*
G01X1244600Y-5397500D03*
G01X1244600Y-5575300D03*
G01X2133600Y-5397500D03*
G01X1320800Y-4368800D03*
G01X2209800Y-4127500D03*
G01X2133600Y-5562600D03*
G01X1663700Y-4432300D03*
G01X3733800Y-2590800D03*
G01X4284140Y-2232604D03*
G01X3771900Y-2324100D03*
G01X1244600Y-4648200D03*
G01X1727200Y-4660900D03*
G01X2095500Y-4457700D03*
G01X2273243Y-4457700D03*
G01X2273243Y-4659656D03*
G01X2260600Y-4838700D03*
G01X2260600Y-5003800D03*
G01X2136891Y-5016500D03*
G01X1790700Y-4914900D03*
G01X1701800Y-5511800D03*
G01X1600200Y-5511800D03*
G01X1917700Y-5537200D03*
G01X1816100Y-5372100D03*
G04 Via End*

G04 Track Start*
G54D35*
G01X5799666Y-1864586D02*
G01X5179398Y-1864586D01*
G01X5016584Y-1701772D01*
G01Y-1066772D01*
G01X4940384Y-990572D01*
G01X4572084D01*
G01X4508584Y-1054072D01*
G01Y-1396972D01*
G54D11*
G01X965284Y-1935198D02*
G01X1033356Y-1934944D01*
G01X3151208Y-4036032D01*
G01Y-5007582D01*
G54D35*
G01X4546605Y-2032005D02*
G01X4546605Y-2882897D01*
G01X4305300Y-1790700D02*
G01X4546605Y-2032005D01*
G01X5397584Y-1371572D02*
G01X5270584Y-1244572D01*
G01Y-965172D01*
G01X5245184Y-939772D01*
G01X3073484D01*
G01X2984584Y-1028672D01*
G01Y-1968472D01*
G01X2857579Y-1371572D02*
G01X2768679Y-1460472D01*
G01X3759759Y-2869006D02*
G01X3759759Y-2996697D01*
G01X3551258Y-3205198D01*
G01Y-5007582D01*
G01X4800605Y-2882897D02*
G01X4800605Y-2032005D01*
G01X4470397Y-1701797D01*
G01X4406908D01*
G01X2551260Y-5007582D02*
G01X2551260Y-5103848D01*
G01X3048084Y-5600672D01*
G01X4673684D01*
G01X4876884Y-5397472D01*
G01Y-3606772D01*
G01X5067384Y-3416272D01*
G01Y-2070072D01*
G01X4775284Y-1777972D01*
G01Y-1269972D01*
G01X4635584Y-1130272D01*
G01Y-1117572D01*
G54D36*
G01X1206584Y-990572D02*
G01X1079584Y-1117572D01*
G01X825508Y-1117597D02*
G01X1079508Y-1117597D01*
G54D11*
G01X965208Y-2535324D02*
G01X2951310Y-4310098D01*
G01Y-5007582D01*
G54D35*
G01X4381505Y-1371597D02*
G01X4178305Y-1574797D01*
G01X3860808D01*
G01X2730500Y-1244590D02*
G01X2857508Y-1371597D01*
G01X2730500Y-1003300D02*
G01X2730500Y-1244590D01*
G01X3949692Y-5009197D02*
G01X3951206Y-5007684D01*
G01X3949692Y-5156203D02*
G01X3949692Y-5009197D01*
G01X3951206Y-5007684D02*
G01X3851156Y-5007684D01*
G01X3619579Y-1117572D02*
G01X3746579Y-1244572D01*
G01Y-1968569D01*
G01X3784608Y-2006597D01*
G01X4800608Y-2882897D02*
G01X4800608Y-5384782D01*
G01X4635518Y-5549872D01*
G01X3086179D01*
G01X2651341Y-5115022D01*
G01Y-5007580D01*
G01X3619505Y-1371597D02*
G01X3619505Y-1650995D01*
G01X3670308Y-1701797D01*
G01X3111505Y-1371597D02*
G01X3530605Y-1790697D01*
G01X3670308D01*
G01X965284Y-2335248D02*
G01X812884Y-2182848D01*
G01Y-1777972D01*
G01X838284Y-1752572D01*
G01X546108Y-1651051D02*
G01X546108Y-4356097D01*
G01X1066884Y-1371572D02*
G01X1079584Y-1371572D01*
G01X914484Y-1523972D02*
G01X1066884Y-1371572D01*
G01X762084Y-1523972D02*
G01X914484Y-1523972D01*
G01X622384Y-1663672D02*
G01X762084Y-1523972D01*
G01X622384Y-4495772D02*
G01X622384Y-1663672D01*
G01X1333584Y-1371572D02*
G01X1104984Y-1600172D01*
G01X800184D01*
G01X685884Y-1714472D01*
G01Y-4483072D01*
G54D11*
G01X965284Y-2135350D02*
G01X3051132Y-4111216D01*
G01Y-5007582D01*
G54D35*
G01X4546608Y-3429000D02*
G01X4686305Y-3568697D01*
G01X4686305Y-5397497D02*
G01X4584730Y-5499072D01*
G01X3136979D01*
G01X2751155Y-5113503D01*
G01Y-5007580D01*
G01X825584Y-1371572D02*
G01X546108Y-1651051D01*
G01X3403600Y-2565400D02*
G01X2768679Y-1930479D01*
G01X2768679Y-1460472D02*
G01X2768679Y-1930479D01*
G01X4686305Y-3568697D02*
G01X4686305Y-4292600D01*
G01X4686305Y-5397497D02*
G01X4686305Y-4292600D01*
G01X3403600Y-2590800D02*
G01X3403600Y-2565400D01*
G01X3519855Y-2868902D02*
G01X3479122Y-2868902D01*
G01X4508584Y-1396972D02*
G01X3568700Y-2336856D01*
G01Y-2820166D01*
G01X3519855Y-2868902D01*
G01X2984584Y-1968472D02*
G01X3365556Y-2349444D01*
G01X3479122Y-2463010D01*
G01Y-2719042D01*
G54D36*
G01X3479249Y-2818991D02*
G01X3429300Y-2818991D01*
G01X2476584Y-1066772D02*
G01X2400384Y-990572D01*
G01X3378091Y-2870200D02*
G01X3429300Y-2818991D01*
G01X3342432Y-2893159D02*
G01X3319473Y-2870200D01*
G54D35*
G01X838284Y-1752572D02*
G01X2273328Y-1752572D01*
G01X2374984Y-1650916D01*
G01Y-1574772D01*
G54D36*
G01X3342432Y-3033164D02*
G01X3342432Y-3134568D01*
G01X3340100Y-3136900D01*
G01X2946400Y-2870200D02*
G01X2476584Y-2400384D01*
G01Y-1066772D01*
G01X2946400Y-2870200D02*
G01X3319473Y-2870200D01*
G01X3451283Y-5007684D02*
G01X3451283Y-3375083D01*
G01X2946400Y-2870200D01*
G01X3848100Y-2895600D02*
G01X3848100Y-2848101D01*
G01X3818990Y-2818991D01*
G01X3759766D01*
G01X850900Y-4826000D02*
G01X622384Y-4597484D01*
G01Y-4495772D01*
G54D35*
G01X685884Y-4483072D02*
G01X774812Y-4572000D01*
G01X850900D01*
G54D36*
G01X965200Y-2735301D02*
G01X1257300Y-3027401D01*
G01X1257300Y-3542236D02*
G01X1779039Y-4063975D01*
G01X1257300Y-3027401D02*
G01X1257300Y-3542236D01*
G01X1782699Y-4437888D02*
G01X1782699Y-4372889D01*
G01X1417701Y-4372889D02*
G01X1413612Y-4368800D01*
G01X1320800D01*
G01X1417701Y-4437888D02*
G01X1199388Y-4437888D01*
G01X1117597Y-4356097D01*
G01X1417701Y-4502912D02*
G01X919988Y-4502912D01*
G01X850900Y-4572000D01*
G01X1417701Y-4567911D02*
G01X1413612Y-4572000D01*
G01X1104900D01*
G01X850900Y-4826000D01*
G01X1117597Y-4356097D02*
G01X787408Y-4356097D01*
G01X1782699Y-4218308D02*
G01X1782699Y-4372889D01*
G01X1407668Y-4101188D02*
G01X1152759Y-4356097D01*
G01X1117597D01*
G01X1407668Y-4251861D02*
G01X1511300Y-4355493D01*
G01X1478788Y-4502912D02*
G01X1417701Y-4502912D01*
G01X1511300Y-4355493D02*
G01X1511300Y-4470400D01*
G01X1478788Y-4502912D01*
G01X1407668Y-4075788D02*
G01X1597525Y-4075788D01*
G01X1597525Y-4226461D02*
G01X1597525Y-4460375D01*
G01X1489989Y-4567911D02*
G01X1417701Y-4567911D01*
G01X1597525Y-4460375D02*
G01X1489989Y-4567911D01*
G01X1944139Y-4431899D02*
G01X1938150Y-4437888D01*
G01X1782699D01*
G01X1944139Y-4291894D02*
G01X1944139Y-4217439D01*
G01X1943100Y-4216400D01*
G01X938609Y-680728D02*
G01X938609Y-1004491D01*
G01X825500Y-1117600D01*
G01X1078614Y-680728D02*
G01X1163328Y-680728D01*
G01X1168400Y-685800D01*
G01X825500Y-1371600D02*
G01X533400Y-1079500D01*
G54D35*
G01X754485Y-571500D02*
G01X2298700Y-571500D01*
G01X2730500Y-1003300D01*
G54D36*
G01X533400Y-1079500D02*
G01X533400Y-792585D01*
G01X754485Y-571500D01*
G01X88900Y-1219200D02*
G01X191061Y-1219200D01*
G01X192187Y-1220325D01*
G01X825500Y-1371600D02*
G01X203457Y-1371600D01*
G01X192187Y-1360330D01*
G01X4060774Y-2866974D02*
G01X4060774Y-2788564D01*
G01X4064000Y-2870200D02*
G01X4060774Y-2866974D01*
G54D35*
G01X4546608Y-3429000D02*
G01X4546608Y-2882897D01*
G54D36*
G01X3901211Y-2769006D02*
G01X3759759Y-2769006D01*
G01X965284Y-2735298D02*
G01X749384Y-2519398D01*
G01Y-1752572D01*
G01X812884Y-1689072D01*
G01X1219284D01*
G01X1460584Y-1447772D01*
G01X2400384Y-990572D02*
G01X1206584Y-990572D01*
G01X1079500Y-1117600D02*
G01X1206500Y-1244600D01*
G01X1397000Y-1244600D02*
G01X1460500Y-1308100D01*
G01Y-1447688D01*
G01X1206500Y-1244600D02*
G01X1397000Y-1244600D01*
G01X3479249Y-2769004D02*
G01X3421049Y-2769004D01*
G01X3403600Y-2751555D01*
G01Y-2590800D01*
G01X4282910Y-2387600D02*
G01X4219960Y-2387600D01*
G01X4140200Y-2307840D01*
G01Y-2222500D01*
G01X4025228Y-2107528D01*
G01Y-1981872D01*
G01X4635500Y-1371600D02*
G01X4025228Y-1981872D01*
G01X4282910Y-2292604D02*
G01X4284140Y-2291374D01*
G01Y-2232604D01*
G01X4022890Y-2482596D02*
G01X4005524Y-2465230D01*
G01X3863772D01*
G01X3738202Y-2590800D01*
G01X3733800Y-2590800D02*
G01X3723005Y-2590800D01*
G01X3920769Y-2788564D02*
G01X3901211Y-2769006D01*
G01X3723005Y-2590800D01*
G01X3738202Y-2590800D02*
G01X3733800Y-2590800D01*
G01X3759759Y-2718994D02*
G01X3670300Y-2629535D01*
G01X3670300Y-2336800D02*
G01X3797300Y-2209800D01*
G01X3940086D01*
G01X4022890Y-2292604D01*
G01X3863772Y-2325225D02*
G01X3773025Y-2325225D01*
G01X3771900Y-2324100D01*
G01X3670300Y-2629535D02*
G01X3670300Y-2511820D01*
G01X3670300Y-2336800D02*
G01X3670300Y-2511820D01*
G01X3920769Y-2788564D02*
G01X3920769Y-4346931D01*
G01X3657600Y-4610100D01*
G01Y-5001362D01*
G01X3651275Y-5007686D01*
G01X3263976Y-5359324D02*
G01X3263976Y-5020386D01*
G01X1782699Y-4502912D02*
G01X1656588Y-4502912D01*
G01X1782699Y-4567911D02*
G01X1693189Y-4567911D01*
G01X1550213Y-4710887D01*
G01X1656588Y-4502912D02*
G01X1500200Y-4659300D01*
G01X1651000Y-4832198D02*
G01X1600200Y-4882998D01*
G01Y-4996002D01*
G01X1779039Y-4076675D02*
G01X1968475Y-4076675D01*
G01X1791005Y-4832198D02*
G01X1791005Y-4914595D01*
G01X1790700Y-4914900D01*
G01X1600200Y-5511800D02*
G01X1600200Y-5417998D01*
G01X1700200Y-5510200D02*
G01X1700200Y-5417998D01*
G01X1701800Y-5511800D02*
G01X1700200Y-5510200D01*
G01X1650213Y-5405298D02*
G01X1650213Y-5311347D01*
G01X1691060Y-5270500D01*
G01X2095000D01*
G01X1574800Y-5575300D02*
G01X1498600Y-5499100D01*
G01Y-5406898D01*
G01X1500200Y-5405298D01*
G01X2001159Y-5153331D02*
G01X1641169Y-5153331D01*
G01X1498600Y-5295900D01*
G01Y-5403698D01*
G01X1500200Y-5405298D01*
G01X2005736Y-5537200D02*
G01X2019300Y-5523636D01*
G01X1917700Y-5537200D02*
G01X2005736Y-5537200D01*
G01X2006600Y-5372964D02*
G01X1969971Y-5372964D01*
G01X1767635Y-5575300D01*
G01X1574800D01*
G01X4292600Y-2844800D02*
G01X4406900Y-2730500D01*
G01Y-2197100D01*
G01X4229097Y-2019297D01*
G01X4102108D01*
G54D35*
G01X2851229Y-5124422D02*
G01X2851229Y-5007580D01*
G01X3175079Y-5448272D02*
G01X2851229Y-5124422D01*
G01X3962430Y-5448272D02*
G01X3175079Y-5448272D01*
G01X4038605Y-5372097D02*
G01X3962430Y-5448272D01*
G01X4038605Y-5079997D02*
G01X4038605Y-5372097D01*
G01X4292608Y-4825995D02*
G01X4038605Y-5079997D01*
G01X4292608Y-2882897D02*
G01X4292608Y-4825995D01*
G54D36*
G01X2743200Y-5397500D02*
G01X2735402Y-5405298D01*
G01X2229797D01*
G01X2095000Y-5270500D01*
G01X3263976Y-5020386D02*
G01X3251276Y-5007686D01*
G01X1782699Y-4502912D02*
G01X1897014Y-4502912D01*
G01X1977913Y-4583811D01*
G01X1782699Y-4567911D02*
G01X1808970Y-4567911D01*
G01X1977271Y-4736211D01*
G01X2128586Y-4583811D02*
G01X2128586Y-4580934D01*
G01X2181860Y-4527660D01*
G01Y-4290060D01*
G01X1968475Y-4076675D01*
G01X2128586Y-4583811D02*
G01X2128586Y-4735568D01*
G01X2127943Y-4736211D01*
G01Y-4875874D01*
G01X2001159Y-5002658D01*
G01X1841500Y-4724400D02*
G01X1689100Y-4724400D01*
G01X1651000Y-4762500D02*
G01X1651000Y-4832198D01*
G01X1689100Y-4724400D02*
G01X1651000Y-4762500D01*
G01X2001159Y-5002658D02*
G01X2001159Y-4884059D01*
G01X1841500Y-4724400D02*
G01X2001159Y-4884059D01*
G01X1550213Y-5077253D02*
G01X1534766Y-5092700D01*
G01X1422400Y-5092700D02*
G01X1397000Y-5118100D01*
G01Y-5181600D01*
G01X1295400Y-5283200D01*
G01X1193800D01*
G01X1067580Y-5409420D02*
G01X840321Y-5409420D01*
G01X1550213Y-4710887D02*
G01X1550213Y-4983302D01*
G01X1534766Y-5092700D02*
G01X1422400Y-5092700D01*
G01X1193800Y-5283200D02*
G01X1067580Y-5409420D01*
G01X1550213Y-4983302D02*
G01X1550213Y-5077253D01*
G01X1500200Y-4659300D02*
G01X1500200Y-4983302D01*
G01Y-4996002D01*
G01X1168610Y-5009203D02*
G01X1168610Y-5052277D01*
G01X1142709Y-5078178D01*
G01X1042110D01*
G01X1016210Y-5052277D01*
G01Y-5009203D01*
G01X990309Y-4983302D01*
G01X958108D01*
G01X932207Y-5009203D01*
G01Y-5130300D01*
G01X906307Y-5156200D01*
G01X841101D01*
G01X840321Y-5155420D01*
G01X1500200Y-4983302D02*
G01X1363802Y-4983302D01*
G01X1308100Y-4927600D01*
G01X1250212D01*
G01X1168610Y-5009203D01*
G04 Track End*

M02*
