G04 Layer: TopSolderMaskLayer*
G04 EasyEDA Pro v2.1.49.573a4102.674264, 2024-02-19 19:22:48*
G04 Gerber Generator version 0.3*
G04 Scale: 100 percent, Rotated: No, Reflected: No*
G04 Dimensions in millimeters*
G04 Leading zeros omitted, absolute positions, 3 integers and 5 decimals*
%FSLAX35Y35*%
%MOMM*%
%AMRoundRect*1,1,$1,$2,$3*1,1,$1,$4,$5*1,1,$1,0-$2,0-$3*1,1,$1,0-$4,0-$5*20,1,$1,$2,$3,$4,$5,0*20,1,$1,$4,$5,0-$2,0-$3,0*20,1,$1,0-$2,0-$3,0-$4,0-$5,0*20,1,$1,0-$4,0-$5,$2,$3,0*4,1,4,$2,$3,$4,$5,0-$2,0-$3,0-$4,0-$5,$2,$3,0*%
%AMOval*1,1,$1,$2,$3*1,1,$1,$4,$5*20,1,$1,$2,$3,$4,$5,0*%
%ADD10C,6.40319*%
%ADD11C,0.6016*%
%ADD12RoundRect,0.09414X0.75294X0.75294X0.75294X-0.75294*%
%ADD13C,1.60002*%
%ADD14RoundRect,0.08875X0.3064X-1.10642X-0.3064X-1.10642*%
%ADD15RoundRect,0.09645X0.90257X1.30257X0.90257X-1.30257*%
%ADD16C,1.9016*%
%ADD17RoundRect,0.09579X0.7903X-0.9029X-0.7903X-0.9029*%
%ADD18RoundRect,0.09645X-0.90257X-0.90257X-0.90257X0.90257*%
%ADD19RoundRect,0.09131X-0.40514X0.45514X0.40514X0.45514*%
%ADD20RoundRect,0.09131X0.45514X0.40514X0.45514X-0.40514*%
%ADD21RoundRect,0.09131X0.40514X-0.45514X-0.40514X-0.45514*%
%ADD22RoundRect,0.09138X0.43712X0.40835X0.43712X-0.40835*%
%ADD23Oval,1.50002X0.0X-0.35X0.0X0.35*%
%ADD24O,2.20002X1.50002*%
%ADD25O,1.0066X0.38161*%
%ADD26O,0.38161X1.72161*%
%ADD27C,1.6256*%
%ADD28RoundRect,0.08875X-0.50642X0.30643X0.50642X0.30643*%
%ADD29RoundRect,0.09131X-0.45514X-0.40514X-0.45514X0.40514*%
%ADD30Oval,0.5016X0.4X0.0X-0.4X0.0*%
%ADD31RoundRect,0.09138X-0.40835X0.43712X0.40835X0.43712*%
G75*


G04 Pad Start*
G54D10*
G01X350020Y-400022D03*
G01X350020Y-5300012D03*
G01X6150008Y-5300012D03*
G01X6150008Y-400022D03*
G54D11*
G01X2275021Y-1751420D03*
G01X3670421Y-2511820D03*
G01X3552920Y-3210320D03*
G01X3365500Y-2349500D03*
G01X3562420Y-2345120D03*
G01X2070221Y-5264520D03*
G01X4875320Y-3808820D03*
G54D12*
G01X965200Y-1935302D03*
G54D13*
G01X965200Y-2135302D03*
G01X965200Y-2335301D03*
G01X965200Y-2535301D03*
G01X965200Y-2735301D03*
G01X965200Y-2935300D03*
G01X965200Y-3135300D03*
G01X965200Y-3335299D03*
G01X965200Y-3535299D03*
G01X965200Y-3735299D03*
G01X965200Y-3935298D03*
G01X965200Y-4135298D03*
G54D14*
G01X2551201Y-5007686D03*
G01X2651252Y-5007686D03*
G01X2751201Y-5007686D03*
G01X2851201Y-5007686D03*
G01X2951201Y-5007686D03*
G01X3051099Y-5007686D03*
G01X3151276Y-5007686D03*
G01X3251276Y-5007686D03*
G01X3351276Y-5007686D03*
G01X3451276Y-5007686D03*
G01X3551276Y-5007686D03*
G01X3651275Y-5007686D03*
G01X3751224Y-5007686D03*
G01X3851148Y-5007686D03*
G01X3951199Y-5007686D03*
G54D15*
G01X2321281Y-5228514D03*
G01X4181119Y-5228311D03*
G54D16*
G01X4292600Y-2844800D03*
G01X4546600Y-2844800D03*
G54D17*
G01X4800600Y-2844800D03*
G54D16*
G01X850900Y-4572000D03*
G54D18*
G01X850900Y-4826000D03*
G54D19*
G01X4060774Y-2788564D03*
G01X3920769Y-2788564D03*
G54D20*
G01X3329724Y-3033166D03*
G01X3329724Y-2893162D03*
G54D21*
G01X1651000Y-4806798D03*
G01X1791005Y-4806798D03*
G54D22*
G01X2001159Y-5153331D03*
G01X2001159Y-5002658D03*
G01X1407668Y-4226461D03*
G01X1407668Y-4075788D03*
G01X1572125Y-4226461D03*
G01X1572125Y-4075788D03*
G01X2006600Y-5523636D03*
G01X2006600Y-5372964D03*
G54D23*
G01X5579595Y-2044700D03*
G54D24*
G01X5799610Y-1864700D03*
G01X5799610Y-2224700D03*
G54D25*
G01X3479241Y-2718994D03*
G01X3479241Y-2769006D03*
G01X3479241Y-2818994D03*
G01X3479241Y-2869006D03*
G01X3759759Y-2718994D03*
G01X3759759Y-2769006D03*
G01X3759759Y-2818994D03*
G01X3759759Y-2869006D03*
G54D26*
G01X1500200Y-5405298D03*
G01X1550213Y-5405298D03*
G01X1600200Y-5405298D03*
G01X1650213Y-5405298D03*
G01X1700200Y-5405298D03*
G01X1500200Y-4983302D03*
G01X1550213Y-4983302D03*
G01X1600200Y-4983302D03*
G01X1650213Y-4983302D03*
G01X1700200Y-4983302D03*
G54D27*
G01X825500Y-1371600D03*
G01X825500Y-1117600D03*
G01X1079500Y-1371600D03*
G01X1079500Y-1117600D03*
G01X1333500Y-1371600D03*
G01X1333500Y-1117600D03*
G01X1587500Y-1371600D03*
G01X1587500Y-1117600D03*
G01X1841500Y-1371600D03*
G01X1841500Y-1117600D03*
G01X2095500Y-1371600D03*
G01X2095500Y-1117600D03*
G01X2349500Y-1371600D03*
G01X2349500Y-1117600D03*
G01X2603500Y-1371600D03*
G01X2603500Y-1117600D03*
G01X2857500Y-1371600D03*
G01X2857500Y-1117600D03*
G01X3111500Y-1371600D03*
G01X3111500Y-1117600D03*
G01X3365500Y-1371600D03*
G01X3365500Y-1117600D03*
G01X3619500Y-1371600D03*
G01X3619500Y-1117600D03*
G01X3873500Y-1371600D03*
G01X3873500Y-1117600D03*
G01X4127500Y-1371600D03*
G01X4127500Y-1117600D03*
G01X4381500Y-1371600D03*
G01X4381500Y-1117600D03*
G01X4635500Y-1371600D03*
G01X4635500Y-1117600D03*
G01X4889500Y-1371600D03*
G01X4889500Y-1117600D03*
G01X5143500Y-1371600D03*
G01X5143500Y-1117600D03*
G01X5397500Y-1371600D03*
G01X5397500Y-1117600D03*
G01X5651500Y-1371600D03*
G01X5651500Y-1117600D03*
G54D28*
G01X4022890Y-2482596D03*
G01X4022890Y-2292604D03*
G01X4282910Y-2292604D03*
G01X4282910Y-2387600D03*
G01X4282910Y-2482596D03*
G54D29*
G01X3863772Y-2325225D03*
G01X3863772Y-2465230D03*
G54D30*
G01X1417701Y-4372889D03*
G01X1417701Y-4437888D03*
G01X1417701Y-4502912D03*
G01X1417701Y-4567911D03*
G01X1782699Y-4567911D03*
G01X1782699Y-4502912D03*
G01X1782699Y-4437888D03*
G01X1782699Y-4372889D03*
G54D22*
G01X1779039Y-4227347D03*
G01X1779039Y-4076675D03*
G54D20*
G01X1944139Y-4431899D03*
G01X1944139Y-4291894D03*
G54D31*
G01X2127943Y-4736211D03*
G01X1977271Y-4736211D03*
G01X2128586Y-4583811D03*
G01X1977913Y-4583811D03*
G54D29*
G01X192187Y-1220325D03*
G01X192187Y-1360330D03*
G54D21*
G01X938609Y-680728D03*
G01X1078614Y-680728D03*
G54D16*
G01X840321Y-5193520D03*
G54D18*
G01X840321Y-5447520D03*
G04 Pad End*

M02*
