G04 Layer: BottomSilkscreenLayer*
G04 EasyEDA Pro v2.1.49.573a4102.674264, 2024-02-19 19:22:48*
G04 Gerber Generator version 0.3*
G04 Scale: 100 percent, Rotated: No, Reflected: No*
G04 Dimensions in millimeters*
G04 Leading zeros omitted, absolute positions, 3 integers and 5 decimals*
%FSLAX35Y35*%
%MOMM*%
%ADD10C,0.203*%
G75*


G04 Text Start*
G54D10*
G01X5450840Y-109220D02*
G01X5450840Y-295910D01*
G01X5450840Y-109220D02*
G01X5388610Y-109220D01*
G01X5361940Y-118110D01*
G01X5344160Y-135890D01*
G01X5335270Y-153670D01*
G01X5326380Y-180340D01*
G01Y-224790D01*
G01X5335270Y-251460D01*
G01X5344160Y-269240D01*
G01X5361940Y-287020D01*
G01X5388610Y-295910D01*
G01X5450840D01*
G01X5263388Y-224790D02*
G01X5156708Y-224790D01*
G01Y-207010D01*
G01X5165598Y-189230D01*
G01X5174488Y-180340D01*
G01X5192268Y-171450D01*
G01X5218938D01*
G01X5236718Y-180340D01*
G01X5254498Y-198120D01*
G01X5263388Y-224790D01*
G01Y-242570D01*
G01X5254498Y-269240D01*
G01X5236718Y-287020D01*
G01X5218938Y-295910D01*
G01X5192268D01*
G01X5174488Y-287020D01*
G01X5156708Y-269240D01*
G01X4995926Y-198120D02*
G01X5004816Y-180340D01*
G01X5031486Y-171450D01*
G01X5058156D01*
G01X5084826Y-180340D01*
G01X5093716Y-198120D01*
G01X5084826Y-215900D01*
G01X5067046Y-224790D01*
G01X5022596Y-233680D01*
G01X5004816Y-242570D01*
G01X4995926Y-260350D01*
G01Y-269240D01*
G01X5004816Y-287020D01*
G01X5031486Y-295910D01*
G01X5058156D01*
G01X5084826Y-287020D01*
G01X5093716Y-269240D01*
G01X4932934Y-109220D02*
G01X4924044Y-118110D01*
G01X4915154Y-109220D01*
G01X4924044Y-100330D01*
G01X4932934Y-109220D01*
G01X4924044Y-171450D02*
G01X4924044Y-295910D01*
G01X4745482Y-171450D02*
G01X4745482Y-313690D01*
G01X4754372Y-340360D01*
G01X4763262Y-349250D01*
G01X4781042Y-358140D01*
G01X4807712D01*
G01X4825492Y-349250D01*
G01X4745482Y-198120D02*
G01X4763262Y-180340D01*
G01X4781042Y-171450D01*
G01X4807712D01*
G01X4825492Y-180340D01*
G01X4843272Y-198120D01*
G01X4852162Y-224790D01*
G01Y-242570D01*
G01X4843272Y-269240D01*
G01X4825492Y-287020D01*
G01X4807712Y-295910D01*
G01X4781042D01*
G01X4763262Y-287020D01*
G01X4745482Y-269240D01*
G01X4682490Y-171450D02*
G01X4682490Y-295910D01*
G01X4682490Y-207010D02*
G01X4655820Y-180340D01*
G01X4638040Y-171450D01*
G01X4611370D01*
G01X4593590Y-180340D01*
G01X4584700Y-207010D01*
G01Y-295910D01*
G01X4521708Y-224790D02*
G01X4415028Y-224790D01*
G01Y-207010D01*
G01X4423918Y-189230D01*
G01X4432808Y-180340D01*
G01X4450588Y-171450D01*
G01X4477258D01*
G01X4495038Y-180340D01*
G01X4512818Y-198120D01*
G01X4521708Y-224790D01*
G01Y-242570D01*
G01X4512818Y-269240D01*
G01X4495038Y-287020D01*
G01X4477258Y-295910D01*
G01X4450588D01*
G01X4432808Y-287020D01*
G01X4415028Y-269240D01*
G01X4245356Y-109220D02*
G01X4245356Y-295910D01*
G01X4245356Y-198120D02*
G01X4263136Y-180340D01*
G01X4280916Y-171450D01*
G01X4307586D01*
G01X4325366Y-180340D01*
G01X4343146Y-198120D01*
G01X4352036Y-224790D01*
G01Y-242570D01*
G01X4343146Y-269240D01*
G01X4325366Y-287020D01*
G01X4307586Y-295910D01*
G01X4280916D01*
G01X4263136Y-287020D01*
G01X4245356Y-269240D01*
G01X3983228Y-171450D02*
G01X3947668Y-295910D01*
G01X3912108Y-171450D02*
G01X3947668Y-295910D01*
G01X3912108Y-171450D02*
G01X3876548Y-295910D01*
G01X3840988Y-171450D02*
G01X3876548Y-295910D01*
G01X3777996Y-109220D02*
G01X3769106Y-118110D01*
G01X3760216Y-109220D01*
G01X3769106Y-100330D01*
G01X3777996Y-109220D01*
G01X3769106Y-171450D02*
G01X3769106Y-295910D01*
G01X3670554Y-109220D02*
G01X3670554Y-260350D01*
G01X3661664Y-287020D01*
G01X3643884Y-295910D01*
G01X3626104D01*
G01X3697224Y-171450D02*
G01X3634994Y-171450D01*
G01X3563112Y-109220D02*
G01X3563112Y-295910D01*
G01X3563112Y-207010D02*
G01X3536442Y-180340D01*
G01X3518662Y-171450D01*
G01X3491992D01*
G01X3474212Y-180340D01*
G01X3465322Y-207010D01*
G01Y-295910D01*
G01X3096514Y-198120D02*
G01X3114294Y-180340D01*
G01X3132074Y-171450D01*
G01X3158744D01*
G01X3176524Y-180340D01*
G01X3194304Y-198120D01*
G01X3203194Y-224790D01*
G01Y-242570D01*
G01X3194304Y-269240D01*
G01X3176524Y-287020D01*
G01X3158744Y-295910D01*
G01X3132074D01*
G01X3114294Y-287020D01*
G01X3096514Y-269240D01*
G01X2926842Y-171450D02*
G01X2926842Y-295910D01*
G01X2926842Y-198120D02*
G01X2944622Y-180340D01*
G01X2962402Y-171450D01*
G01X2989072D01*
G01X3006852Y-180340D01*
G01X3024632Y-198120D01*
G01X3033522Y-224790D01*
G01Y-242570D01*
G01X3024632Y-269240D01*
G01X3006852Y-287020D01*
G01X2989072Y-295910D01*
G01X2962402D01*
G01X2944622Y-287020D01*
G01X2926842Y-269240D01*
G01X2863850Y-171450D02*
G01X2863850Y-295910D01*
G01X2863850Y-224790D02*
G01X2854960Y-198120D01*
G01X2837180Y-180340D01*
G01X2819400Y-171450D01*
G01X2792730D01*
G01X2729738Y-224790D02*
G01X2623058Y-224790D01*
G01Y-207010D01*
G01X2631948Y-189230D01*
G01X2640838Y-180340D01*
G01X2658618Y-171450D01*
G01X2685288D01*
G01X2703068Y-180340D01*
G01X2720848Y-198120D01*
G01X2729738Y-224790D01*
G01Y-242570D01*
G01X2720848Y-269240D01*
G01X2703068Y-287020D01*
G01X2685288Y-295910D01*
G01X2658618D01*
G01X2640838Y-287020D01*
G01X2623058Y-269240D01*
G01X2542286Y-260350D02*
G01X2551176Y-269240D01*
G01X2560066Y-260350D01*
G01X2551176Y-251460D01*
G01X2542286Y-260350D01*
G01Y-278130D01*
G01X2560066Y-295910D01*
G01X5344160Y-502920D02*
G01X5361940Y-485140D01*
G01X5379720Y-476250D01*
G01X5406390D01*
G01X5424170Y-485140D01*
G01X5441950Y-502920D01*
G01X5450840Y-529590D01*
G01Y-547370D01*
G01X5441950Y-574040D01*
G01X5424170Y-591820D01*
G01X5406390Y-600710D01*
G01X5379720D01*
G01X5361940Y-591820D01*
G01X5344160Y-574040D01*
G01X5174488Y-476250D02*
G01X5174488Y-600710D01*
G01X5174488Y-502920D02*
G01X5192268Y-485140D01*
G01X5210048Y-476250D01*
G01X5236718D01*
G01X5254498Y-485140D01*
G01X5272278Y-502920D01*
G01X5281168Y-529590D01*
G01Y-547370D01*
G01X5272278Y-574040D01*
G01X5254498Y-591820D01*
G01X5236718Y-600710D01*
G01X5210048D01*
G01X5192268Y-591820D01*
G01X5174488Y-574040D01*
G01X5040376Y-414020D02*
G01X5058156Y-414020D01*
G01X5075936Y-422910D01*
G01X5084826Y-449580D01*
G01Y-600710D01*
G01X5111496Y-476250D02*
G01X5049266Y-476250D01*
G01X4906264Y-414020D02*
G01X4924044Y-414020D01*
G01X4941824Y-422910D01*
G01X4950714Y-449580D01*
G01Y-600710D01*
G01X4977384Y-476250D02*
G01X4915154Y-476250D01*
G01X4843272Y-529590D02*
G01X4736592Y-529590D01*
G01Y-511810D01*
G01X4745482Y-494030D01*
G01X4754372Y-485140D01*
G01X4772152Y-476250D01*
G01X4798822D01*
G01X4816602Y-485140D01*
G01X4834382Y-502920D01*
G01X4843272Y-529590D01*
G01Y-547370D01*
G01X4834382Y-574040D01*
G01X4816602Y-591820D01*
G01X4798822Y-600710D01*
G01X4772152D01*
G01X4754372Y-591820D01*
G01X4736592Y-574040D01*
G01X4673600Y-414020D02*
G01X4664710Y-422910D01*
G01X4655820Y-414020D01*
G01X4664710Y-405130D01*
G01X4673600Y-414020D01*
G01X4664710Y-476250D02*
G01X4664710Y-600710D01*
G01X4592828Y-476250D02*
G01X4592828Y-600710D01*
G01X4592828Y-511810D02*
G01X4566158Y-485140D01*
G01X4548378Y-476250D01*
G01X4521708D01*
G01X4503928Y-485140D01*
G01X4495038Y-511810D01*
G01Y-600710D01*
G01X4432046Y-529590D02*
G01X4325366Y-529590D01*
G01Y-511810D01*
G01X4334256Y-494030D01*
G01X4343146Y-485140D01*
G01X4360926Y-476250D01*
G01X4387596D01*
G01X4405376Y-485140D01*
G01X4423156Y-502920D01*
G01X4432046Y-529590D01*
G01Y-547370D01*
G01X4423156Y-574040D01*
G01X4405376Y-591820D01*
G01X4387596Y-600710D01*
G01X4360926D01*
G01X4343146Y-591820D01*
G01X4325366Y-574040D01*
G01X4244594Y-565150D02*
G01X4253484Y-574040D01*
G01X4262374Y-565150D01*
G01X4253484Y-556260D01*
G01X4244594Y-565150D01*
G01Y-582930D01*
G01X4262374Y-600710D01*
G01X5344160Y-781050D02*
G01X5344160Y-905510D01*
G01X5344160Y-807720D02*
G01X5361940Y-789940D01*
G01X5379720Y-781050D01*
G01X5406390D01*
G01X5424170Y-789940D01*
G01X5441950Y-807720D01*
G01X5450840Y-834390D01*
G01Y-852170D01*
G01X5441950Y-878840D01*
G01X5424170Y-896620D01*
G01X5406390Y-905510D01*
G01X5379720D01*
G01X5361940Y-896620D01*
G01X5344160Y-878840D01*
G01X5281168Y-781050D02*
G01X5281168Y-905510D01*
G01X5281168Y-816610D02*
G01X5254498Y-789940D01*
G01X5236718Y-781050D01*
G01X5210048D01*
G01X5192268Y-789940D01*
G01X5183378Y-816610D01*
G01Y-905510D01*
G01X5013706Y-718820D02*
G01X5013706Y-905510D01*
G01X5013706Y-807720D02*
G01X5031486Y-789940D01*
G01X5049266Y-781050D01*
G01X5075936D01*
G01X5093716Y-789940D01*
G01X5111496Y-807720D01*
G01X5120386Y-834390D01*
G01Y-852170D01*
G01X5111496Y-878840D01*
G01X5093716Y-896620D01*
G01X5075936Y-905510D01*
G01X5049266D01*
G01X5031486Y-896620D01*
G01X5013706Y-878840D01*
G01X4644898Y-781050D02*
G01X4644898Y-967740D01*
G01X4644898Y-807720D02*
G01X4662678Y-789940D01*
G01X4680458Y-781050D01*
G01X4707128D01*
G01X4724908Y-789940D01*
G01X4742688Y-807720D01*
G01X4751578Y-834390D01*
G01Y-852170D01*
G01X4742688Y-878840D01*
G01X4724908Y-896620D01*
G01X4707128Y-905510D01*
G01X4680458D01*
G01X4662678Y-896620D01*
G01X4644898Y-878840D01*
G01X4581906Y-781050D02*
G01X4581906Y-869950D01*
G01X4573016Y-896620D01*
G01X4555236Y-905510D01*
G01X4528566D01*
G01X4510786Y-896620D01*
G01X4484116Y-869950D01*
G01X4484116Y-781050D02*
G01X4484116Y-905510D01*
G01X4421124Y-834390D02*
G01X4314444Y-834390D01*
G01Y-816610D01*
G01X4323334Y-798830D01*
G01X4332224Y-789940D01*
G01X4350004Y-781050D01*
G01X4376674D01*
G01X4394454Y-789940D01*
G01X4412234Y-807720D01*
G01X4421124Y-834390D01*
G01Y-852170D01*
G01X4412234Y-878840D01*
G01X4394454Y-896620D01*
G01X4376674Y-905510D01*
G01X4350004D01*
G01X4332224Y-896620D01*
G01X4314444Y-878840D01*
G01X4153662Y-807720D02*
G01X4162552Y-789940D01*
G01X4189222Y-781050D01*
G01X4215892D01*
G01X4242562Y-789940D01*
G01X4251452Y-807720D01*
G01X4242562Y-825500D01*
G01X4224782Y-834390D01*
G01X4180332Y-843280D01*
G01X4162552Y-852170D01*
G01X4153662Y-869950D01*
G01Y-878840D01*
G01X4162552Y-896620D01*
G01X4189222Y-905510D01*
G01X4215892D01*
G01X4242562Y-896620D01*
G01X4251452Y-878840D01*
G01X4064000Y-718820D02*
G01X4064000Y-869950D01*
G01X4055110Y-896620D01*
G01X4037330Y-905510D01*
G01X4019550D01*
G01X4090670Y-781050D02*
G01X4028440Y-781050D01*
G01X3956558Y-718820D02*
G01X3947668Y-727710D01*
G01X3938778Y-718820D01*
G01X3947668Y-709930D01*
G01X3956558Y-718820D01*
G01X3947668Y-781050D02*
G01X3947668Y-905510D01*
G01X3831336Y-781050D02*
G01X3849116Y-789940D01*
G01X3866896Y-807720D01*
G01X3875786Y-834390D01*
G01Y-852170D01*
G01X3866896Y-878840D01*
G01X3849116Y-896620D01*
G01X3831336Y-905510D01*
G01X3804666D01*
G01X3786886Y-896620D01*
G01X3769106Y-878840D01*
G01X3760216Y-852170D01*
G01Y-834390D01*
G01X3769106Y-807720D01*
G01X3786886Y-789940D01*
G01X3804666Y-781050D01*
G01X3831336D01*
G01X3697224Y-781050D02*
G01X3697224Y-905510D01*
G01X3697224Y-816610D02*
G01X3670554Y-789940D01*
G01X3652774Y-781050D01*
G01X3626104D01*
G01X3608324Y-789940D01*
G01X3599434Y-816610D01*
G01Y-905510D01*
G01X3429762Y-781050D02*
G01X3429762Y-905510D01*
G01X3429762Y-807720D02*
G01X3447542Y-789940D01*
G01X3465322Y-781050D01*
G01X3491992D01*
G01X3509772Y-789940D01*
G01X3527552Y-807720D01*
G01X3536442Y-834390D01*
G01Y-852170D01*
G01X3527552Y-878840D01*
G01X3509772Y-896620D01*
G01X3491992Y-905510D01*
G01X3465322D01*
G01X3447542Y-896620D01*
G01X3429762Y-878840D01*
G01X3366770Y-718820D02*
G01X3366770Y-905510D01*
G01X3366770Y-807720D02*
G01X3348990Y-789940D01*
G01X3331210Y-781050D01*
G01X3304540D01*
G01X3286760Y-789940D01*
G01X3268980Y-807720D01*
G01X3260090Y-834390D01*
G01Y-852170D01*
G01X3268980Y-878840D01*
G01X3286760Y-896620D01*
G01X3304540Y-905510D01*
G01X3331210D01*
G01X3348990Y-896620D01*
G01X3366770Y-878840D01*
G01X3197098Y-718820D02*
G01X3197098Y-905510D01*
G01X3134106Y-834390D02*
G01X3027426Y-834390D01*
G01Y-816610D01*
G01X3036316Y-798830D01*
G01X3045206Y-789940D01*
G01X3062986Y-781050D01*
G01X3089656D01*
G01X3107436Y-789940D01*
G01X3125216Y-807720D01*
G01X3134106Y-834390D01*
G01Y-852170D01*
G01X3125216Y-878840D01*
G01X3107436Y-896620D01*
G01X3089656Y-905510D01*
G01X3062986D01*
G01X3045206Y-896620D01*
G01X3027426Y-878840D01*
G01X2765298Y-718820D02*
G01X2765298Y-905510D01*
G01X2702306Y-718820D02*
G01X2693416Y-727710D01*
G01X2684526Y-718820D01*
G01X2693416Y-709930D01*
G01X2702306Y-718820D01*
G01X2693416Y-781050D02*
G01X2693416Y-905510D01*
G01X2550414Y-718820D02*
G01X2568194Y-718820D01*
G01X2585974Y-727710D01*
G01X2594864Y-754380D01*
G01Y-905510D01*
G01X2621534Y-781050D02*
G01X2559304Y-781050D01*
G01X2487422Y-834390D02*
G01X2380742Y-834390D01*
G01Y-816610D01*
G01X2389632Y-798830D01*
G01X2398522Y-789940D01*
G01X2416302Y-781050D01*
G01X2442972D01*
G01X2460752Y-789940D01*
G01X2478532Y-807720D01*
G01X2487422Y-834390D01*
G01Y-852170D01*
G01X2478532Y-878840D01*
G01X2460752Y-896620D01*
G01X2442972Y-905510D01*
G01X2416302D01*
G01X2398522Y-896620D01*
G01X2380742Y-878840D01*
G01X2011934Y-807720D02*
G01X2029714Y-789940D01*
G01X2047494Y-781050D01*
G01X2074164D01*
G01X2091944Y-789940D01*
G01X2109724Y-807720D01*
G01X2118614Y-834390D01*
G01Y-852170D01*
G01X2109724Y-878840D01*
G01X2091944Y-896620D01*
G01X2074164Y-905510D01*
G01X2047494D01*
G01X2029714Y-896620D01*
G01X2011934Y-878840D01*
G01X1948942Y-718820D02*
G01X1948942Y-905510D01*
G01X1948942Y-816610D02*
G01X1922272Y-789940D01*
G01X1904492Y-781050D01*
G01X1877822D01*
G01X1860042Y-789940D01*
G01X1851152Y-816610D01*
G01Y-905510D01*
G01X1743710Y-781050D02*
G01X1761490Y-789940D01*
G01X1779270Y-807720D01*
G01X1788160Y-834390D01*
G01Y-852170D01*
G01X1779270Y-878840D01*
G01X1761490Y-896620D01*
G01X1743710Y-905510D01*
G01X1717040D01*
G01X1699260Y-896620D01*
G01X1681480Y-878840D01*
G01X1672590Y-852170D01*
G01Y-834390D01*
G01X1681480Y-807720D01*
G01X1699260Y-789940D01*
G01X1717040Y-781050D01*
G01X1743710D01*
G01X1609598Y-718820D02*
G01X1600708Y-727710D01*
G01X1591818Y-718820D01*
G01X1600708Y-709930D01*
G01X1609598Y-718820D01*
G01X1600708Y-781050D02*
G01X1600708Y-905510D01*
G01X1422146Y-807720D02*
G01X1439926Y-789940D01*
G01X1457706Y-781050D01*
G01X1484376D01*
G01X1502156Y-789940D01*
G01X1519936Y-807720D01*
G01X1528826Y-834390D01*
G01Y-852170D01*
G01X1519936Y-878840D01*
G01X1502156Y-896620D01*
G01X1484376Y-905510D01*
G01X1457706D01*
G01X1439926Y-896620D01*
G01X1422146Y-878840D01*
G01X1359154Y-834390D02*
G01X1252474Y-834390D01*
G01Y-816610D01*
G01X1261364Y-798830D01*
G01X1270254Y-789940D01*
G01X1288034Y-781050D01*
G01X1314704D01*
G01X1332484Y-789940D01*
G01X1350264Y-807720D01*
G01X1359154Y-834390D01*
G01Y-852170D01*
G01X1350264Y-878840D01*
G01X1332484Y-896620D01*
G01X1314704Y-905510D01*
G01X1288034D01*
G01X1270254Y-896620D01*
G01X1252474Y-878840D01*
G01X1091692Y-807720D02*
G01X1100582Y-789940D01*
G01X1127252Y-781050D01*
G01X1153922D01*
G01X1180592Y-789940D01*
G01X1189482Y-807720D01*
G01X1180592Y-825500D01*
G01X1162812Y-834390D01*
G01X1118362Y-843280D01*
G01X1100582Y-852170D01*
G01X1091692Y-869950D01*
G01Y-878840D01*
G01X1100582Y-896620D01*
G01X1127252Y-905510D01*
G01X1153922D01*
G01X1180592Y-896620D01*
G01X1189482Y-878840D01*
G01X1019810Y-861060D02*
G01X1028700Y-869950D01*
G01X1019810Y-878840D01*
G01X1010920Y-869950D01*
G01X1019810Y-861060D01*
G04 Text End*

M02*
