G04 Layer: BottomLayer*
G04 EasyEDA Pro v2.1.49.573a4102.674264, 2024-02-19 19:22:48*
G04 Gerber Generator version 0.3*
G04 Scale: 100 percent, Rotated: No, Reflected: No*
G04 Dimensions in millimeters*
G04 Leading zeros omitted, absolute positions, 3 integers and 5 decimals*
%FSLAX35Y35*%
%MOMM*%
%AMOval*1,1,$1,$2,$3*1,1,$1,$4,$5*20,1,$1,$2,$3,$4,$5,0*%
%ADD8191C,0.2032*%
%ADD10C,0.75508*%
%ADD11C,0.76708*%
%ADD12C,1.05508*%
%ADD13C,0.70508*%
%ADD14C,6.19999*%
%ADD15R,1.5X1.5*%
%ADD16C,1.5*%
%ADD17C,1.8010*%
%ADD18C,1.8*%
%ADD19R,1.5748X1.8*%
%ADD20R,1.8X1.8*%
%ADD21Oval,1.4X0.0X-0.35X0.0X0.35*%
%ADD22O,2.1X1.4*%
%ADD23C,1.524*%
%ADD24C,0.61001*%
%ADD25C,0.62001*%
%ADD26C,0.254*%
%ADD27C,0.259*%
G75*


G04 Copper Start*
G36*
G01X494478Y-5614208D02*
G03X695833Y-5300012I-144458J314195D01*
G03X350020Y-4954199I-345813J0D01*
G03X35753Y-5155709I0J-345813D01*
G01Y-3800015D01*
G02X99939Y-3735829I64186J0D01*
G01X100365Y-3735827D01*
G01X399512D01*
G01X399938Y-3735829D01*
G01X399995D01*
G01X399999D01*
G01X400056D01*
G03X535752Y-3600133I-447J136143D01*
G01Y-3600077D01*
G01Y-3600072D01*
G01Y-3600016D01*
G01X535744Y-3599277D01*
G01Y-2100757D01*
G01X535752Y-2100019D01*
G01Y-2099991D01*
G03X399965Y-1964205I-135890J-103D01*
G01X399931D01*
G01X99939D01*
G02X35782Y-1901952I0J64186D01*
G01X35834Y-1900019D01*
G01Y-544502D01*
G03X350020Y-745835I314185J144480D01*
G03X695833Y-400022I0J345813D01*
G03X494496Y-85835I-345813J0D01*
G01X6005485Y-85856D01*
G03X5804195Y-400022I144523J-314166D01*
G03X6150008Y-745835I345813J0D01*
G03X6464206Y-544475I0J345813D01*
G01Y-5155560D01*
G03X6150008Y-4954199I-314198J-144452D01*
G03X5804195Y-5300012I0J-345813D01*
G03X6005550Y-5614208I345813J0D01*
G01X494478D01*
G37*
%LPC*%
G36*
G01X4500001Y-5498709D02*
G03X4648515Y-5350195I0J148514D01*
G01Y-4500199D01*
G01Y-3650196D01*
G03X4500001Y-3501682I-148514J0D01*
G03X4351487Y-3650196I0J-148514D01*
G01Y-4500199D01*
G01Y-5350195D01*
G03X4500001Y-5498709I148514J0D01*
G37*
G36*
G01X854386Y-4135298D02*
G03X965200Y-4246112I110814J0D01*
G03X1076014Y-4135298I0J110814D01*
G03X1012947Y-4035298I-110814J0D01*
G03X1076014Y-3935298I-47747J100000D01*
G03X1012947Y-3835298I-110814J0D01*
G03X1076014Y-3735299I-47747J100000D01*
G03X1012947Y-3635299I-110814J0D01*
G03X1076014Y-3535299I-47747J100000D01*
G03X1012947Y-3435299I-110814J0D01*
G03X1076014Y-3335299I-47747J100000D01*
G03X1012947Y-3235300I-110814J0D01*
G03X1076014Y-3135300I-47747J100000D01*
G03X1012947Y-3035300I-110814J0D01*
G03X1076014Y-2935300I-47747J100000D01*
G03X1012947Y-2835300I-110814J0D01*
G03X1076014Y-2735301I-47747J100000D01*
G03X1012947Y-2635301I-110814J0D01*
G03X1076014Y-2535301I-47747J100000D01*
G03X1012947Y-2435301I-110814J0D01*
G03X1076014Y-2335301I-47747J100000D01*
G03X1012947Y-2235302I-110814J0D01*
G03X1076014Y-2135302I-47747J100000D01*
G03X1030969Y-2046116I-110814J0D01*
G01X1040200D01*
G03X1076014Y-2010302I0J35814D01*
G01Y-1860302D01*
G03X1040200Y-1824488I-35814J0D01*
G01X890200D01*
G03X854386Y-1860302I0J-35814D01*
G01Y-2010302D01*
G03X890200Y-2046116I35814J0D01*
G01X899431D01*
G03X854386Y-2135302I65769J-89186D01*
G03X917453Y-2235302I110814J0D01*
G03X854386Y-2335301I47747J-100000D01*
G03X917453Y-2435301I110814J0D01*
G03X854386Y-2535301I47747J-100000D01*
G03X917453Y-2635301I110814J0D01*
G03X854386Y-2735301I47747J-100000D01*
G03X917453Y-2835300I110814J0D01*
G03X854386Y-2935300I47747J-100000D01*
G03X917453Y-3035300I110814J0D01*
G03X854386Y-3135300I47747J-100000D01*
G03X917453Y-3235300I110814J0D01*
G03X854386Y-3335299I47747J-100000D01*
G03X917453Y-3435299I110814J0D01*
G03X854386Y-3535299I47747J-100000D01*
G03X917453Y-3635299I110814J0D01*
G03X854386Y-3735299I47747J-100000D01*
G03X917453Y-3835298I110814J0D01*
G03X854386Y-3935298I47747J-100000D01*
G03X917453Y-4035298I110814J0D01*
G03X854386Y-4135298I47747J-100000D01*
G37*
G36*
G01X2308593Y-1574797D02*
G03X2374908Y-1641112I66314J0D01*
G03X2420118Y-1623311I0J66314D01*
G01X3815597D01*
G03X3860808Y-1641112I45210J48514D01*
G03X3927122Y-1574797I0J66314D01*
G03X3860808Y-1508483I-66314J0D01*
G03X3815597Y-1526283I0J-66314D01*
G01X2420118D01*
G03X2374908Y-1508483I-45210J-48514D01*
G03X2308593Y-1574797I0J-66314D01*
G37*
G36*
G01X4305300Y-1857014D02*
G03X4371614Y-1790700I0J66314D01*
G03X4357896Y-1750311I-66314J0D01*
G01X4361697D01*
G03X4406908Y-1768112I45210J48514D01*
G03X4473222Y-1701797I0J66314D01*
G03X4406908Y-1635483I-66314J0D01*
G03X4361697Y-1653283I0J-66314D01*
G01X3715518D01*
G03X3670308Y-1635483I-45210J-48514D01*
G03X3603993Y-1701797I0J-66314D01*
G03X3621096Y-1746247I66314J0D01*
G03X3603993Y-1790697I49212J-44450D01*
G03X3670308Y-1857012I66314J0D01*
G03X3715515Y-1839214I0J66314D01*
G01X4260090D01*
G03X4305300Y-1857014I45210J48514D01*
G37*
G36*
G01X2676886Y-5397500D02*
G03X2743200Y-5463814I66314J0D01*
G03X2788140Y-5446264I0J66314D01*
G01X3225800D01*
G03X3260281Y-5431981I0J48764D01*
G01X3266604Y-5425659D01*
G03X3330214Y-5359400I-2704J66259D01*
G03X3263900Y-5293086I-66314J0D01*
G03X3198449Y-5348736I0J-66314D01*
G01X2788140D01*
G03X2743200Y-5331186I-44940J-48764D01*
G03X2676886Y-5397500I0J-66314D01*
G37*
G36*
G01X4102108Y-2085612D02*
G03X4168422Y-2019297I0J66314D01*
G03X4102108Y-1952983I-66314J0D01*
G03X4056897Y-1970783I0J-66314D01*
G01X3840419D01*
G03X3784608Y-1940283I-55812J-35814D01*
G03X3718293Y-2006597I0J-66314D01*
G03X3784608Y-2072912I66314J0D01*
G03X3810111Y-2067811I0J66314D01*
G01X4056897D01*
G03X4102108Y-2085612I45210J48514D01*
G37*
G36*
G01X714507Y-5537520D02*
G03X750321Y-5573334I35814J0D01*
G01X930321D01*
G03X966135Y-5537520I0J35814D01*
G01Y-5357520D01*
G03X930321Y-5321706I-35814J0D01*
G01X750321D01*
G03X714507Y-5357520I0J-35814D01*
G01Y-5537520D01*
G37*
G36*
G01X4546600Y-2970614D02*
G03X4672414Y-2844800I0J125814D01*
G03X4546600Y-2718986I-125814J0D01*
G03X4420786Y-2844800I0J-125814D01*
G03X4546600Y-2970614I125814J0D01*
G37*
G36*
G01X714507Y-5193520D02*
G03X840321Y-5319334I125814J0D01*
G03X966135Y-5193520I0J125814D01*
G03X840321Y-5067706I-125814J0D01*
G03X714507Y-5193520I0J-125814D01*
G37*
G36*
G01X4292600Y-2970614D02*
G03X4418414Y-2844800I0J125814D01*
G03X4292600Y-2718986I-125814J0D01*
G03X4166786Y-2844800I0J-125814D01*
G03X4292600Y-2970614I125814J0D01*
G37*
G36*
G01X725086Y-4916000D02*
G03X760900Y-4951814I35814J0D01*
G01X940900D01*
G03X976714Y-4916000I0J35814D01*
G01Y-4736000D01*
G03X940900Y-4700186I-35814J0D01*
G01X760900D01*
G03X725086Y-4736000I0J-35814D01*
G01Y-4916000D01*
G37*
G36*
G01X850900Y-4697814D02*
G03X976714Y-4572000I0J125814D01*
G03X850900Y-4446186I-125814J0D01*
G03X725086Y-4572000I0J-125814D01*
G03X850900Y-4697814I125814J0D01*
G37*
G36*
G01X3337286Y-2590800D02*
G03X3403600Y-2657114I66314J0D01*
G03X3448808Y-2639317I0J66314D01*
G01X3688592D01*
G03X3733800Y-2657114I45208J48517D01*
G03X3800114Y-2590800I0J66314D01*
G03X3733800Y-2524486I-66314J0D01*
G03X3688587Y-2542289I0J-66314D01*
G01X3448813D01*
G03X3403600Y-2524486I-45213J-48511D01*
G03X3337286Y-2590800I0J-66314D01*
G37*
G36*
G01X5658796Y-1864700D02*
G03X5764610Y-1970514I105814J0D01*
G01X5834610D01*
G03X5940424Y-1864700I0J105814D01*
G03X5834610Y-1758886I-105814J0D01*
G01X5764610D01*
G03X5658796Y-1864700I0J-105814D01*
G37*
G36*
G01X5473781Y-2079700D02*
G03X5579595Y-2185514I105814J0D01*
G03X5685409Y-2079700I0J105814D01*
G01Y-2009700D01*
G03X5579595Y-1903886I-105814J0D01*
G03X5473781Y-2009700I0J-105814D01*
G01Y-2079700D01*
G37*
G36*
G01X5658796Y-2224700D02*
G03X5764610Y-2330513I105814J0D01*
G01X5834610D01*
G03X5940424Y-2224700I0J105814D01*
G03X5834610Y-2118886I-105814J0D01*
G01X5764610D01*
G03X5658796Y-2224700I0J-105814D01*
G37*
G36*
G01X4686046Y-2934800D02*
G03X4721860Y-2970614I35814J0D01*
G01X4879340D01*
G03X4915154Y-2934800I0J35814D01*
G01Y-2754800D01*
G03X4879340Y-2718986I-35814J0D01*
G01X4721860D01*
G03X4686046Y-2754800I0J-35814D01*
G01Y-2934800D01*
G37*
G36*
G01X825500Y-1483614D02*
G03X937514Y-1371600I0J112014D01*
G03X825500Y-1259586I-112014J0D01*
G03X713486Y-1371600I0J-112014D01*
G03X825500Y-1483614I112014J0D01*
G37*
G36*
G01X713486Y-1117600D02*
G03X825500Y-1229614I112014J0D01*
G03X937514Y-1117600I0J112014D01*
G03X825500Y-1005586I-112014J0D01*
G03X713486Y-1117600I0J-112014D01*
G37*
G36*
G01X5651500Y-1483614D02*
G03X5763514Y-1371600I0J112014D01*
G03X5651500Y-1259586I-112014J0D01*
G03X5539486Y-1371600I0J-112014D01*
G03X5651500Y-1483614I112014J0D01*
G37*
G36*
G01X5031486Y-1117600D02*
G03X5143500Y-1229614I112014J0D01*
G03X5255514Y-1117600I0J112014D01*
G03X5143500Y-1005586I-112014J0D01*
G03X5031486Y-1117600I0J-112014D01*
G37*
G36*
G01X5539486Y-1117600D02*
G03X5651500Y-1229614I112014J0D01*
G03X5763514Y-1117600I0J112014D01*
G03X5651500Y-1005586I-112014J0D01*
G03X5539486Y-1117600I0J-112014D01*
G37*
G36*
G01X1221486Y-1117600D02*
G03X1333500Y-1229614I112014J0D01*
G03X1445514Y-1117600I0J112014D01*
G03X1333500Y-1005586I-112014J0D01*
G03X1221486Y-1117600I0J-112014D01*
G37*
G36*
G01X1221486Y-1371600D02*
G03X1333500Y-1483614I112014J0D01*
G03X1445514Y-1371600I0J112014D01*
G03X1333500Y-1259586I-112014J0D01*
G03X1221486Y-1371600I0J-112014D01*
G37*
G36*
G01X1475486Y-1371600D02*
G03X1587500Y-1483614I112014J0D01*
G03X1699514Y-1371600I0J112014D01*
G03X1587500Y-1259586I-112014J0D01*
G03X1475486Y-1371600I0J-112014D01*
G37*
G36*
G01X5143500Y-1483614D02*
G03X5255514Y-1371600I0J112014D01*
G03X5143500Y-1259586I-112014J0D01*
G03X5031486Y-1371600I0J-112014D01*
G03X5143500Y-1483614I112014J0D01*
G37*
G36*
G01X4777486Y-1371600D02*
G03X4889500Y-1483614I112014J0D01*
G03X5001514Y-1371600I0J112014D01*
G03X4889500Y-1259586I-112014J0D01*
G03X4777486Y-1371600I0J-112014D01*
G37*
G36*
G01X967486Y-1371600D02*
G03X1079500Y-1483614I112014J0D01*
G03X1191514Y-1371600I0J112014D01*
G03X1079500Y-1259586I-112014J0D01*
G03X967486Y-1371600I0J-112014D01*
G37*
G36*
G01X4889500Y-1229614D02*
G03X5001514Y-1117600I0J112014D01*
G03X4889500Y-1005586I-112014J0D01*
G03X4777486Y-1117600I0J-112014D01*
G03X4889500Y-1229614I112014J0D01*
G37*
G36*
G01X5397500Y-1483614D02*
G03X5509514Y-1371600I0J112014D01*
G03X5397500Y-1259586I-112014J0D01*
G03X5285486Y-1371600I0J-112014D01*
G03X5397500Y-1483614I112014J0D01*
G37*
G36*
G01X1587500Y-1229614D02*
G03X1699514Y-1117600I0J112014D01*
G03X1587500Y-1005586I-112014J0D01*
G03X1475486Y-1117600I0J-112014D01*
G03X1587500Y-1229614I112014J0D01*
G37*
G36*
G01X5285486Y-1117600D02*
G03X5397500Y-1229614I112014J0D01*
G03X5509514Y-1117600I0J112014D01*
G03X5397500Y-1005586I-112014J0D01*
G03X5285486Y-1117600I0J-112014D01*
G37*
G36*
G01X1841500Y-1483614D02*
G03X1953514Y-1371600I0J112014D01*
G03X1841500Y-1259586I-112014J0D01*
G03X1729486Y-1371600I0J-112014D01*
G03X1841500Y-1483614I112014J0D01*
G37*
G36*
G01X1079500Y-1229614D02*
G03X1191514Y-1117600I0J112014D01*
G03X1079500Y-1005586I-112014J0D01*
G03X967486Y-1117600I0J-112014D01*
G03X1079500Y-1229614I112014J0D01*
G37*
G36*
G01X4635500Y-1483614D02*
G03X4747514Y-1371600I0J112014D01*
G03X4635500Y-1259586I-112014J0D01*
G03X4523486Y-1371600I0J-112014D01*
G03X4635500Y-1483614I112014J0D01*
G37*
G36*
G01X4635500Y-1229614D02*
G03X4747514Y-1117600I0J112014D01*
G03X4635500Y-1005586I-112014J0D01*
G03X4523486Y-1117600I0J-112014D01*
G03X4635500Y-1229614I112014J0D01*
G37*
G36*
G01X1841500Y-1229614D02*
G03X1953514Y-1117600I0J112014D01*
G03X1841500Y-1005586I-112014J0D01*
G03X1729486Y-1117600I0J-112014D01*
G03X1841500Y-1229614I112014J0D01*
G37*
G36*
G01X1983486Y-1371600D02*
G03X2095500Y-1483614I112014J0D01*
G03X2207514Y-1371600I0J112014D01*
G03X2095500Y-1259586I-112014J0D01*
G03X1983486Y-1371600I0J-112014D01*
G37*
G36*
G01X4269486Y-1371600D02*
G03X4381500Y-1483614I112014J0D01*
G03X4493514Y-1371600I0J112014D01*
G03X4381500Y-1259586I-112014J0D01*
G03X4269486Y-1371600I0J-112014D01*
G37*
G36*
G01X4381500Y-1229614D02*
G03X4493514Y-1117600I0J112014D01*
G03X4381500Y-1005586I-112014J0D01*
G03X4269486Y-1117600I0J-112014D01*
G03X4381500Y-1229614I112014J0D01*
G37*
G36*
G01X2095500Y-1229614D02*
G03X2207514Y-1117600I0J112014D01*
G03X2095500Y-1005586I-112014J0D01*
G03X1983486Y-1117600I0J-112014D01*
G03X2095500Y-1229614I112014J0D01*
G37*
G36*
G01X2349500Y-1483614D02*
G03X2461514Y-1371600I0J112014D01*
G03X2349500Y-1259586I-112014J0D01*
G03X2237486Y-1371600I0J-112014D01*
G03X2349500Y-1483614I112014J0D01*
G37*
G36*
G01X4127500Y-1483614D02*
G03X4239514Y-1371600I0J112014D01*
G03X4127500Y-1259586I-112014J0D01*
G03X4015486Y-1371600I0J-112014D01*
G03X4127500Y-1483614I112014J0D01*
G37*
G36*
G01X4015486Y-1117600D02*
G03X4127500Y-1229614I112014J0D01*
G03X4239514Y-1117600I0J112014D01*
G03X4127500Y-1005586I-112014J0D01*
G03X4015486Y-1117600I0J-112014D01*
G37*
G36*
G01X2349500Y-1229614D02*
G03X2461514Y-1117600I0J112014D01*
G03X2349500Y-1005586I-112014J0D01*
G03X2237486Y-1117600I0J-112014D01*
G03X2349500Y-1229614I112014J0D01*
G37*
G36*
G01X2491486Y-1371600D02*
G03X2603500Y-1483614I112014J0D01*
G03X2715514Y-1371600I0J112014D01*
G03X2603500Y-1259586I-112014J0D01*
G03X2491486Y-1371600I0J-112014D01*
G37*
G36*
G01X3761486Y-1371600D02*
G03X3873500Y-1483614I112014J0D01*
G03X3985514Y-1371600I0J112014D01*
G03X3873500Y-1259586I-112014J0D01*
G03X3761486Y-1371600I0J-112014D01*
G37*
G36*
G01X3873500Y-1229614D02*
G03X3985514Y-1117600I0J112014D01*
G03X3873500Y-1005586I-112014J0D01*
G03X3761486Y-1117600I0J-112014D01*
G03X3873500Y-1229614I112014J0D01*
G37*
G36*
G01X2603500Y-1229614D02*
G03X2715514Y-1117600I0J112014D01*
G03X2603500Y-1005586I-112014J0D01*
G03X2491486Y-1117600I0J-112014D01*
G03X2603500Y-1229614I112014J0D01*
G37*
G36*
G01X2745486Y-1371600D02*
G03X2857500Y-1483614I112014J0D01*
G03X2969514Y-1371600I0J112014D01*
G03X2857500Y-1259586I-112014J0D01*
G03X2745486Y-1371600I0J-112014D01*
G37*
G36*
G01X3619500Y-1483614D02*
G03X3731514Y-1371600I0J112014D01*
G03X3619500Y-1259586I-112014J0D01*
G03X3507486Y-1371600I0J-112014D01*
G03X3619500Y-1483614I112014J0D01*
G37*
G36*
G01X3619500Y-1229614D02*
G03X3731514Y-1117600I0J112014D01*
G03X3619500Y-1005586I-112014J0D01*
G03X3507486Y-1117600I0J-112014D01*
G03X3619500Y-1229614I112014J0D01*
G37*
G36*
G01X2745486Y-1117600D02*
G03X2857500Y-1229614I112014J0D01*
G03X2969514Y-1117600I0J112014D01*
G03X2857500Y-1005586I-112014J0D01*
G03X2745486Y-1117600I0J-112014D01*
G37*
G36*
G01X2999486Y-1371600D02*
G03X3111500Y-1483614I112014J0D01*
G03X3223514Y-1371600I0J112014D01*
G03X3111500Y-1259586I-112014J0D01*
G03X2999486Y-1371600I0J-112014D01*
G37*
G36*
G01X3365500Y-1483614D02*
G03X3477514Y-1371600I0J112014D01*
G03X3365500Y-1259586I-112014J0D01*
G03X3253486Y-1371600I0J-112014D01*
G03X3365500Y-1483614I112014J0D01*
G37*
G36*
G01X3253486Y-1117600D02*
G03X3365500Y-1229614I112014J0D01*
G03X3477514Y-1117600I0J112014D01*
G03X3365500Y-1005586I-112014J0D01*
G03X3253486Y-1117600I0J-112014D01*
G37*
G36*
G01X2999486Y-1117600D02*
G03X3111500Y-1229614I112014J0D01*
G03X3223514Y-1117600I0J112014D01*
G03X3111500Y-1005586I-112014J0D01*
G03X2999486Y-1117600I0J-112014D01*
G37*
G36*
G01X787408Y-4422412D02*
G03X853722Y-4356097I0J66314D01*
G03X787408Y-4289783I-66314J0D01*
G03X742197Y-4307583I0J-66314D01*
G01X591318D01*
G03X546108Y-4289783I-45210J-48514D01*
G03X479793Y-4356097I0J-66314D01*
G03X546108Y-4422412I66314J0D01*
G03X591318Y-4404611I0J66314D01*
G01X742197D01*
G03X787408Y-4422412I45210J48514D01*
G37*
G36*
G01X6019599Y-2140514D02*
G03X6115413Y-2044700I0J95814D01*
G03X6019599Y-1948886I-95814J0D01*
G03X5923785Y-2044700I0J-95814D01*
G03X6019599Y-2140514I95814J0D01*
G37*
%LPD*%
G54D8191*
G01X494478Y-5614208D02*
G03X695833Y-5300012I-144458J314195D01*
G03X350020Y-4954199I-345813J0D01*
G03X35753Y-5155709I0J-345813D01*
G01Y-3800015D01*
G02X99939Y-3735829I64186J0D01*
G01X100365Y-3735827D01*
G01X399512D01*
G01X399938Y-3735829D01*
G01X399995D01*
G01X399999D01*
G01X400056D01*
G03X535752Y-3600133I-447J136143D01*
G01Y-3600077D01*
G01Y-3600072D01*
G01Y-3600016D01*
G01X535744Y-3599277D01*
G01Y-2100757D01*
G01X535752Y-2100019D01*
G01Y-2099991D01*
G03X399965Y-1964205I-135890J-103D01*
G01X399931D01*
G01X99939D01*
G02X35782Y-1901952I0J64186D01*
G01X35834Y-1900019D01*
G01Y-544502D01*
G03X350020Y-745835I314185J144480D01*
G03X695833Y-400022I0J345813D01*
G03X494496Y-85835I-345813J0D01*
G01X6005485Y-85856D01*
G03X5804195Y-400022I144523J-314166D01*
G03X6150008Y-745835I345813J0D01*
G03X6464206Y-544475I0J345813D01*
G01Y-5155560D01*
G03X6150008Y-4954199I-314198J-144452D01*
G03X5804195Y-5300012I0J-345813D01*
G03X6005550Y-5614208I345813J0D01*
G01X494478D01*
G01X4500001Y-5498709D02*
G03X4648515Y-5350195I0J148514D01*
G01Y-4500199D01*
G01Y-3650196D01*
G03X4500001Y-3501682I-148514J0D01*
G03X4351487Y-3650196I0J-148514D01*
G01Y-4500199D01*
G01Y-5350195D01*
G03X4500001Y-5498709I148514J0D01*
G01X854386Y-4135298D02*
G03X965200Y-4246112I110814J0D01*
G03X1076014Y-4135298I0J110814D01*
G03X1012947Y-4035298I-110814J0D01*
G03X1076014Y-3935298I-47747J100000D01*
G03X1012947Y-3835298I-110814J0D01*
G03X1076014Y-3735299I-47747J100000D01*
G03X1012947Y-3635299I-110814J0D01*
G03X1076014Y-3535299I-47747J100000D01*
G03X1012947Y-3435299I-110814J0D01*
G03X1076014Y-3335299I-47747J100000D01*
G03X1012947Y-3235300I-110814J0D01*
G03X1076014Y-3135300I-47747J100000D01*
G03X1012947Y-3035300I-110814J0D01*
G03X1076014Y-2935300I-47747J100000D01*
G03X1012947Y-2835300I-110814J0D01*
G03X1076014Y-2735301I-47747J100000D01*
G03X1012947Y-2635301I-110814J0D01*
G03X1076014Y-2535301I-47747J100000D01*
G03X1012947Y-2435301I-110814J0D01*
G03X1076014Y-2335301I-47747J100000D01*
G03X1012947Y-2235302I-110814J0D01*
G03X1076014Y-2135302I-47747J100000D01*
G03X1030969Y-2046116I-110814J0D01*
G01X1040200D01*
G03X1076014Y-2010302I0J35814D01*
G01Y-1860302D01*
G03X1040200Y-1824488I-35814J0D01*
G01X890200D01*
G03X854386Y-1860302I0J-35814D01*
G01Y-2010302D01*
G03X890200Y-2046116I35814J0D01*
G01X899431D01*
G03X854386Y-2135302I65769J-89186D01*
G03X917453Y-2235302I110814J0D01*
G03X854386Y-2335301I47747J-100000D01*
G03X917453Y-2435301I110814J0D01*
G03X854386Y-2535301I47747J-100000D01*
G03X917453Y-2635301I110814J0D01*
G03X854386Y-2735301I47747J-100000D01*
G03X917453Y-2835300I110814J0D01*
G03X854386Y-2935300I47747J-100000D01*
G03X917453Y-3035300I110814J0D01*
G03X854386Y-3135300I47747J-100000D01*
G03X917453Y-3235300I110814J0D01*
G03X854386Y-3335299I47747J-100000D01*
G03X917453Y-3435299I110814J0D01*
G03X854386Y-3535299I47747J-100000D01*
G03X917453Y-3635299I110814J0D01*
G03X854386Y-3735299I47747J-100000D01*
G03X917453Y-3835298I110814J0D01*
G03X854386Y-3935298I47747J-100000D01*
G03X917453Y-4035298I110814J0D01*
G03X854386Y-4135298I47747J-100000D01*
G01X2308593Y-1574797D02*
G03X2374908Y-1641112I66314J0D01*
G03X2420118Y-1623311I0J66314D01*
G01X3815597D01*
G03X3860808Y-1641112I45210J48514D01*
G03X3927122Y-1574797I0J66314D01*
G03X3860808Y-1508483I-66314J0D01*
G03X3815597Y-1526283I0J-66314D01*
G01X2420118D01*
G03X2374908Y-1508483I-45210J-48514D01*
G03X2308593Y-1574797I0J-66314D01*
G01X4305300Y-1857014D02*
G03X4371614Y-1790700I0J66314D01*
G03X4357896Y-1750311I-66314J0D01*
G01X4361697D01*
G03X4406908Y-1768112I45210J48514D01*
G03X4473222Y-1701797I0J66314D01*
G03X4406908Y-1635483I-66314J0D01*
G03X4361697Y-1653283I0J-66314D01*
G01X3715518D01*
G03X3670308Y-1635483I-45210J-48514D01*
G03X3603993Y-1701797I0J-66314D01*
G03X3621096Y-1746247I66314J0D01*
G03X3603993Y-1790697I49212J-44450D01*
G03X3670308Y-1857012I66314J0D01*
G03X3715515Y-1839214I0J66314D01*
G01X4260090D01*
G03X4305300Y-1857014I45210J48514D01*
G01X2676886Y-5397500D02*
G03X2743200Y-5463814I66314J0D01*
G03X2788140Y-5446264I0J66314D01*
G01X3225800D01*
G03X3260281Y-5431981I0J48764D01*
G01X3266604Y-5425659D01*
G03X3330214Y-5359400I-2704J66259D01*
G03X3263900Y-5293086I-66314J0D01*
G03X3198449Y-5348736I0J-66314D01*
G01X2788140D01*
G03X2743200Y-5331186I-44940J-48764D01*
G03X2676886Y-5397500I0J-66314D01*
G01X4102108Y-2085612D02*
G03X4168422Y-2019297I0J66314D01*
G03X4102108Y-1952983I-66314J0D01*
G03X4056897Y-1970783I0J-66314D01*
G01X3840419D01*
G03X3784608Y-1940283I-55812J-35814D01*
G03X3718293Y-2006597I0J-66314D01*
G03X3784608Y-2072912I66314J0D01*
G03X3810111Y-2067811I0J66314D01*
G01X4056897D01*
G03X4102108Y-2085612I45210J48514D01*
G01X714507Y-5537520D02*
G03X750321Y-5573334I35814J0D01*
G01X930321D01*
G03X966135Y-5537520I0J35814D01*
G01Y-5357520D01*
G03X930321Y-5321706I-35814J0D01*
G01X750321D01*
G03X714507Y-5357520I0J-35814D01*
G01Y-5537520D01*
G01X4546600Y-2970614D02*
G03X4672414Y-2844800I0J125814D01*
G03X4546600Y-2718986I-125814J0D01*
G03X4420786Y-2844800I0J-125814D01*
G03X4546600Y-2970614I125814J0D01*
G01X714507Y-5193520D02*
G03X840321Y-5319334I125814J0D01*
G03X966135Y-5193520I0J125814D01*
G03X840321Y-5067706I-125814J0D01*
G03X714507Y-5193520I0J-125814D01*
G01X4292600Y-2970614D02*
G03X4418414Y-2844800I0J125814D01*
G03X4292600Y-2718986I-125814J0D01*
G03X4166786Y-2844800I0J-125814D01*
G03X4292600Y-2970614I125814J0D01*
G01X725086Y-4916000D02*
G03X760900Y-4951814I35814J0D01*
G01X940900D01*
G03X976714Y-4916000I0J35814D01*
G01Y-4736000D01*
G03X940900Y-4700186I-35814J0D01*
G01X760900D01*
G03X725086Y-4736000I0J-35814D01*
G01Y-4916000D01*
G01X850900Y-4697814D02*
G03X976714Y-4572000I0J125814D01*
G03X850900Y-4446186I-125814J0D01*
G03X725086Y-4572000I0J-125814D01*
G03X850900Y-4697814I125814J0D01*
G01X3337286Y-2590800D02*
G03X3403600Y-2657114I66314J0D01*
G03X3448808Y-2639317I0J66314D01*
G01X3688592D01*
G03X3733800Y-2657114I45208J48517D01*
G03X3800114Y-2590800I0J66314D01*
G03X3733800Y-2524486I-66314J0D01*
G03X3688587Y-2542289I0J-66314D01*
G01X3448813D01*
G03X3403600Y-2524486I-45213J-48511D01*
G03X3337286Y-2590800I0J-66314D01*
G01X5658796Y-1864700D02*
G03X5764610Y-1970514I105814J0D01*
G01X5834610D01*
G03X5940424Y-1864700I0J105814D01*
G03X5834610Y-1758886I-105814J0D01*
G01X5764610D01*
G03X5658796Y-1864700I0J-105814D01*
G01X5473781Y-2079700D02*
G03X5579595Y-2185514I105814J0D01*
G03X5685409Y-2079700I0J105814D01*
G01Y-2009700D01*
G03X5579595Y-1903886I-105814J0D01*
G03X5473781Y-2009700I0J-105814D01*
G01Y-2079700D01*
G01X5658796Y-2224700D02*
G03X5764610Y-2330513I105814J0D01*
G01X5834610D01*
G03X5940424Y-2224700I0J105814D01*
G03X5834610Y-2118886I-105814J0D01*
G01X5764610D01*
G03X5658796Y-2224700I0J-105814D01*
G01X4686046Y-2934800D02*
G03X4721860Y-2970614I35814J0D01*
G01X4879340D01*
G03X4915154Y-2934800I0J35814D01*
G01Y-2754800D01*
G03X4879340Y-2718986I-35814J0D01*
G01X4721860D01*
G03X4686046Y-2754800I0J-35814D01*
G01Y-2934800D01*
G01X825500Y-1483614D02*
G03X937514Y-1371600I0J112014D01*
G03X825500Y-1259586I-112014J0D01*
G03X713486Y-1371600I0J-112014D01*
G03X825500Y-1483614I112014J0D01*
G01X713486Y-1117600D02*
G03X825500Y-1229614I112014J0D01*
G03X937514Y-1117600I0J112014D01*
G03X825500Y-1005586I-112014J0D01*
G03X713486Y-1117600I0J-112014D01*
G01X5651500Y-1483614D02*
G03X5763514Y-1371600I0J112014D01*
G03X5651500Y-1259586I-112014J0D01*
G03X5539486Y-1371600I0J-112014D01*
G03X5651500Y-1483614I112014J0D01*
G01X5031486Y-1117600D02*
G03X5143500Y-1229614I112014J0D01*
G03X5255514Y-1117600I0J112014D01*
G03X5143500Y-1005586I-112014J0D01*
G03X5031486Y-1117600I0J-112014D01*
G01X5539486Y-1117600D02*
G03X5651500Y-1229614I112014J0D01*
G03X5763514Y-1117600I0J112014D01*
G03X5651500Y-1005586I-112014J0D01*
G03X5539486Y-1117600I0J-112014D01*
G01X1221486Y-1117600D02*
G03X1333500Y-1229614I112014J0D01*
G03X1445514Y-1117600I0J112014D01*
G03X1333500Y-1005586I-112014J0D01*
G03X1221486Y-1117600I0J-112014D01*
G01X1221486Y-1371600D02*
G03X1333500Y-1483614I112014J0D01*
G03X1445514Y-1371600I0J112014D01*
G03X1333500Y-1259586I-112014J0D01*
G03X1221486Y-1371600I0J-112014D01*
G01X1475486Y-1371600D02*
G03X1587500Y-1483614I112014J0D01*
G03X1699514Y-1371600I0J112014D01*
G03X1587500Y-1259586I-112014J0D01*
G03X1475486Y-1371600I0J-112014D01*
G01X5143500Y-1483614D02*
G03X5255514Y-1371600I0J112014D01*
G03X5143500Y-1259586I-112014J0D01*
G03X5031486Y-1371600I0J-112014D01*
G03X5143500Y-1483614I112014J0D01*
G01X4777486Y-1371600D02*
G03X4889500Y-1483614I112014J0D01*
G03X5001514Y-1371600I0J112014D01*
G03X4889500Y-1259586I-112014J0D01*
G03X4777486Y-1371600I0J-112014D01*
G01X967486Y-1371600D02*
G03X1079500Y-1483614I112014J0D01*
G03X1191514Y-1371600I0J112014D01*
G03X1079500Y-1259586I-112014J0D01*
G03X967486Y-1371600I0J-112014D01*
G01X4889500Y-1229614D02*
G03X5001514Y-1117600I0J112014D01*
G03X4889500Y-1005586I-112014J0D01*
G03X4777486Y-1117600I0J-112014D01*
G03X4889500Y-1229614I112014J0D01*
G01X5397500Y-1483614D02*
G03X5509514Y-1371600I0J112014D01*
G03X5397500Y-1259586I-112014J0D01*
G03X5285486Y-1371600I0J-112014D01*
G03X5397500Y-1483614I112014J0D01*
G01X1587500Y-1229614D02*
G03X1699514Y-1117600I0J112014D01*
G03X1587500Y-1005586I-112014J0D01*
G03X1475486Y-1117600I0J-112014D01*
G03X1587500Y-1229614I112014J0D01*
G01X5285486Y-1117600D02*
G03X5397500Y-1229614I112014J0D01*
G03X5509514Y-1117600I0J112014D01*
G03X5397500Y-1005586I-112014J0D01*
G03X5285486Y-1117600I0J-112014D01*
G01X1841500Y-1483614D02*
G03X1953514Y-1371600I0J112014D01*
G03X1841500Y-1259586I-112014J0D01*
G03X1729486Y-1371600I0J-112014D01*
G03X1841500Y-1483614I112014J0D01*
G01X1079500Y-1229614D02*
G03X1191514Y-1117600I0J112014D01*
G03X1079500Y-1005586I-112014J0D01*
G03X967486Y-1117600I0J-112014D01*
G03X1079500Y-1229614I112014J0D01*
G01X4635500Y-1483614D02*
G03X4747514Y-1371600I0J112014D01*
G03X4635500Y-1259586I-112014J0D01*
G03X4523486Y-1371600I0J-112014D01*
G03X4635500Y-1483614I112014J0D01*
G01X4635500Y-1229614D02*
G03X4747514Y-1117600I0J112014D01*
G03X4635500Y-1005586I-112014J0D01*
G03X4523486Y-1117600I0J-112014D01*
G03X4635500Y-1229614I112014J0D01*
G01X1841500Y-1229614D02*
G03X1953514Y-1117600I0J112014D01*
G03X1841500Y-1005586I-112014J0D01*
G03X1729486Y-1117600I0J-112014D01*
G03X1841500Y-1229614I112014J0D01*
G01X1983486Y-1371600D02*
G03X2095500Y-1483614I112014J0D01*
G03X2207514Y-1371600I0J112014D01*
G03X2095500Y-1259586I-112014J0D01*
G03X1983486Y-1371600I0J-112014D01*
G01X4269486Y-1371600D02*
G03X4381500Y-1483614I112014J0D01*
G03X4493514Y-1371600I0J112014D01*
G03X4381500Y-1259586I-112014J0D01*
G03X4269486Y-1371600I0J-112014D01*
G01X4381500Y-1229614D02*
G03X4493514Y-1117600I0J112014D01*
G03X4381500Y-1005586I-112014J0D01*
G03X4269486Y-1117600I0J-112014D01*
G03X4381500Y-1229614I112014J0D01*
G01X2095500Y-1229614D02*
G03X2207514Y-1117600I0J112014D01*
G03X2095500Y-1005586I-112014J0D01*
G03X1983486Y-1117600I0J-112014D01*
G03X2095500Y-1229614I112014J0D01*
G01X2349500Y-1483614D02*
G03X2461514Y-1371600I0J112014D01*
G03X2349500Y-1259586I-112014J0D01*
G03X2237486Y-1371600I0J-112014D01*
G03X2349500Y-1483614I112014J0D01*
G01X4127500Y-1483614D02*
G03X4239514Y-1371600I0J112014D01*
G03X4127500Y-1259586I-112014J0D01*
G03X4015486Y-1371600I0J-112014D01*
G03X4127500Y-1483614I112014J0D01*
G01X4015486Y-1117600D02*
G03X4127500Y-1229614I112014J0D01*
G03X4239514Y-1117600I0J112014D01*
G03X4127500Y-1005586I-112014J0D01*
G03X4015486Y-1117600I0J-112014D01*
G01X2349500Y-1229614D02*
G03X2461514Y-1117600I0J112014D01*
G03X2349500Y-1005586I-112014J0D01*
G03X2237486Y-1117600I0J-112014D01*
G03X2349500Y-1229614I112014J0D01*
G01X2491486Y-1371600D02*
G03X2603500Y-1483614I112014J0D01*
G03X2715514Y-1371600I0J112014D01*
G03X2603500Y-1259586I-112014J0D01*
G03X2491486Y-1371600I0J-112014D01*
G01X3761486Y-1371600D02*
G03X3873500Y-1483614I112014J0D01*
G03X3985514Y-1371600I0J112014D01*
G03X3873500Y-1259586I-112014J0D01*
G03X3761486Y-1371600I0J-112014D01*
G01X3873500Y-1229614D02*
G03X3985514Y-1117600I0J112014D01*
G03X3873500Y-1005586I-112014J0D01*
G03X3761486Y-1117600I0J-112014D01*
G03X3873500Y-1229614I112014J0D01*
G01X2603500Y-1229614D02*
G03X2715514Y-1117600I0J112014D01*
G03X2603500Y-1005586I-112014J0D01*
G03X2491486Y-1117600I0J-112014D01*
G03X2603500Y-1229614I112014J0D01*
G01X2745486Y-1371600D02*
G03X2857500Y-1483614I112014J0D01*
G03X2969514Y-1371600I0J112014D01*
G03X2857500Y-1259586I-112014J0D01*
G03X2745486Y-1371600I0J-112014D01*
G01X3619500Y-1483614D02*
G03X3731514Y-1371600I0J112014D01*
G03X3619500Y-1259586I-112014J0D01*
G03X3507486Y-1371600I0J-112014D01*
G03X3619500Y-1483614I112014J0D01*
G01X3619500Y-1229614D02*
G03X3731514Y-1117600I0J112014D01*
G03X3619500Y-1005586I-112014J0D01*
G03X3507486Y-1117600I0J-112014D01*
G03X3619500Y-1229614I112014J0D01*
G01X2745486Y-1117600D02*
G03X2857500Y-1229614I112014J0D01*
G03X2969514Y-1117600I0J112014D01*
G03X2857500Y-1005586I-112014J0D01*
G03X2745486Y-1117600I0J-112014D01*
G01X2999486Y-1371600D02*
G03X3111500Y-1483614I112014J0D01*
G03X3223514Y-1371600I0J112014D01*
G03X3111500Y-1259586I-112014J0D01*
G03X2999486Y-1371600I0J-112014D01*
G01X3365500Y-1483614D02*
G03X3477514Y-1371600I0J112014D01*
G03X3365500Y-1259586I-112014J0D01*
G03X3253486Y-1371600I0J-112014D01*
G03X3365500Y-1483614I112014J0D01*
G01X3253486Y-1117600D02*
G03X3365500Y-1229614I112014J0D01*
G03X3477514Y-1117600I0J112014D01*
G03X3365500Y-1005586I-112014J0D01*
G03X3253486Y-1117600I0J-112014D01*
G01X2999486Y-1117600D02*
G03X3111500Y-1229614I112014J0D01*
G03X3223514Y-1117600I0J112014D01*
G03X3111500Y-1005586I-112014J0D01*
G03X2999486Y-1117600I0J-112014D01*
G01X787408Y-4422412D02*
G03X853722Y-4356097I0J66314D01*
G03X787408Y-4289783I-66314J0D01*
G03X742197Y-4307583I0J-66314D01*
G01X591318D01*
G03X546108Y-4289783I-45210J-48514D01*
G03X479793Y-4356097I0J-66314D01*
G03X546108Y-4422412I66314J0D01*
G03X591318Y-4404611I0J66314D01*
G01X742197D01*
G03X787408Y-4422412I45210J48514D01*
G01X6019599Y-2140514D02*
G03X6115413Y-2044700I0J95814D01*
G03X6019599Y-1948886I-95814J0D01*
G03X5923785Y-2044700I0J-95814D01*
G03X6019599Y-2140514I95814J0D01*
G54D10*
G01X965200Y-4135298D02*
G01X965200Y-4236206D01*
G01X965200Y-4135298D02*
G01X1066108Y-4135298D01*
G01X965200Y-4135298D02*
G01X864292Y-4135298D01*
G01X965200Y-3935298D02*
G01X1066108Y-3935298D01*
G01X965200Y-3935298D02*
G01X864292Y-3935298D01*
G01X965200Y-3335299D02*
G01X1066108Y-3335299D01*
G01X965200Y-3335299D02*
G01X864292Y-3335299D01*
G54D11*
G01X1333500Y-1117600D02*
G01X1231392Y-1117600D01*
G01X1333500Y-1117600D02*
G01X1435608Y-1117600D01*
G01X1333500Y-1117600D02*
G01X1333500Y-1015492D01*
G01X1333500Y-1117600D02*
G01X1333500Y-1219708D01*
G01X2349500Y-1117600D02*
G01X2247392Y-1117600D01*
G01X2349500Y-1117600D02*
G01X2451608Y-1117600D01*
G01X2349500Y-1117600D02*
G01X2349500Y-1015492D01*
G01X2349500Y-1117600D02*
G01X2349500Y-1219708D01*
G01X3111500Y-1117600D02*
G01X3009392Y-1117600D01*
G01X3111500Y-1117600D02*
G01X3213608Y-1117600D01*
G01X3111500Y-1117600D02*
G01X3111500Y-1015492D01*
G01X3111500Y-1117600D02*
G01X3111500Y-1219708D01*
G01X1841500Y-1371600D02*
G01X1739392Y-1371600D01*
G01X1841500Y-1371600D02*
G01X1943608Y-1371600D01*
G01X1841500Y-1371600D02*
G01X1841500Y-1269492D01*
G01X1841500Y-1371600D02*
G01X1841500Y-1473708D01*
G54D10*
G01X965200Y-3135300D02*
G01X1066108Y-3135300D01*
G01X965200Y-3135300D02*
G01X864292Y-3135300D01*
G54D11*
G01X3873500Y-1371600D02*
G01X3771392Y-1371600D01*
G01X3873500Y-1371600D02*
G01X3975608Y-1371600D01*
G01X3873500Y-1371600D02*
G01X3873500Y-1269492D01*
G01X3873500Y-1371600D02*
G01X3873500Y-1473708D01*
G01X4381500Y-1117600D02*
G01X4279392Y-1117600D01*
G01X4381500Y-1117600D02*
G01X4483608Y-1117600D01*
G01X4381500Y-1117600D02*
G01X4381500Y-1015492D01*
G01X4381500Y-1117600D02*
G01X4381500Y-1219708D01*
G01X4889500Y-1117600D02*
G01X4787392Y-1117600D01*
G01X4889500Y-1117600D02*
G01X4991608Y-1117600D01*
G01X4889500Y-1117600D02*
G01X4889500Y-1015492D01*
G01X4889500Y-1117600D02*
G01X4889500Y-1219708D01*
G54D12*
G01X5579595Y-2044700D02*
G01X5675503Y-2044700D01*
G01X5579595Y-2044700D02*
G01X5483687Y-2044700D01*
G54D13*
G01X5579595Y-2044700D02*
G01X5579595Y-2175608D01*
G01X5579595Y-2044700D02*
G01X5579595Y-1913792D01*
G54D11*
G01X5651500Y-1371600D02*
G01X5549392Y-1371600D01*
G01X5651500Y-1371600D02*
G01X5753608Y-1371600D01*
G01X5651500Y-1371600D02*
G01X5651500Y-1269492D01*
G01X5651500Y-1371600D02*
G01X5651500Y-1473708D01*
G04 Copper End*

G04 Pad Start*
G54D14*
G01X350020Y-400022D03*
G01X350020Y-5300012D03*
G01X6150008Y-5300012D03*
G01X6150008Y-400022D03*
G54D15*
G01X965200Y-1935302D03*
G54D16*
G01X965200Y-2135302D03*
G01X965200Y-2335301D03*
G01X965200Y-2535301D03*
G01X965200Y-2735301D03*
G01X965200Y-2935300D03*
G01X965200Y-3135300D03*
G01X965200Y-3335299D03*
G01X965200Y-3535299D03*
G01X965200Y-3735299D03*
G01X965200Y-3935298D03*
G01X965200Y-4135298D03*
G54D18*
G01X4292600Y-2844800D03*
G01X4546600Y-2844800D03*
G54D19*
G01X4800600Y-2844800D03*
G54D18*
G01X850900Y-4572000D03*
G54D20*
G01X850900Y-4826000D03*
G54D21*
G01X5579595Y-2044700D03*
G54D22*
G01X5799610Y-1864700D03*
G01X5799610Y-2224700D03*
G54D23*
G01X825500Y-1371600D03*
G01X825500Y-1117600D03*
G01X1079500Y-1371600D03*
G01X1079500Y-1117600D03*
G01X1333500Y-1371600D03*
G01X1333500Y-1117600D03*
G01X1587500Y-1371600D03*
G01X1587500Y-1117600D03*
G01X1841500Y-1371600D03*
G01X1841500Y-1117600D03*
G01X2095500Y-1371600D03*
G01X2095500Y-1117600D03*
G01X2349500Y-1371600D03*
G01X2349500Y-1117600D03*
G01X2603500Y-1371600D03*
G01X2603500Y-1117600D03*
G01X2857500Y-1371600D03*
G01X2857500Y-1117600D03*
G01X3111500Y-1371600D03*
G01X3111500Y-1117600D03*
G01X3365500Y-1371600D03*
G01X3365500Y-1117600D03*
G01X3619500Y-1371600D03*
G01X3619500Y-1117600D03*
G01X3873500Y-1371600D03*
G01X3873500Y-1117600D03*
G01X4127500Y-1371600D03*
G01X4127500Y-1117600D03*
G01X4381500Y-1371600D03*
G01X4381500Y-1117600D03*
G01X4635500Y-1371600D03*
G01X4635500Y-1117600D03*
G01X4889500Y-1371600D03*
G01X4889500Y-1117600D03*
G01X5143500Y-1371600D03*
G01X5143500Y-1117600D03*
G01X5397500Y-1371600D03*
G01X5397500Y-1117600D03*
G01X5651500Y-1371600D03*
G01X5651500Y-1117600D03*
G54D18*
G01X840321Y-5193520D03*
G54D20*
G01X840321Y-5447520D03*
G04 Pad End*

G04 Via Start*
G54D24*
G01X546108Y-4356097D03*
G01X787408Y-4356097D03*
G01X3949700Y-5156200D03*
G01X3860808Y-1574797D03*
G01X3403600Y-2590800D03*
G01X2743200Y-5397500D03*
G01X3263900Y-5359400D03*
G01X2374908Y-1574797D03*
G01X3784608Y-2006597D03*
G01X4102108Y-2019297D03*
G01X3670308Y-1790697D03*
G01X3670308Y-1701797D03*
G01X4305300Y-1790700D03*
G01X4406908Y-1701797D03*
G01X2139145Y-1681223D03*
G01X2647145Y-4729223D03*
G01X88900Y-1219200D03*
G01X107145Y-1681223D03*
G01X107145Y-4221223D03*
G01X107145Y-4729223D03*
G01X635000Y-4826000D03*
G01X1123145Y-157223D03*
G01X1168400Y-685800D03*
G01X1123145Y-3205223D03*
G01X1123145Y-3713223D03*
G01X1123145Y-4221223D03*
G01X1631145Y-157223D03*
G01X1631145Y-665223D03*
G01X1631145Y-1681223D03*
G01X1631145Y-2189223D03*
G01X1631145Y-3713223D03*
G01X1981200Y-3911600D03*
G01X2139145Y-157223D03*
G01X2139145Y-665223D03*
G01X2139145Y-2189223D03*
G01X2139145Y-2697223D03*
G01X2139145Y-3713223D03*
G01X1943100Y-4216400D03*
G01X2133600Y-5194300D03*
G01X2647145Y-157223D03*
G01X2647145Y-665223D03*
G01X2647145Y-1681223D03*
G01X2647145Y-2189223D03*
G01X2527308Y-2819397D03*
G01X2647145Y-3205223D03*
G01X2647145Y-4221223D03*
G01X3155145Y-157223D03*
G01X3155145Y-665223D03*
G01X3155145Y-1681223D03*
G01X2984508Y-2489197D03*
G01X3155145Y-3205223D03*
G01X3155145Y-3713223D03*
G01X3663145Y-157223D03*
G01X3663145Y-665223D03*
G01X3479800Y-2159000D03*
G01X3663145Y-5237223D03*
G01X4171145Y-157223D03*
G01X4171145Y-665223D03*
G01X4171145Y-3205223D03*
G01X4171145Y-3713223D03*
G01X4171145Y-4221223D03*
G01X4171145Y-4729223D03*
G01X4679145Y-157223D03*
G01X4679145Y-665223D03*
G01X4679145Y-2189223D03*
G01X4679145Y-2697223D03*
G01X4679145Y-3205223D03*
G01X5187145Y-157223D03*
G01X5187145Y-665223D03*
G01X5187145Y-1681223D03*
G01X5187145Y-2189223D03*
G01X5187145Y-2697223D03*
G01X5187145Y-3205223D03*
G01X5187145Y-3713223D03*
G01X5187145Y-4221223D03*
G01X5187145Y-4729223D03*
G01X5187145Y-5237223D03*
G01X5695145Y-157223D03*
G01X5695145Y-665223D03*
G01X5695145Y-1681223D03*
G01X5695145Y-2697223D03*
G01X5695145Y-3205223D03*
G01X5695145Y-3713223D03*
G01X5695145Y-4221223D03*
G01X5695145Y-4729223D03*
G01X5695145Y-5237223D03*
G01X6203145Y-1173223D03*
G01X6203145Y-1681223D03*
G01X6203145Y-2189223D03*
G01X6203145Y-2697223D03*
G01X6203145Y-3205223D03*
G01X6203145Y-3713223D03*
G01X6203145Y-4221223D03*
G01X6203145Y-4729223D03*
G54D25*
G01X3111500Y-2730500D03*
G01X3365508Y-1968497D03*
G54D24*
G01X1549400Y-3352800D03*
G01X3340100Y-3136900D03*
G01X3848100Y-2895600D03*
G01X4064000Y-2870200D03*
G01X1435100Y-4648200D03*
G01X1244600Y-4838700D03*
G01X1244600Y-5016500D03*
G01X1244600Y-5194300D03*
G01X1244600Y-5397500D03*
G01X1244600Y-5575300D03*
G01X2133600Y-5397500D03*
G01X1320800Y-4368800D03*
G01X2209800Y-4127500D03*
G01X2133600Y-5562600D03*
G01X1663700Y-4432300D03*
G01X3733800Y-2590800D03*
G01X4284140Y-2232604D03*
G01X3771900Y-2324100D03*
G01X1244600Y-4648200D03*
G01X1727200Y-4660900D03*
G01X2095500Y-4457700D03*
G01X2273243Y-4457700D03*
G01X2273243Y-4659656D03*
G01X2260600Y-4838700D03*
G01X2260600Y-5003800D03*
G01X2136891Y-5016500D03*
G01X1790700Y-4914900D03*
G01X1701800Y-5511800D03*
G01X1600200Y-5511800D03*
G01X1917700Y-5537200D03*
G01X1816100Y-5372100D03*
G04 Via End*

G04 Track Start*
G54D26*
G01X3733795Y-2590803D02*
G01X3403603Y-2590803D01*
G01X546108Y-4356097D02*
G01X787410Y-4356097D01*
G01X3860808Y-1574797D02*
G01X2374905Y-1574797D01*
G01X3784608Y-2006597D02*
G01X3797308Y-2019297D01*
G01X4102105D01*
G01X3670308Y-1701797D02*
G01X4406905Y-1701797D01*
G01X4305297Y-1790700D02*
G01X3670310Y-1790700D01*
G54D27*
G01X2743200Y-5397500D02*
G01X3225800Y-5397500D01*
G01X3263900Y-5359400D01*
G04 Track End*

M02*
