G04 Layer: DrillDrawingLayer*
G04 EasyEDA Pro v2.1.49.573a4102.674264, 2024-02-19 19:22:48*
G04 Gerber Generator version 0.3*
G04 Scale: 100 percent, Rotated: No, Reflected: No*
G04 Dimensions in millimeters*
G04 Leading zeros omitted, absolute positions, 3 integers and 5 decimals*
%FSLAX35Y35*%
%MOMM*%
%ADD10C,0.254*%
G75*


G04 Image Start*
G36*
G01X3091586Y-2710536D02*
G01X3091586Y-2714193D01*
G01X3095193D01*
G01X3127807D01*
G01Y-2746807D01*
G01X3095193D01*
G01Y-2714193D01*
G01X3091586D01*
G01Y-2750414D01*
G01X3131464D01*
G01Y-2710536D01*
G37*
G36*
G01X3345586Y-1948536D02*
G01X3345586Y-1952193D01*
G01X3349193D01*
G01X3381807D01*
G01Y-1984807D01*
G01X3349193D01*
G01Y-1952193D01*
G01X3345586D01*
G01Y-1988414D01*
G01X3385464D01*
G01Y-1948536D01*
G37*
G36*
G01X4292600Y-2824886D02*
G01X4290568Y-2824988D01*
G01X4288587Y-2825242D01*
G01X4286656Y-2825750D01*
G01X4284828Y-2826410D01*
G01X4283100Y-2827274D01*
G01X4281475Y-2828290D01*
G01X4279900Y-2829408D01*
G01X4278478Y-2830678D01*
G01X4277208Y-2832100D01*
G01X4276090Y-2833675D01*
G01X4275074Y-2835300D01*
G01X4274210Y-2837028D01*
G01X4273550Y-2838856D01*
G01X4273042Y-2840787D01*
G01X4272788Y-2842768D01*
G01X4272686Y-2844800D01*
G01X4275988D01*
G01X4276090Y-2843124D01*
G01X4276344Y-2841447D01*
G01X4276750Y-2839872D01*
G01X4277309Y-2838348D01*
G01X4277970Y-2836875D01*
G01X4278833Y-2835504D01*
G01X4279798Y-2834234D01*
G01X4280865Y-2833065D01*
G01X4282034Y-2831998D01*
G01X4283304Y-2831033D01*
G01X4284675Y-2830170D01*
G01X4286148Y-2829509D01*
G01X4287672Y-2828950D01*
G01X4289247Y-2828544D01*
G01X4290924Y-2828290D01*
G01X4292600Y-2828188D01*
G01X4294276Y-2828290D01*
G01X4295953Y-2828544D01*
G01X4297528Y-2828950D01*
G01X4299052Y-2829509D01*
G01X4300525Y-2830170D01*
G01X4301896Y-2831033D01*
G01X4303166Y-2831998D01*
G01X4304335Y-2833065D01*
G01X4305402Y-2834234D01*
G01X4306367Y-2835504D01*
G01X4307230Y-2836875D01*
G01X4307891Y-2838348D01*
G01X4308450Y-2839872D01*
G01X4308856Y-2841447D01*
G01X4309110Y-2843124D01*
G01X4309212Y-2844800D01*
G01X4309110Y-2846476D01*
G01X4308856Y-2848153D01*
G01X4308450Y-2849728D01*
G01X4307891Y-2851252D01*
G01X4307230Y-2852725D01*
G01X4306367Y-2854096D01*
G01X4305402Y-2855366D01*
G01X4304335Y-2856535D01*
G01X4303166Y-2857602D01*
G01X4301896Y-2858567D01*
G01X4300525Y-2859430D01*
G01X4299052Y-2860091D01*
G01X4297528Y-2860650D01*
G01X4295953Y-2861056D01*
G01X4294276Y-2861310D01*
G01X4292600Y-2861412D01*
G01X4290924Y-2861310D01*
G01X4289247Y-2861056D01*
G01X4287672Y-2860650D01*
G01X4286148Y-2860091D01*
G01X4284675Y-2859430D01*
G01X4283304Y-2858567D01*
G01X4282034Y-2857602D01*
G01X4280865Y-2856535D01*
G01X4279798Y-2855366D01*
G01X4278833Y-2854096D01*
G01X4277970Y-2852725D01*
G01X4277309Y-2851252D01*
G01X4276750Y-2849728D01*
G01X4276344Y-2848153D01*
G01X4276090Y-2846476D01*
G01X4275988Y-2844800D01*
G01X4272686D01*
G01X4272788Y-2846832D01*
G01X4273042Y-2848813D01*
G01X4273550Y-2850744D01*
G01X4274210Y-2852572D01*
G01X4275074Y-2854300D01*
G01X4276090Y-2855925D01*
G01X4277208Y-2857500D01*
G01X4278478Y-2858922D01*
G01X4279900Y-2860192D01*
G01X4281475Y-2861310D01*
G01X4283100Y-2862326D01*
G01X4284828Y-2863190D01*
G01X4286656Y-2863850D01*
G01X4288587Y-2864358D01*
G01X4290568Y-2864612D01*
G01X4292600Y-2864764D01*
G01X4294632Y-2864612D01*
G01X4296613Y-2864358D01*
G01X4298544Y-2863850D01*
G01X4300372Y-2863190D01*
G01X4302100Y-2862326D01*
G01X4303725Y-2861310D01*
G01X4305300Y-2860192D01*
G01X4306722Y-2858922D01*
G01X4307992Y-2857500D01*
G01X4309110Y-2855925D01*
G01X4310126Y-2854300D01*
G01X4310990Y-2852572D01*
G01X4311650Y-2850744D01*
G01X4312158Y-2848813D01*
G01X4312412Y-2846832D01*
G01X4312564Y-2844800D01*
G01X4312412Y-2842768D01*
G01X4312158Y-2840787D01*
G01X4311650Y-2838856D01*
G01X4310990Y-2837028D01*
G01X4310126Y-2835300D01*
G01X4309110Y-2833675D01*
G01X4307992Y-2832100D01*
G01X4306722Y-2830678D01*
G01X4305300Y-2829408D01*
G01X4303725Y-2828290D01*
G01X4302100Y-2827274D01*
G01X4300372Y-2826410D01*
G01X4298544Y-2825750D01*
G01X4296613Y-2825242D01*
G01X4294632Y-2824988D01*
G37*
G36*
G01X4546600Y-2824836D02*
G01X4544568Y-2824988D01*
G01X4542587Y-2825242D01*
G01X4540656Y-2825750D01*
G01X4538828Y-2826410D01*
G01X4537100Y-2827274D01*
G01X4535475Y-2828290D01*
G01X4533900Y-2829408D01*
G01X4532478Y-2830678D01*
G01X4531208Y-2832100D01*
G01X4530090Y-2833675D01*
G01X4529074Y-2835300D01*
G01X4528210Y-2837028D01*
G01X4527550Y-2838856D01*
G01X4527042Y-2840787D01*
G01X4526788Y-2842768D01*
G01X4526686Y-2844800D01*
G01X4529988D01*
G01X4530090Y-2843124D01*
G01X4530344Y-2841447D01*
G01X4530750Y-2839872D01*
G01X4531309Y-2838348D01*
G01X4531970Y-2836875D01*
G01X4532833Y-2835504D01*
G01X4533798Y-2834234D01*
G01X4534865Y-2833065D01*
G01X4536034Y-2831998D01*
G01X4537304Y-2831033D01*
G01X4538675Y-2830170D01*
G01X4540148Y-2829509D01*
G01X4541672Y-2828950D01*
G01X4543247Y-2828544D01*
G01X4544924Y-2828290D01*
G01X4546600Y-2828188D01*
G01X4548276Y-2828290D01*
G01X4549953Y-2828544D01*
G01X4551528Y-2828950D01*
G01X4553052Y-2829509D01*
G01X4554525Y-2830170D01*
G01X4555896Y-2831033D01*
G01X4557166Y-2831998D01*
G01X4558335Y-2833065D01*
G01X4559402Y-2834234D01*
G01X4560367Y-2835504D01*
G01X4561230Y-2836875D01*
G01X4561891Y-2838348D01*
G01X4562450Y-2839872D01*
G01X4562856Y-2841447D01*
G01X4563110Y-2843124D01*
G01X4563212Y-2844800D01*
G01X4563110Y-2846476D01*
G01X4562856Y-2848153D01*
G01X4562450Y-2849728D01*
G01X4561891Y-2851252D01*
G01X4561230Y-2852725D01*
G01X4560367Y-2854096D01*
G01X4559402Y-2855366D01*
G01X4558335Y-2856535D01*
G01X4557166Y-2857602D01*
G01X4555896Y-2858567D01*
G01X4554525Y-2859430D01*
G01X4553052Y-2860091D01*
G01X4551528Y-2860650D01*
G01X4549953Y-2861056D01*
G01X4548276Y-2861310D01*
G01X4546600Y-2861412D01*
G01X4544924Y-2861310D01*
G01X4543247Y-2861056D01*
G01X4541672Y-2860650D01*
G01X4540148Y-2860091D01*
G01X4538675Y-2859430D01*
G01X4537304Y-2858567D01*
G01X4536034Y-2857602D01*
G01X4534865Y-2856535D01*
G01X4533798Y-2855366D01*
G01X4532833Y-2854096D01*
G01X4531970Y-2852725D01*
G01X4531309Y-2851252D01*
G01X4530750Y-2849728D01*
G01X4530344Y-2848153D01*
G01X4530090Y-2846476D01*
G01X4529988Y-2844800D01*
G01X4526686D01*
G01X4526788Y-2846832D01*
G01X4527042Y-2848813D01*
G01X4527550Y-2850744D01*
G01X4528210Y-2852572D01*
G01X4529074Y-2854300D01*
G01X4530090Y-2855925D01*
G01X4531208Y-2857500D01*
G01X4532478Y-2858922D01*
G01X4533900Y-2860192D01*
G01X4535475Y-2861310D01*
G01X4537100Y-2862326D01*
G01X4538828Y-2863190D01*
G01X4540656Y-2863850D01*
G01X4542587Y-2864358D01*
G01X4544568Y-2864612D01*
G01X4546600Y-2864714D01*
G01X4548632Y-2864612D01*
G01X4550613Y-2864358D01*
G01X4552544Y-2863850D01*
G01X4554372Y-2863190D01*
G01X4556100Y-2862326D01*
G01X4557725Y-2861310D01*
G01X4559300Y-2860192D01*
G01X4560722Y-2858922D01*
G01X4561992Y-2857500D01*
G01X4563110Y-2855925D01*
G01X4564126Y-2854300D01*
G01X4564990Y-2852572D01*
G01X4565650Y-2850744D01*
G01X4566158Y-2848813D01*
G01X4566412Y-2846832D01*
G01X4566564Y-2844800D01*
G01X4566412Y-2842768D01*
G01X4566158Y-2840787D01*
G01X4565650Y-2838856D01*
G01X4564990Y-2837028D01*
G01X4564126Y-2835300D01*
G01X4563110Y-2833675D01*
G01X4561992Y-2832100D01*
G01X4560722Y-2830678D01*
G01X4559300Y-2829408D01*
G01X4557725Y-2828290D01*
G01X4556100Y-2827274D01*
G01X4554372Y-2826410D01*
G01X4552544Y-2825750D01*
G01X4550613Y-2825242D01*
G01X4548632Y-2824988D01*
G37*
G36*
G01X4800600Y-2824836D02*
G01X4798568Y-2824988D01*
G01X4796587Y-2825242D01*
G01X4794656Y-2825750D01*
G01X4792828Y-2826410D01*
G01X4791100Y-2827274D01*
G01X4789475Y-2828290D01*
G01X4787900Y-2829408D01*
G01X4786478Y-2830678D01*
G01X4785208Y-2832100D01*
G01X4784090Y-2833675D01*
G01X4783074Y-2835300D01*
G01X4782210Y-2837028D01*
G01X4781550Y-2838856D01*
G01X4781042Y-2840787D01*
G01X4780788Y-2842768D01*
G01X4780686Y-2844800D01*
G01X4783988D01*
G01X4784090Y-2843124D01*
G01X4784344Y-2841447D01*
G01X4784750Y-2839872D01*
G01X4785309Y-2838348D01*
G01X4785970Y-2836875D01*
G01X4786833Y-2835504D01*
G01X4787798Y-2834234D01*
G01X4788865Y-2833065D01*
G01X4790034Y-2831998D01*
G01X4791304Y-2831033D01*
G01X4792675Y-2830170D01*
G01X4794148Y-2829509D01*
G01X4795672Y-2828950D01*
G01X4797247Y-2828544D01*
G01X4798924Y-2828290D01*
G01X4800600Y-2828188D01*
G01X4802276Y-2828290D01*
G01X4803953Y-2828544D01*
G01X4805528Y-2828950D01*
G01X4807052Y-2829509D01*
G01X4808525Y-2830170D01*
G01X4809896Y-2831033D01*
G01X4811166Y-2831998D01*
G01X4812335Y-2833065D01*
G01X4813402Y-2834234D01*
G01X4814367Y-2835504D01*
G01X4815230Y-2836875D01*
G01X4815891Y-2838348D01*
G01X4816450Y-2839872D01*
G01X4816856Y-2841447D01*
G01X4817110Y-2843124D01*
G01X4817212Y-2844800D01*
G01X4817110Y-2846476D01*
G01X4816856Y-2848153D01*
G01X4816450Y-2849728D01*
G01X4815891Y-2851252D01*
G01X4815230Y-2852725D01*
G01X4814367Y-2854096D01*
G01X4813402Y-2855366D01*
G01X4812335Y-2856535D01*
G01X4811166Y-2857602D01*
G01X4809896Y-2858567D01*
G01X4808525Y-2859430D01*
G01X4807052Y-2860091D01*
G01X4805528Y-2860650D01*
G01X4803953Y-2861056D01*
G01X4802276Y-2861310D01*
G01X4800600Y-2861412D01*
G01X4798924Y-2861310D01*
G01X4797247Y-2861056D01*
G01X4795672Y-2860650D01*
G01X4794148Y-2860091D01*
G01X4792675Y-2859430D01*
G01X4791304Y-2858567D01*
G01X4790034Y-2857602D01*
G01X4788865Y-2856535D01*
G01X4787798Y-2855366D01*
G01X4786833Y-2854096D01*
G01X4785970Y-2852725D01*
G01X4785309Y-2851252D01*
G01X4784750Y-2849728D01*
G01X4784344Y-2848153D01*
G01X4784090Y-2846476D01*
G01X4783988Y-2844800D01*
G01X4780686D01*
G01X4780788Y-2846832D01*
G01X4781042Y-2848813D01*
G01X4781550Y-2850744D01*
G01X4782210Y-2852572D01*
G01X4783074Y-2854300D01*
G01X4784090Y-2855925D01*
G01X4785208Y-2857500D01*
G01X4786478Y-2858922D01*
G01X4787900Y-2860192D01*
G01X4789475Y-2861310D01*
G01X4791100Y-2862326D01*
G01X4792828Y-2863190D01*
G01X4794656Y-2863850D01*
G01X4796587Y-2864358D01*
G01X4798568Y-2864612D01*
G01X4800600Y-2864714D01*
G01X4802632Y-2864612D01*
G01X4804613Y-2864358D01*
G01X4806544Y-2863850D01*
G01X4808372Y-2863190D01*
G01X4810100Y-2862326D01*
G01X4811725Y-2861310D01*
G01X4813300Y-2860192D01*
G01X4814722Y-2858922D01*
G01X4815992Y-2857500D01*
G01X4817110Y-2855925D01*
G01X4818126Y-2854300D01*
G01X4818990Y-2852572D01*
G01X4819650Y-2850744D01*
G01X4820158Y-2848813D01*
G01X4820412Y-2846832D01*
G01X4820564Y-2844800D01*
G01X4820412Y-2842768D01*
G01X4820158Y-2840787D01*
G01X4819650Y-2838856D01*
G01X4818990Y-2837028D01*
G01X4818126Y-2835300D01*
G01X4817110Y-2833675D01*
G01X4815992Y-2832100D01*
G01X4814722Y-2830678D01*
G01X4813300Y-2829408D01*
G01X4811725Y-2828290D01*
G01X4810100Y-2827274D01*
G01X4808372Y-2826410D01*
G01X4806544Y-2825750D01*
G01X4804613Y-2825242D01*
G01X4802632Y-2824988D01*
G37*
G36*
G01X5559654Y-2027428D02*
G01X5561584Y-2030781D01*
G01X5565394D01*
G01X5593791D01*
G01X5586679Y-2043024D01*
G01X5579618Y-2055317D01*
G01X5572506Y-2043024D01*
G01X5565394Y-2030781D01*
G01X5561584D01*
G01X5569610Y-2044700D01*
G01X5579618Y-2061972D01*
G01X5599532Y-2027428D01*
G37*
G36*
G01X5779668Y-1847444D02*
G01X5781548Y-1850746D01*
G01X5785409D01*
G01X5813806D01*
G01X5806694Y-1863039D01*
G01X5799633Y-1875333D01*
G01X5785409Y-1850746D01*
G01X5781548D01*
G01X5789625Y-1864716D01*
G01X5799633Y-1881988D01*
G01X5819546Y-1847444D01*
G37*
G36*
G01X5779668Y-2207463D02*
G01X5781548Y-2210765D01*
G01X5785409D01*
G01X5813806D01*
G01X5806694Y-2223059D01*
G01X5799633Y-2235352D01*
G01X5785409Y-2210765D01*
G01X5781548D01*
G01X5789625Y-2224735D01*
G01X5799633Y-2241956D01*
G01X5809590Y-2224735D01*
G01X5819546Y-2207463D01*
G37*
G36*
G01X349961Y-376987D02*
G01X344221Y-390042D01*
G01X330048Y-388518D01*
G01X338480Y-399999D01*
G01X333146Y-407314D01*
G01X337363D01*
G01X341224Y-402031D01*
G01X342697Y-399999D01*
G01X341224Y-398018D01*
G01X337363Y-392735D01*
G01X343865Y-393446D01*
G01X346354Y-393700D01*
G01X347320Y-391414D01*
G01X349961Y-385420D01*
G01X352603Y-391414D01*
G01X353619Y-393700D01*
G01X356108Y-393446D01*
G01X362610Y-392735D01*
G01X358750Y-398018D01*
G01X357276Y-399999D01*
G01X358750Y-402031D01*
G01X362610Y-407314D01*
G01X356108Y-406603D01*
G01X353619Y-406298D01*
G01X352603Y-408584D01*
G01X349961Y-414579D01*
G01X347320Y-408584D01*
G01X346354Y-406298D01*
G01X343865Y-406603D01*
G01X337363Y-407314D01*
G01X333146D01*
G01X330048Y-411531D01*
G01X344221Y-409956D01*
G01X349961Y-423012D01*
G01X355752Y-409956D01*
G01X369926Y-411531D01*
G01X361493Y-399999D01*
G01X369926Y-388518D01*
G01X355752Y-390042D01*
G37*
G36*
G01X349961Y-5276952D02*
G01X344221Y-5290007D01*
G01X330048Y-5288483D01*
G01X338480Y-5300015D01*
G01X333146Y-5307279D01*
G01X337363D01*
G01X341224Y-5301996D01*
G01X342697Y-5300015D01*
G01X341224Y-5297983D01*
G01X337363Y-5292700D01*
G01X343865Y-5293411D01*
G01X346354Y-5293665D01*
G01X347320Y-5291379D01*
G01X349961Y-5285435D01*
G01X352603Y-5291430D01*
G01X353619Y-5293716D01*
G01X356108Y-5293411D01*
G01X362610Y-5292700D01*
G01X358750Y-5297983D01*
G01X357276Y-5300015D01*
G01X358750Y-5301996D01*
G01X362610Y-5307279D01*
G01X356108Y-5306568D01*
G01X353619Y-5306314D01*
G01X349961Y-5314544D01*
G01X347320Y-5308600D01*
G01X346354Y-5306314D01*
G01X343865Y-5306568D01*
G01X337363Y-5307279D01*
G01X333146D01*
G01X330048Y-5311496D01*
G01X344221Y-5309972D01*
G01X349961Y-5323027D01*
G01X355752Y-5309972D01*
G01X369926Y-5311496D01*
G01X361493Y-5300015D01*
G01X369926Y-5288483D01*
G01X355752Y-5290007D01*
G37*
G36*
G01X6150000Y-5277002D02*
G01X6144209Y-5290058D01*
G01X6130036Y-5288483D01*
G01X6138469Y-5300015D01*
G01X6133135Y-5307279D01*
G01X6137351D01*
G01X6141212Y-5302047D01*
G01X6142685Y-5300015D01*
G01X6141212Y-5297983D01*
G01X6137351Y-5292700D01*
G01X6143854Y-5293411D01*
G01X6146343Y-5293716D01*
G01X6147359Y-5291430D01*
G01X6150000Y-5285435D01*
G01X6152591Y-5291430D01*
G01X6153607Y-5293716D01*
G01X6156096Y-5293411D01*
G01X6162599Y-5292750D01*
G01X6158738Y-5297983D01*
G01X6157265Y-5300015D01*
G01X6158738Y-5302047D01*
G01X6162599Y-5307279D01*
G01X6156096Y-5306568D01*
G01X6153607Y-5306314D01*
G01X6152591Y-5308600D01*
G01X6150000Y-5314594D01*
G01X6147359Y-5308600D01*
G01X6146343Y-5306314D01*
G01X6143854Y-5306568D01*
G01X6137351Y-5307279D01*
G01X6133135D01*
G01X6130036Y-5311496D01*
G01X6144209Y-5309972D01*
G01X6150000Y-5323027D01*
G01X6155741Y-5309972D01*
G01X6169914Y-5311496D01*
G01X6161481Y-5300015D01*
G01X6169914Y-5288483D01*
G01X6155741Y-5290058D01*
G37*
G36*
G01X6150000Y-376987D02*
G01X6144209Y-390042D01*
G01X6130036Y-388518D01*
G01X6138469Y-399999D01*
G01X6133135Y-407314D01*
G01X6137351D01*
G01X6141212Y-402031D01*
G01X6142685Y-399999D01*
G01X6141212Y-398018D01*
G01X6137351Y-392735D01*
G01X6143854Y-393446D01*
G01X6146343Y-393700D01*
G01X6147359Y-391414D01*
G01X6150000Y-385420D01*
G01X6152591Y-391414D01*
G01X6153607Y-393700D01*
G01X6156096Y-393446D01*
G01X6162599Y-392735D01*
G01X6158738Y-398018D01*
G01X6157265Y-399999D01*
G01X6158738Y-402031D01*
G01X6162599Y-407314D01*
G01X6156096Y-406603D01*
G01X6153607Y-406298D01*
G01X6152591Y-408584D01*
G01X6150000Y-414579D01*
G01X6147359Y-408584D01*
G01X6146343Y-406298D01*
G01X6143854Y-406603D01*
G01X6137351Y-407314D01*
G01X6133135D01*
G01X6130036Y-411531D01*
G01X6144209Y-409956D01*
G01X6150000Y-423012D01*
G01X6155741Y-409956D01*
G01X6169914Y-411531D01*
G01X6161481Y-399999D01*
G01X6169914Y-388518D01*
G01X6155741Y-390042D01*
G37*
G36*
G01X830936Y-4552036D02*
G01X834085Y-4558843D01*
G01X837743D01*
G01X849528Y-4564228D01*
G01X850900Y-4564888D01*
G01X852272Y-4564228D01*
G01X864057Y-4558843D01*
G01X858672Y-4570628D01*
G01X858012Y-4572000D01*
G01X858672Y-4573372D01*
G01X864057Y-4585157D01*
G01X852272Y-4579772D01*
G01X850900Y-4579112D01*
G01X849528Y-4579772D01*
G01X837743Y-4585157D01*
G01X843128Y-4573372D01*
G01X843788Y-4572000D01*
G01X843128Y-4570628D01*
G01X837743Y-4558843D01*
G01X834085D01*
G01X840130Y-4572000D01*
G01X830936Y-4591964D01*
G01X850900Y-4582770D01*
G01X870864Y-4591964D01*
G01X861670Y-4572000D01*
G01X870864Y-4552036D01*
G01X850900Y-4561230D01*
G37*
G36*
G01X830936Y-4806036D02*
G01X834085Y-4812843D01*
G01X837743D01*
G01X849528Y-4818228D01*
G01X850900Y-4818888D01*
G01X852272Y-4818228D01*
G01X864057Y-4812843D01*
G01X858672Y-4824628D01*
G01X858012Y-4826000D01*
G01X858672Y-4827372D01*
G01X864057Y-4839157D01*
G01X852272Y-4833772D01*
G01X850900Y-4833112D01*
G01X849528Y-4833772D01*
G01X837743Y-4839157D01*
G01X843128Y-4827372D01*
G01X843788Y-4826000D01*
G01X843128Y-4824628D01*
G01X837743Y-4812843D01*
G01X834085D01*
G01X840130Y-4826000D01*
G01X830936Y-4845964D01*
G01X850900Y-4836770D01*
G01X870864Y-4845964D01*
G01X861670Y-4826000D01*
G01X870864Y-4806036D01*
G01X850900Y-4815230D01*
G37*
G36*
G01X820369Y-5173574D02*
G01X823468Y-5180330D01*
G01X827126D01*
G01X838911Y-5185766D01*
G01X840334Y-5186426D01*
G01X841705Y-5185766D01*
G01X853491Y-5180330D01*
G01X848055Y-5192116D01*
G01X847446Y-5193538D01*
G01X848055Y-5194910D01*
G01X853491Y-5206695D01*
G01X841705Y-5201260D01*
G01X840334Y-5200650D01*
G01X838911Y-5201260D01*
G01X827126Y-5206695D01*
G01X832561Y-5194910D01*
G01X833222Y-5193538D01*
G01X832561Y-5192116D01*
G01X827126Y-5180330D01*
G01X823468D01*
G01X829564Y-5193538D01*
G01X820369Y-5213452D01*
G01X840334Y-5204308D01*
G01X860247Y-5213452D01*
G01X851103Y-5193538D01*
G01X860247Y-5173574D01*
G01X840334Y-5182768D01*
G37*
G36*
G01X820369Y-5427574D02*
G01X823468Y-5434330D01*
G01X827126D01*
G01X838911Y-5439766D01*
G01X840334Y-5440426D01*
G01X841705Y-5439766D01*
G01X853491Y-5434330D01*
G01X848055Y-5446116D01*
G01X847446Y-5447538D01*
G01X848055Y-5448910D01*
G01X853491Y-5460695D01*
G01X841705Y-5455260D01*
G01X840334Y-5454650D01*
G01X838911Y-5455260D01*
G01X827126Y-5460695D01*
G01X832561Y-5448910D01*
G01X833222Y-5447538D01*
G01X832561Y-5446116D01*
G01X827126Y-5434330D01*
G01X823468D01*
G01X829564Y-5447538D01*
G01X820369Y-5467452D01*
G01X840334Y-5458308D01*
G01X860247Y-5467452D01*
G01X851103Y-5447538D01*
G01X860247Y-5427574D01*
G01X840334Y-5436768D01*
G37*
G36*
G01X956158Y-1915363D02*
G01X956158Y-1926234D01*
G01X945236D01*
G01Y-1941017D01*
G01X948588D01*
G01Y-1929587D01*
G01X959460D01*
G01Y-1918665D01*
G01X970940D01*
G01Y-1929587D01*
G01X981812D01*
G01Y-1941068D01*
G01X970940D01*
G01Y-1951939D01*
G01X959460D01*
G01Y-1941017D01*
G01X948588D01*
G01X945236D01*
G01Y-1944370D01*
G01X956158D01*
G01Y-1955241D01*
G01X974242D01*
G01Y-1944370D01*
G01X985164D01*
G01Y-1926234D01*
G01X974242D01*
G01Y-1915363D01*
G37*
G36*
G01X956158Y-2115363D02*
G01X956158Y-2126234D01*
G01X945236D01*
G01Y-2141017D01*
G01X948588D01*
G01Y-2129587D01*
G01X959460D01*
G01Y-2118665D01*
G01X970940D01*
G01Y-2129587D01*
G01X981812D01*
G01Y-2141068D01*
G01X970940D01*
G01Y-2151939D01*
G01X959460D01*
G01Y-2141017D01*
G01X948588D01*
G01X945236D01*
G01Y-2144370D01*
G01X956158D01*
G01Y-2155241D01*
G01X974242D01*
G01Y-2144370D01*
G01X985164D01*
G01Y-2126234D01*
G01X974242D01*
G01Y-2115363D01*
G37*
G36*
G01X956158Y-2315362D02*
G01X956158Y-2326234D01*
G01X945236D01*
G01Y-2341016D01*
G01X948588D01*
G01Y-2329586D01*
G01X959460D01*
G01Y-2318664D01*
G01X970940D01*
G01Y-2329586D01*
G01X981812D01*
G01Y-2341067D01*
G01X970940D01*
G01Y-2351938D01*
G01X959460D01*
G01Y-2341016D01*
G01X948588D01*
G01X945236D01*
G01Y-2344369D01*
G01X956158D01*
G01Y-2355240D01*
G01X974242D01*
G01Y-2344369D01*
G01X985164D01*
G01Y-2326234D01*
G01X974242D01*
G01Y-2315362D01*
G37*
G36*
G01X956158Y-2515362D02*
G01X956158Y-2526233D01*
G01X945236D01*
G01Y-2541016D01*
G01X948588D01*
G01Y-2529586D01*
G01X959460D01*
G01Y-2518664D01*
G01X970940D01*
G01Y-2529586D01*
G01X981812D01*
G01Y-2541067D01*
G01X970940D01*
G01Y-2551938D01*
G01X959460D01*
G01Y-2541016D01*
G01X948588D01*
G01X945236D01*
G01Y-2544369D01*
G01X956158D01*
G01Y-2555240D01*
G01X974242D01*
G01Y-2544369D01*
G01X985164D01*
G01Y-2526233D01*
G01X974242D01*
G01Y-2515362D01*
G37*
G36*
G01X956158Y-2715362D02*
G01X956158Y-2726233D01*
G01X945236D01*
G01Y-2741066D01*
G01X948588D01*
G01Y-2729586D01*
G01X959460D01*
G01Y-2718664D01*
G01X970940D01*
G01Y-2729586D01*
G01X981812D01*
G01Y-2741066D01*
G01X970940D01*
G01Y-2751938D01*
G01X959460D01*
G01Y-2741066D01*
G01X948588D01*
G01X945236D01*
G01Y-2744368D01*
G01X956158D01*
G01Y-2755240D01*
G01X974242D01*
G01Y-2744368D01*
G01X985164D01*
G01Y-2726233D01*
G01X974242D01*
G01Y-2715362D01*
G37*
G36*
G01X956158Y-2915361D02*
G01X956158Y-2926232D01*
G01X945236D01*
G01Y-2941066D01*
G01X948588D01*
G01Y-2929585D01*
G01X959460D01*
G01Y-2918663D01*
G01X970940D01*
G01Y-2929585D01*
G01X981812D01*
G01Y-2941066D01*
G01X970940D01*
G01Y-2951937D01*
G01X959460D01*
G01Y-2941066D01*
G01X948588D01*
G01X945236D01*
G01Y-2944368D01*
G01X956158D01*
G01Y-2955239D01*
G01X974242D01*
G01Y-2944368D01*
G01X985164D01*
G01Y-2926232D01*
G01X974242D01*
G01Y-2915361D01*
G37*
G36*
G01X956158Y-3115361D02*
G01X956158Y-3126232D01*
G01X945236D01*
G01Y-3141066D01*
G01X948588D01*
G01Y-3129585D01*
G01X959460D01*
G01Y-3118663D01*
G01X970940D01*
G01Y-3129585D01*
G01X981812D01*
G01Y-3141066D01*
G01X970940D01*
G01Y-3151937D01*
G01X959460D01*
G01Y-3141066D01*
G01X948588D01*
G01X945236D01*
G01Y-3144368D01*
G01X956158D01*
G01Y-3155239D01*
G01X974242D01*
G01Y-3144368D01*
G01X985164D01*
G01Y-3126232D01*
G01X974242D01*
G01Y-3115361D01*
G37*
G36*
G01X956158Y-3315360D02*
G01X956158Y-3326232D01*
G01X945236D01*
G01Y-3341065D01*
G01X948588D01*
G01Y-3329584D01*
G01X959460D01*
G01Y-3318662D01*
G01X970940D01*
G01Y-3329584D01*
G01X981812D01*
G01Y-3341065D01*
G01X970940D01*
G01Y-3351936D01*
G01X959460D01*
G01Y-3341065D01*
G01X948588D01*
G01X945236D01*
G01Y-3344367D01*
G01X956158D01*
G01Y-3355238D01*
G01X974242D01*
G01Y-3344367D01*
G01X985164D01*
G01Y-3326232D01*
G01X974242D01*
G01Y-3315360D01*
G37*
G36*
G01X956158Y-3515360D02*
G01X956158Y-3526231D01*
G01X945236D01*
G01Y-3541065D01*
G01X948588D01*
G01Y-3529584D01*
G01X959460D01*
G01Y-3518662D01*
G01X970940D01*
G01Y-3529584D01*
G01X981812D01*
G01Y-3541065D01*
G01X970940D01*
G01Y-3551936D01*
G01X959460D01*
G01Y-3541065D01*
G01X948588D01*
G01X945236D01*
G01Y-3544367D01*
G01X956158D01*
G01Y-3555238D01*
G01X974242D01*
G01Y-3544367D01*
G01X985164D01*
G01Y-3526231D01*
G01X974242D01*
G01Y-3515360D01*
G37*
G36*
G01X956158Y-3715360D02*
G01X956158Y-3726231D01*
G01X945236D01*
G01Y-3741064D01*
G01X948588D01*
G01Y-3729584D01*
G01X959460D01*
G01Y-3718662D01*
G01X970940D01*
G01Y-3729584D01*
G01X981812D01*
G01Y-3741064D01*
G01X970940D01*
G01Y-3751936D01*
G01X959460D01*
G01Y-3741064D01*
G01X948588D01*
G01X945236D01*
G01Y-3744366D01*
G01X956158D01*
G01Y-3755238D01*
G01X974242D01*
G01Y-3744366D01*
G01X985164D01*
G01Y-3726231D01*
G01X974242D01*
G01Y-3715360D01*
G37*
G36*
G01X956158Y-3915359D02*
G01X956158Y-3926230D01*
G01X945236D01*
G01Y-3941064D01*
G01X948588D01*
G01Y-3929583D01*
G01X959460D01*
G01Y-3918712D01*
G01X970940D01*
G01Y-3929583D01*
G01X981812D01*
G01Y-3941064D01*
G01X970940D01*
G01Y-3951935D01*
G01X959460D01*
G01Y-3941064D01*
G01X948588D01*
G01X945236D01*
G01Y-3944366D01*
G01X956158D01*
G01Y-3955237D01*
G01X974242D01*
G01Y-3944366D01*
G01X985164D01*
G01Y-3926230D01*
G01X974242D01*
G01Y-3915359D01*
G37*
G36*
G01X956158Y-4115359D02*
G01X956158Y-4126230D01*
G01X945236D01*
G01Y-4141064D01*
G01X948588D01*
G01Y-4129583D01*
G01X959460D01*
G01Y-4118712D01*
G01X970940D01*
G01Y-4129583D01*
G01X981812D01*
G01Y-4141064D01*
G01X970940D01*
G01Y-4151935D01*
G01X959460D01*
G01Y-4141064D01*
G01X948588D01*
G01X945236D01*
G01Y-4144366D01*
G01X956158D01*
G01Y-4155237D01*
G01X974242D01*
G01Y-4144366D01*
G01X985164D01*
G01Y-4126230D01*
G01X974242D01*
G01Y-4115359D01*
G37*
G36*
G01X805586Y-1351636D02*
G01X805586Y-1355293D01*
G01X809193D01*
G01X817829D01*
G01X825500Y-1370635D01*
G01X833171Y-1355293D01*
G01X841807D01*
G01Y-1363929D01*
G01X826465Y-1371600D01*
G01X841807Y-1379271D01*
G01Y-1387907D01*
G01X833171D01*
G01X825500Y-1372565D01*
G01X817829Y-1387907D01*
G01X809193D01*
G01Y-1379271D01*
G01X824535Y-1371600D01*
G01X809193Y-1363929D01*
G01Y-1355293D01*
G01X805586D01*
G01Y-1366164D01*
G01X816458Y-1371600D01*
G01X805586Y-1377036D01*
G01Y-1391564D01*
G01X820064D01*
G01X825500Y-1380642D01*
G01X830936Y-1391564D01*
G01X845464D01*
G01Y-1377036D01*
G01X834542Y-1371600D01*
G01X845464Y-1366164D01*
G01Y-1351636D01*
G01X830936D01*
G01X825500Y-1362558D01*
G01X820064Y-1351636D01*
G37*
G36*
G01X805586Y-1097636D02*
G01X805586Y-1101293D01*
G01X809193D01*
G01X817829D01*
G01X825500Y-1116635D01*
G01X833171Y-1101293D01*
G01X841807D01*
G01Y-1109929D01*
G01X826465Y-1117600D01*
G01X841807Y-1125271D01*
G01Y-1133907D01*
G01X833171D01*
G01X825500Y-1118565D01*
G01X817829Y-1133907D01*
G01X809193D01*
G01Y-1125271D01*
G01X824535Y-1117600D01*
G01X809193Y-1109929D01*
G01Y-1101293D01*
G01X805586D01*
G01Y-1112164D01*
G01X816458Y-1117600D01*
G01X805586Y-1123036D01*
G01Y-1137564D01*
G01X820064D01*
G01X825500Y-1126642D01*
G01X830936Y-1137564D01*
G01X845464D01*
G01Y-1123036D01*
G01X834542Y-1117600D01*
G01X845464Y-1112164D01*
G01Y-1097636D01*
G01X830936D01*
G01X825500Y-1108558D01*
G01X820064Y-1097636D01*
G37*
G36*
G01X1059586Y-1351636D02*
G01X1059586Y-1355293D01*
G01X1063193D01*
G01X1071829D01*
G01X1079500Y-1370635D01*
G01X1087171Y-1355293D01*
G01X1095807D01*
G01Y-1363929D01*
G01X1080465Y-1371600D01*
G01X1095807Y-1379271D01*
G01Y-1387907D01*
G01X1087171D01*
G01X1079500Y-1372565D01*
G01X1071829Y-1387907D01*
G01X1063193D01*
G01Y-1379271D01*
G01X1078535Y-1371600D01*
G01X1063193Y-1363929D01*
G01Y-1355293D01*
G01X1059586D01*
G01Y-1366164D01*
G01X1070458Y-1371600D01*
G01X1059586Y-1377036D01*
G01Y-1391564D01*
G01X1074064D01*
G01X1079500Y-1380642D01*
G01X1084936Y-1391564D01*
G01X1099464D01*
G01Y-1377036D01*
G01X1088542Y-1371600D01*
G01X1099464Y-1366164D01*
G01Y-1351636D01*
G01X1084936D01*
G01X1079500Y-1362558D01*
G01X1074064Y-1351636D01*
G37*
G36*
G01X1059586Y-1097636D02*
G01X1059586Y-1101293D01*
G01X1063193D01*
G01X1071829D01*
G01X1079500Y-1116635D01*
G01X1087171Y-1101293D01*
G01X1095807D01*
G01Y-1109929D01*
G01X1080465Y-1117600D01*
G01X1095807Y-1125271D01*
G01Y-1133907D01*
G01X1087171D01*
G01X1079500Y-1118565D01*
G01X1071829Y-1133907D01*
G01X1063193D01*
G01Y-1125271D01*
G01X1078535Y-1117600D01*
G01X1063193Y-1109929D01*
G01Y-1101293D01*
G01X1059586D01*
G01Y-1112164D01*
G01X1070458Y-1117600D01*
G01X1059586Y-1123036D01*
G01Y-1137564D01*
G01X1074064D01*
G01X1079500Y-1126642D01*
G01X1084936Y-1137564D01*
G01X1099464D01*
G01Y-1123036D01*
G01X1088542Y-1117600D01*
G01X1099464Y-1112164D01*
G01Y-1097636D01*
G01X1084936D01*
G01X1079500Y-1108558D01*
G01X1074064Y-1097636D01*
G37*
G36*
G01X1313586Y-1351636D02*
G01X1313586Y-1355293D01*
G01X1317193D01*
G01X1325829D01*
G01X1333500Y-1370635D01*
G01X1341171Y-1355293D01*
G01X1349807D01*
G01Y-1363929D01*
G01X1334465Y-1371600D01*
G01X1349807Y-1379271D01*
G01Y-1387907D01*
G01X1341171D01*
G01X1333500Y-1372565D01*
G01X1325829Y-1387907D01*
G01X1317193D01*
G01Y-1379271D01*
G01X1332535Y-1371600D01*
G01X1317193Y-1363929D01*
G01Y-1355293D01*
G01X1313586D01*
G01Y-1366164D01*
G01X1324458Y-1371600D01*
G01X1313586Y-1377036D01*
G01Y-1391564D01*
G01X1328064D01*
G01X1333500Y-1380642D01*
G01X1338936Y-1391564D01*
G01X1353464D01*
G01Y-1377036D01*
G01X1342542Y-1371600D01*
G01X1353464Y-1366164D01*
G01Y-1351636D01*
G01X1338936D01*
G01X1333500Y-1362558D01*
G01X1328064Y-1351636D01*
G37*
G36*
G01X1313586Y-1097636D02*
G01X1313586Y-1101293D01*
G01X1317193D01*
G01X1325829D01*
G01X1333500Y-1116635D01*
G01X1341171Y-1101293D01*
G01X1349807D01*
G01Y-1109929D01*
G01X1334465Y-1117600D01*
G01X1349807Y-1125271D01*
G01Y-1133907D01*
G01X1341171D01*
G01X1333500Y-1118565D01*
G01X1325829Y-1133907D01*
G01X1317193D01*
G01Y-1125271D01*
G01X1332535Y-1117600D01*
G01X1317193Y-1109929D01*
G01Y-1101293D01*
G01X1313586D01*
G01Y-1112164D01*
G01X1324458Y-1117600D01*
G01X1313586Y-1123036D01*
G01Y-1137564D01*
G01X1328064D01*
G01X1333500Y-1126642D01*
G01X1338936Y-1137564D01*
G01X1353464D01*
G01Y-1123036D01*
G01X1342542Y-1117600D01*
G01X1353464Y-1112164D01*
G01Y-1097636D01*
G01X1338936D01*
G01X1333500Y-1108558D01*
G01X1328064Y-1097636D01*
G37*
G36*
G01X1567586Y-1351636D02*
G01X1567586Y-1355293D01*
G01X1571193D01*
G01X1579829D01*
G01X1587500Y-1370635D01*
G01X1595171Y-1355293D01*
G01X1603807D01*
G01Y-1363929D01*
G01X1588465Y-1371600D01*
G01X1603807Y-1379271D01*
G01Y-1387907D01*
G01X1595171D01*
G01X1587500Y-1372565D01*
G01X1579829Y-1387907D01*
G01X1571193D01*
G01Y-1379271D01*
G01X1586535Y-1371600D01*
G01X1571193Y-1363929D01*
G01Y-1355293D01*
G01X1567586D01*
G01Y-1366164D01*
G01X1578458Y-1371600D01*
G01X1567586Y-1377036D01*
G01Y-1391564D01*
G01X1582064D01*
G01X1587500Y-1380642D01*
G01X1592936Y-1391564D01*
G01X1607464D01*
G01Y-1377036D01*
G01X1596542Y-1371600D01*
G01X1607464Y-1366164D01*
G01Y-1351636D01*
G01X1592936D01*
G01X1587500Y-1362558D01*
G01X1582064Y-1351636D01*
G37*
G36*
G01X1567586Y-1097636D02*
G01X1567586Y-1101293D01*
G01X1571193D01*
G01X1579829D01*
G01X1587500Y-1116635D01*
G01X1595171Y-1101293D01*
G01X1603807D01*
G01Y-1109929D01*
G01X1588465Y-1117600D01*
G01X1603807Y-1125271D01*
G01Y-1133907D01*
G01X1595171D01*
G01X1587500Y-1118565D01*
G01X1579829Y-1133907D01*
G01X1571193D01*
G01Y-1125271D01*
G01X1586535Y-1117600D01*
G01X1571193Y-1109929D01*
G01Y-1101293D01*
G01X1567586D01*
G01Y-1112164D01*
G01X1578458Y-1117600D01*
G01X1567586Y-1123036D01*
G01Y-1137564D01*
G01X1582064D01*
G01X1587500Y-1126642D01*
G01X1592936Y-1137564D01*
G01X1607464D01*
G01Y-1123036D01*
G01X1596542Y-1117600D01*
G01X1607464Y-1112164D01*
G01Y-1097636D01*
G01X1592936D01*
G01X1587500Y-1108558D01*
G01X1582064Y-1097636D01*
G37*
G36*
G01X1821586Y-1351636D02*
G01X1821586Y-1355293D01*
G01X1825193D01*
G01X1833829D01*
G01X1841500Y-1370635D01*
G01X1849171Y-1355293D01*
G01X1857807D01*
G01Y-1363929D01*
G01X1842465Y-1371600D01*
G01X1857807Y-1379271D01*
G01Y-1387907D01*
G01X1849171D01*
G01X1841500Y-1372565D01*
G01X1833829Y-1387907D01*
G01X1825193D01*
G01Y-1379271D01*
G01X1840535Y-1371600D01*
G01X1825193Y-1363929D01*
G01Y-1355293D01*
G01X1821586D01*
G01Y-1366164D01*
G01X1832458Y-1371600D01*
G01X1821586Y-1377036D01*
G01Y-1391564D01*
G01X1836064D01*
G01X1841500Y-1380642D01*
G01X1846936Y-1391564D01*
G01X1861464D01*
G01Y-1377036D01*
G01X1850542Y-1371600D01*
G01X1861464Y-1366164D01*
G01Y-1351636D01*
G01X1846936D01*
G01X1841500Y-1362558D01*
G01X1836064Y-1351636D01*
G37*
G36*
G01X1821586Y-1097636D02*
G01X1821586Y-1101293D01*
G01X1825193D01*
G01X1833829D01*
G01X1841500Y-1116635D01*
G01X1849171Y-1101293D01*
G01X1857807D01*
G01Y-1109929D01*
G01X1842465Y-1117600D01*
G01X1857807Y-1125271D01*
G01Y-1133907D01*
G01X1849171D01*
G01X1841500Y-1118565D01*
G01X1833829Y-1133907D01*
G01X1825193D01*
G01Y-1125271D01*
G01X1840535Y-1117600D01*
G01X1825193Y-1109929D01*
G01Y-1101293D01*
G01X1821586D01*
G01Y-1112164D01*
G01X1832458Y-1117600D01*
G01X1821586Y-1123036D01*
G01Y-1137564D01*
G01X1836064D01*
G01X1841500Y-1126642D01*
G01X1846936Y-1137564D01*
G01X1861464D01*
G01Y-1123036D01*
G01X1850542Y-1117600D01*
G01X1861464Y-1112164D01*
G01Y-1097636D01*
G01X1846936D01*
G01X1841500Y-1108558D01*
G01X1836064Y-1097636D01*
G37*
G36*
G01X2075586Y-1351636D02*
G01X2075586Y-1355293D01*
G01X2079193D01*
G01X2087829D01*
G01X2095500Y-1370635D01*
G01X2103171Y-1355293D01*
G01X2111807D01*
G01Y-1363929D01*
G01X2096465Y-1371600D01*
G01X2111807Y-1379271D01*
G01Y-1387907D01*
G01X2103171D01*
G01X2095500Y-1372565D01*
G01X2087829Y-1387907D01*
G01X2079193D01*
G01Y-1379271D01*
G01X2094535Y-1371600D01*
G01X2079193Y-1363929D01*
G01Y-1355293D01*
G01X2075586D01*
G01Y-1366164D01*
G01X2086458Y-1371600D01*
G01X2075586Y-1377036D01*
G01Y-1391564D01*
G01X2090064D01*
G01X2095500Y-1380642D01*
G01X2100936Y-1391564D01*
G01X2115464D01*
G01Y-1377036D01*
G01X2104542Y-1371600D01*
G01X2115464Y-1366164D01*
G01Y-1351636D01*
G01X2100936D01*
G01X2095500Y-1362558D01*
G01X2090064Y-1351636D01*
G37*
G36*
G01X2075586Y-1097636D02*
G01X2075586Y-1101293D01*
G01X2079193D01*
G01X2087829D01*
G01X2095500Y-1116635D01*
G01X2103171Y-1101293D01*
G01X2111807D01*
G01Y-1109929D01*
G01X2096465Y-1117600D01*
G01X2111807Y-1125271D01*
G01Y-1133907D01*
G01X2103171D01*
G01X2095500Y-1118565D01*
G01X2087829Y-1133907D01*
G01X2079193D01*
G01Y-1125271D01*
G01X2094535Y-1117600D01*
G01X2079193Y-1109929D01*
G01Y-1101293D01*
G01X2075586D01*
G01Y-1112164D01*
G01X2086458Y-1117600D01*
G01X2075586Y-1123036D01*
G01Y-1137564D01*
G01X2090064D01*
G01X2095500Y-1126642D01*
G01X2100936Y-1137564D01*
G01X2115464D01*
G01Y-1123036D01*
G01X2104542Y-1117600D01*
G01X2115464Y-1112164D01*
G01Y-1097636D01*
G01X2100936D01*
G01X2095500Y-1108558D01*
G01X2090064Y-1097636D01*
G37*
G36*
G01X2329586Y-1351636D02*
G01X2329586Y-1355293D01*
G01X2333193D01*
G01X2341829D01*
G01X2349500Y-1370635D01*
G01X2357171Y-1355293D01*
G01X2365807D01*
G01Y-1363929D01*
G01X2350465Y-1371600D01*
G01X2365807Y-1379271D01*
G01Y-1387907D01*
G01X2357171D01*
G01X2349500Y-1372565D01*
G01X2341829Y-1387907D01*
G01X2333193D01*
G01Y-1379271D01*
G01X2348535Y-1371600D01*
G01X2333193Y-1363929D01*
G01Y-1355293D01*
G01X2329586D01*
G01Y-1366164D01*
G01X2340458Y-1371600D01*
G01X2329586Y-1377036D01*
G01Y-1391564D01*
G01X2344064D01*
G01X2349500Y-1380642D01*
G01X2354936Y-1391564D01*
G01X2369464D01*
G01Y-1377036D01*
G01X2358542Y-1371600D01*
G01X2369464Y-1366164D01*
G01Y-1351636D01*
G01X2354936D01*
G01X2349500Y-1362558D01*
G01X2344064Y-1351636D01*
G37*
G36*
G01X2329586Y-1097636D02*
G01X2329586Y-1101293D01*
G01X2333193D01*
G01X2341829D01*
G01X2349500Y-1116635D01*
G01X2357171Y-1101293D01*
G01X2365807D01*
G01Y-1109929D01*
G01X2350465Y-1117600D01*
G01X2365807Y-1125271D01*
G01Y-1133907D01*
G01X2357171D01*
G01X2349500Y-1118565D01*
G01X2341829Y-1133907D01*
G01X2333193D01*
G01Y-1125271D01*
G01X2348535Y-1117600D01*
G01X2333193Y-1109929D01*
G01Y-1101293D01*
G01X2329586D01*
G01Y-1112164D01*
G01X2340458Y-1117600D01*
G01X2329586Y-1123036D01*
G01Y-1137564D01*
G01X2344064D01*
G01X2349500Y-1126642D01*
G01X2354936Y-1137564D01*
G01X2369464D01*
G01Y-1123036D01*
G01X2358542Y-1117600D01*
G01X2369464Y-1112164D01*
G01Y-1097636D01*
G01X2354936D01*
G01X2349500Y-1108558D01*
G01X2344064Y-1097636D01*
G37*
G36*
G01X2583586Y-1351636D02*
G01X2583586Y-1355293D01*
G01X2587193D01*
G01X2595829D01*
G01X2603500Y-1370635D01*
G01X2611171Y-1355293D01*
G01X2619807D01*
G01Y-1363929D01*
G01X2604465Y-1371600D01*
G01X2619807Y-1379271D01*
G01Y-1387907D01*
G01X2611171D01*
G01X2603500Y-1372565D01*
G01X2595829Y-1387907D01*
G01X2587193D01*
G01Y-1379271D01*
G01X2602535Y-1371600D01*
G01X2587193Y-1363929D01*
G01Y-1355293D01*
G01X2583586D01*
G01Y-1366164D01*
G01X2594458Y-1371600D01*
G01X2583586Y-1377036D01*
G01Y-1391564D01*
G01X2598064D01*
G01X2603500Y-1380642D01*
G01X2608936Y-1391564D01*
G01X2623464D01*
G01Y-1377036D01*
G01X2612542Y-1371600D01*
G01X2623464Y-1366164D01*
G01Y-1351636D01*
G01X2608936D01*
G01X2603500Y-1362558D01*
G01X2598064Y-1351636D01*
G37*
G36*
G01X2583586Y-1097636D02*
G01X2583586Y-1101293D01*
G01X2587193D01*
G01X2595829D01*
G01X2603500Y-1116635D01*
G01X2611171Y-1101293D01*
G01X2619807D01*
G01Y-1109929D01*
G01X2604465Y-1117600D01*
G01X2619807Y-1125271D01*
G01Y-1133907D01*
G01X2611171D01*
G01X2603500Y-1118565D01*
G01X2595829Y-1133907D01*
G01X2587193D01*
G01Y-1125271D01*
G01X2602535Y-1117600D01*
G01X2587193Y-1109929D01*
G01Y-1101293D01*
G01X2583586D01*
G01Y-1112164D01*
G01X2594458Y-1117600D01*
G01X2583586Y-1123036D01*
G01Y-1137564D01*
G01X2598064D01*
G01X2603500Y-1126642D01*
G01X2608936Y-1137564D01*
G01X2623464D01*
G01Y-1123036D01*
G01X2612542Y-1117600D01*
G01X2623464Y-1112164D01*
G01Y-1097636D01*
G01X2608936D01*
G01X2603500Y-1108558D01*
G01X2598064Y-1097636D01*
G37*
G36*
G01X2837586Y-1351636D02*
G01X2837586Y-1355293D01*
G01X2841193D01*
G01X2849829D01*
G01X2857500Y-1370635D01*
G01X2865171Y-1355293D01*
G01X2873807D01*
G01Y-1363929D01*
G01X2858465Y-1371600D01*
G01X2873807Y-1379271D01*
G01Y-1387907D01*
G01X2865171D01*
G01X2857500Y-1372565D01*
G01X2849829Y-1387907D01*
G01X2841193D01*
G01Y-1379271D01*
G01X2856535Y-1371600D01*
G01X2841193Y-1363929D01*
G01Y-1355293D01*
G01X2837586D01*
G01Y-1366164D01*
G01X2848458Y-1371600D01*
G01X2837586Y-1377036D01*
G01Y-1391564D01*
G01X2852064D01*
G01X2857500Y-1380642D01*
G01X2862936Y-1391564D01*
G01X2877464D01*
G01Y-1377036D01*
G01X2866542Y-1371600D01*
G01X2877464Y-1366164D01*
G01Y-1351636D01*
G01X2862936D01*
G01X2857500Y-1362558D01*
G01X2852064Y-1351636D01*
G37*
G36*
G01X2837586Y-1097636D02*
G01X2837586Y-1101293D01*
G01X2841193D01*
G01X2849829D01*
G01X2857500Y-1116635D01*
G01X2865171Y-1101293D01*
G01X2873807D01*
G01Y-1109929D01*
G01X2858465Y-1117600D01*
G01X2873807Y-1125271D01*
G01Y-1133907D01*
G01X2865171D01*
G01X2857500Y-1118565D01*
G01X2849829Y-1133907D01*
G01X2841193D01*
G01Y-1125271D01*
G01X2856535Y-1117600D01*
G01X2841193Y-1109929D01*
G01Y-1101293D01*
G01X2837586D01*
G01Y-1112164D01*
G01X2848458Y-1117600D01*
G01X2837586Y-1123036D01*
G01Y-1137564D01*
G01X2852064D01*
G01X2857500Y-1126642D01*
G01X2862936Y-1137564D01*
G01X2877464D01*
G01Y-1123036D01*
G01X2866542Y-1117600D01*
G01X2877464Y-1112164D01*
G01Y-1097636D01*
G01X2862936D01*
G01X2857500Y-1108558D01*
G01X2852064Y-1097636D01*
G37*
G36*
G01X3091586Y-1351636D02*
G01X3091586Y-1355293D01*
G01X3095193D01*
G01X3103829D01*
G01X3111500Y-1370635D01*
G01X3119171Y-1355293D01*
G01X3127807D01*
G01Y-1363929D01*
G01X3112465Y-1371600D01*
G01X3127807Y-1379271D01*
G01Y-1387907D01*
G01X3119171D01*
G01X3111500Y-1372565D01*
G01X3103829Y-1387907D01*
G01X3095193D01*
G01Y-1379271D01*
G01X3110535Y-1371600D01*
G01X3095193Y-1363929D01*
G01Y-1355293D01*
G01X3091586D01*
G01Y-1366164D01*
G01X3102458Y-1371600D01*
G01X3091586Y-1377036D01*
G01Y-1391564D01*
G01X3106064D01*
G01X3111500Y-1380642D01*
G01X3116936Y-1391564D01*
G01X3131464D01*
G01Y-1377036D01*
G01X3120542Y-1371600D01*
G01X3131464Y-1366164D01*
G01Y-1351636D01*
G01X3116936D01*
G01X3111500Y-1362558D01*
G01X3106064Y-1351636D01*
G37*
G36*
G01X3091586Y-1097636D02*
G01X3091586Y-1101293D01*
G01X3095193D01*
G01X3103829D01*
G01X3111500Y-1116635D01*
G01X3119171Y-1101293D01*
G01X3127807D01*
G01Y-1109929D01*
G01X3112465Y-1117600D01*
G01X3127807Y-1125271D01*
G01Y-1133907D01*
G01X3119171D01*
G01X3111500Y-1118565D01*
G01X3103829Y-1133907D01*
G01X3095193D01*
G01Y-1125271D01*
G01X3110535Y-1117600D01*
G01X3095193Y-1109929D01*
G01Y-1101293D01*
G01X3091586D01*
G01Y-1112164D01*
G01X3102458Y-1117600D01*
G01X3091586Y-1123036D01*
G01Y-1137564D01*
G01X3106064D01*
G01X3111500Y-1126642D01*
G01X3116936Y-1137564D01*
G01X3131464D01*
G01Y-1123036D01*
G01X3120542Y-1117600D01*
G01X3131464Y-1112164D01*
G01Y-1097636D01*
G01X3116936D01*
G01X3111500Y-1108558D01*
G01X3106064Y-1097636D01*
G37*
G36*
G01X3345536Y-1351636D02*
G01X3345536Y-1355293D01*
G01X3349193D01*
G01X3357829D01*
G01X3365500Y-1370635D01*
G01X3373171Y-1355293D01*
G01X3381807D01*
G01Y-1363929D01*
G01X3366465Y-1371600D01*
G01X3381807Y-1379271D01*
G01Y-1387907D01*
G01X3373171D01*
G01X3365500Y-1372565D01*
G01X3357829Y-1387907D01*
G01X3349193D01*
G01Y-1379271D01*
G01X3364535Y-1371600D01*
G01X3349193Y-1363929D01*
G01Y-1355293D01*
G01X3345536D01*
G01Y-1366164D01*
G01X3356458Y-1371600D01*
G01X3345536Y-1377036D01*
G01Y-1391564D01*
G01X3360064D01*
G01X3365500Y-1380642D01*
G01X3370936Y-1391564D01*
G01X3385464D01*
G01Y-1377036D01*
G01X3374542Y-1371600D01*
G01X3385464Y-1366164D01*
G01Y-1351636D01*
G01X3370936D01*
G01X3365500Y-1362558D01*
G01X3360064Y-1351636D01*
G37*
G36*
G01X3345536Y-1097636D02*
G01X3345536Y-1101293D01*
G01X3349193D01*
G01X3357829D01*
G01X3365500Y-1116635D01*
G01X3373171Y-1101293D01*
G01X3381807D01*
G01Y-1109929D01*
G01X3366465Y-1117600D01*
G01X3381807Y-1125271D01*
G01Y-1133907D01*
G01X3373171D01*
G01X3365500Y-1118565D01*
G01X3357829Y-1133907D01*
G01X3349193D01*
G01Y-1125271D01*
G01X3364535Y-1117600D01*
G01X3349193Y-1109929D01*
G01Y-1101293D01*
G01X3345536D01*
G01Y-1112164D01*
G01X3356458Y-1117600D01*
G01X3345536Y-1123036D01*
G01Y-1137564D01*
G01X3360064D01*
G01X3365500Y-1126642D01*
G01X3370936Y-1137564D01*
G01X3385464D01*
G01Y-1123036D01*
G01X3374542Y-1117600D01*
G01X3385464Y-1112164D01*
G01Y-1097636D01*
G01X3370936D01*
G01X3365500Y-1108558D01*
G01X3360064Y-1097636D01*
G37*
G36*
G01X3599536Y-1351636D02*
G01X3599536Y-1355293D01*
G01X3603193D01*
G01X3611829D01*
G01X3619500Y-1370635D01*
G01X3627171Y-1355293D01*
G01X3635807D01*
G01Y-1363929D01*
G01X3620465Y-1371600D01*
G01X3635807Y-1379271D01*
G01Y-1387907D01*
G01X3627171D01*
G01X3619500Y-1372565D01*
G01X3611829Y-1387907D01*
G01X3603193D01*
G01Y-1379271D01*
G01X3618535Y-1371600D01*
G01X3603193Y-1363929D01*
G01Y-1355293D01*
G01X3599536D01*
G01Y-1366164D01*
G01X3610458Y-1371600D01*
G01X3599536Y-1377036D01*
G01Y-1391564D01*
G01X3614064D01*
G01X3619500Y-1380642D01*
G01X3624936Y-1391564D01*
G01X3639464D01*
G01Y-1377036D01*
G01X3628542Y-1371600D01*
G01X3639464Y-1366164D01*
G01Y-1351636D01*
G01X3624936D01*
G01X3619500Y-1362558D01*
G01X3614064Y-1351636D01*
G37*
G36*
G01X3599536Y-1097636D02*
G01X3599536Y-1101293D01*
G01X3603193D01*
G01X3611829D01*
G01X3619500Y-1116635D01*
G01X3627171Y-1101293D01*
G01X3635807D01*
G01Y-1109929D01*
G01X3620465Y-1117600D01*
G01X3635807Y-1125271D01*
G01Y-1133907D01*
G01X3627171D01*
G01X3619500Y-1118565D01*
G01X3611829Y-1133907D01*
G01X3603193D01*
G01Y-1125271D01*
G01X3618535Y-1117600D01*
G01X3603193Y-1109929D01*
G01Y-1101293D01*
G01X3599536D01*
G01Y-1112164D01*
G01X3610458Y-1117600D01*
G01X3599536Y-1123036D01*
G01Y-1137564D01*
G01X3614064D01*
G01X3619500Y-1126642D01*
G01X3624936Y-1137564D01*
G01X3639464D01*
G01Y-1123036D01*
G01X3628542Y-1117600D01*
G01X3639464Y-1112164D01*
G01Y-1097636D01*
G01X3624936D01*
G01X3619500Y-1108558D01*
G01X3614064Y-1097636D01*
G37*
G36*
G01X3853536Y-1351636D02*
G01X3853536Y-1355293D01*
G01X3857193D01*
G01X3865829D01*
G01X3873500Y-1370635D01*
G01X3881171Y-1355293D01*
G01X3889807D01*
G01Y-1363929D01*
G01X3874465Y-1371600D01*
G01X3889807Y-1379271D01*
G01Y-1387907D01*
G01X3881171D01*
G01X3873500Y-1372565D01*
G01X3865829Y-1387907D01*
G01X3857193D01*
G01Y-1379271D01*
G01X3872535Y-1371600D01*
G01X3857193Y-1363929D01*
G01Y-1355293D01*
G01X3853536D01*
G01Y-1366164D01*
G01X3864458Y-1371600D01*
G01X3853536Y-1377036D01*
G01Y-1391564D01*
G01X3868064D01*
G01X3873500Y-1380642D01*
G01X3878936Y-1391564D01*
G01X3893464D01*
G01Y-1377036D01*
G01X3882542Y-1371600D01*
G01X3893464Y-1366164D01*
G01Y-1351636D01*
G01X3878936D01*
G01X3873500Y-1362558D01*
G01X3868064Y-1351636D01*
G37*
G36*
G01X3853536Y-1097636D02*
G01X3853536Y-1101293D01*
G01X3857193D01*
G01X3865829D01*
G01X3873500Y-1116635D01*
G01X3881171Y-1101293D01*
G01X3889807D01*
G01Y-1109929D01*
G01X3874465Y-1117600D01*
G01X3889807Y-1125271D01*
G01Y-1133907D01*
G01X3881171D01*
G01X3873500Y-1118565D01*
G01X3865829Y-1133907D01*
G01X3857193D01*
G01Y-1125271D01*
G01X3872535Y-1117600D01*
G01X3857193Y-1109929D01*
G01Y-1101293D01*
G01X3853536D01*
G01Y-1112164D01*
G01X3864458Y-1117600D01*
G01X3853536Y-1123036D01*
G01Y-1137564D01*
G01X3868064D01*
G01X3873500Y-1126642D01*
G01X3878936Y-1137564D01*
G01X3893464D01*
G01Y-1123036D01*
G01X3882542Y-1117600D01*
G01X3893464Y-1112164D01*
G01Y-1097636D01*
G01X3878936D01*
G01X3873500Y-1108558D01*
G01X3868064Y-1097636D01*
G37*
G36*
G01X4107536Y-1351636D02*
G01X4107536Y-1355293D01*
G01X4111193D01*
G01X4119829D01*
G01X4127500Y-1370635D01*
G01X4135171Y-1355293D01*
G01X4143807D01*
G01Y-1363929D01*
G01X4128465Y-1371600D01*
G01X4143807Y-1379271D01*
G01Y-1387907D01*
G01X4135171D01*
G01X4127500Y-1372565D01*
G01X4119829Y-1387907D01*
G01X4111193D01*
G01Y-1379271D01*
G01X4126535Y-1371600D01*
G01X4111193Y-1363929D01*
G01Y-1355293D01*
G01X4107536D01*
G01Y-1366164D01*
G01X4118458Y-1371600D01*
G01X4107536Y-1377036D01*
G01Y-1391564D01*
G01X4122064D01*
G01X4127500Y-1380642D01*
G01X4132936Y-1391564D01*
G01X4147464D01*
G01Y-1377036D01*
G01X4136542Y-1371600D01*
G01X4147464Y-1366164D01*
G01Y-1351636D01*
G01X4132936D01*
G01X4127500Y-1362558D01*
G01X4122064Y-1351636D01*
G37*
G36*
G01X4107536Y-1097636D02*
G01X4107536Y-1101293D01*
G01X4111193D01*
G01X4119829D01*
G01X4127500Y-1116635D01*
G01X4135171Y-1101293D01*
G01X4143807D01*
G01Y-1109929D01*
G01X4128465Y-1117600D01*
G01X4143807Y-1125271D01*
G01Y-1133907D01*
G01X4135171D01*
G01X4127500Y-1118565D01*
G01X4119829Y-1133907D01*
G01X4111193D01*
G01Y-1125271D01*
G01X4126535Y-1117600D01*
G01X4111193Y-1109929D01*
G01Y-1101293D01*
G01X4107536D01*
G01Y-1112164D01*
G01X4118458Y-1117600D01*
G01X4107536Y-1123036D01*
G01Y-1137564D01*
G01X4122064D01*
G01X4127500Y-1126642D01*
G01X4132936Y-1137564D01*
G01X4147464D01*
G01Y-1123036D01*
G01X4136542Y-1117600D01*
G01X4147464Y-1112164D01*
G01Y-1097636D01*
G01X4132936D01*
G01X4127500Y-1108558D01*
G01X4122064Y-1097636D01*
G37*
G36*
G01X4361536Y-1351636D02*
G01X4361536Y-1355293D01*
G01X4365193D01*
G01X4373829D01*
G01X4381500Y-1370635D01*
G01X4389171Y-1355293D01*
G01X4397807D01*
G01Y-1363929D01*
G01X4382465Y-1371600D01*
G01X4397807Y-1379271D01*
G01Y-1387907D01*
G01X4389171D01*
G01X4381500Y-1372565D01*
G01X4373829Y-1387907D01*
G01X4365193D01*
G01Y-1379271D01*
G01X4380535Y-1371600D01*
G01X4365193Y-1363929D01*
G01Y-1355293D01*
G01X4361536D01*
G01Y-1366164D01*
G01X4372458Y-1371600D01*
G01X4361536Y-1377036D01*
G01Y-1391564D01*
G01X4376064D01*
G01X4381500Y-1380642D01*
G01X4386936Y-1391564D01*
G01X4401464D01*
G01Y-1377036D01*
G01X4390542Y-1371600D01*
G01X4401464Y-1366164D01*
G01Y-1351636D01*
G01X4386936D01*
G01X4381500Y-1362558D01*
G01X4376064Y-1351636D01*
G37*
G36*
G01X4361536Y-1097636D02*
G01X4361536Y-1101293D01*
G01X4365193D01*
G01X4373829D01*
G01X4381500Y-1116635D01*
G01X4389171Y-1101293D01*
G01X4397807D01*
G01Y-1109929D01*
G01X4382465Y-1117600D01*
G01X4397807Y-1125271D01*
G01Y-1133907D01*
G01X4389171D01*
G01X4381500Y-1118565D01*
G01X4373829Y-1133907D01*
G01X4365193D01*
G01Y-1125271D01*
G01X4380535Y-1117600D01*
G01X4365193Y-1109929D01*
G01Y-1101293D01*
G01X4361536D01*
G01Y-1112164D01*
G01X4372458Y-1117600D01*
G01X4361536Y-1123036D01*
G01Y-1137564D01*
G01X4376064D01*
G01X4381500Y-1126642D01*
G01X4386936Y-1137564D01*
G01X4401464D01*
G01Y-1123036D01*
G01X4390542Y-1117600D01*
G01X4401464Y-1112164D01*
G01Y-1097636D01*
G01X4386936D01*
G01X4381500Y-1108558D01*
G01X4376064Y-1097636D01*
G37*
G36*
G01X4615536Y-1351636D02*
G01X4615536Y-1355293D01*
G01X4619193D01*
G01X4627829D01*
G01X4635500Y-1370635D01*
G01X4643171Y-1355293D01*
G01X4651807D01*
G01Y-1363929D01*
G01X4636465Y-1371600D01*
G01X4651807Y-1379271D01*
G01Y-1387907D01*
G01X4643171D01*
G01X4635500Y-1372565D01*
G01X4627829Y-1387907D01*
G01X4619193D01*
G01Y-1379271D01*
G01X4634535Y-1371600D01*
G01X4619193Y-1363929D01*
G01Y-1355293D01*
G01X4615536D01*
G01Y-1366164D01*
G01X4626458Y-1371600D01*
G01X4615536Y-1377036D01*
G01Y-1391564D01*
G01X4630064D01*
G01X4635500Y-1380642D01*
G01X4640936Y-1391564D01*
G01X4655464D01*
G01Y-1377036D01*
G01X4644542Y-1371600D01*
G01X4655464Y-1366164D01*
G01Y-1351636D01*
G01X4640936D01*
G01X4635500Y-1362558D01*
G01X4630064Y-1351636D01*
G37*
G36*
G01X4615536Y-1097636D02*
G01X4615536Y-1101293D01*
G01X4619193D01*
G01X4627829D01*
G01X4635500Y-1116635D01*
G01X4643171Y-1101293D01*
G01X4651807D01*
G01Y-1109929D01*
G01X4636465Y-1117600D01*
G01X4651807Y-1125271D01*
G01Y-1133907D01*
G01X4643171D01*
G01X4635500Y-1118565D01*
G01X4627829Y-1133907D01*
G01X4619193D01*
G01Y-1125271D01*
G01X4634535Y-1117600D01*
G01X4619193Y-1109929D01*
G01Y-1101293D01*
G01X4615536D01*
G01Y-1112164D01*
G01X4626458Y-1117600D01*
G01X4615536Y-1123036D01*
G01Y-1137564D01*
G01X4630064D01*
G01X4635500Y-1126642D01*
G01X4640936Y-1137564D01*
G01X4655464D01*
G01Y-1123036D01*
G01X4644542Y-1117600D01*
G01X4655464Y-1112164D01*
G01Y-1097636D01*
G01X4640936D01*
G01X4635500Y-1108558D01*
G01X4630064Y-1097636D01*
G37*
G36*
G01X4869536Y-1351636D02*
G01X4869536Y-1355293D01*
G01X4873193D01*
G01X4881829D01*
G01X4889500Y-1370635D01*
G01X4897171Y-1355293D01*
G01X4905807D01*
G01Y-1363929D01*
G01X4890465Y-1371600D01*
G01X4905807Y-1379271D01*
G01Y-1387907D01*
G01X4897171D01*
G01X4889500Y-1372565D01*
G01X4881829Y-1387907D01*
G01X4873193D01*
G01Y-1379271D01*
G01X4888535Y-1371600D01*
G01X4873193Y-1363929D01*
G01Y-1355293D01*
G01X4869536D01*
G01Y-1366164D01*
G01X4880458Y-1371600D01*
G01X4869536Y-1377036D01*
G01Y-1391564D01*
G01X4884064D01*
G01X4889500Y-1380642D01*
G01X4894936Y-1391564D01*
G01X4909464D01*
G01Y-1377036D01*
G01X4898542Y-1371600D01*
G01X4909464Y-1366164D01*
G01Y-1351636D01*
G01X4894936D01*
G01X4889500Y-1362558D01*
G01X4884064Y-1351636D01*
G37*
G36*
G01X4869536Y-1097636D02*
G01X4869536Y-1101293D01*
G01X4873193D01*
G01X4881829D01*
G01X4889500Y-1116635D01*
G01X4897171Y-1101293D01*
G01X4905807D01*
G01Y-1109929D01*
G01X4890465Y-1117600D01*
G01X4905807Y-1125271D01*
G01Y-1133907D01*
G01X4897171D01*
G01X4889500Y-1118565D01*
G01X4881829Y-1133907D01*
G01X4873193D01*
G01Y-1125271D01*
G01X4888535Y-1117600D01*
G01X4873193Y-1109929D01*
G01Y-1101293D01*
G01X4869536D01*
G01Y-1112164D01*
G01X4880458Y-1117600D01*
G01X4869536Y-1123036D01*
G01Y-1137564D01*
G01X4884064D01*
G01X4889500Y-1126642D01*
G01X4894936Y-1137564D01*
G01X4909464D01*
G01Y-1123036D01*
G01X4898542Y-1117600D01*
G01X4909464Y-1112164D01*
G01Y-1097636D01*
G01X4894936D01*
G01X4889500Y-1108558D01*
G01X4884064Y-1097636D01*
G37*
G36*
G01X5123536Y-1351636D02*
G01X5123536Y-1355293D01*
G01X5127193D01*
G01X5135829D01*
G01X5143500Y-1370635D01*
G01X5151171Y-1355293D01*
G01X5159807D01*
G01Y-1363929D01*
G01X5144465Y-1371600D01*
G01X5159807Y-1379271D01*
G01Y-1387907D01*
G01X5151171D01*
G01X5143500Y-1372565D01*
G01X5135829Y-1387907D01*
G01X5127193D01*
G01Y-1379271D01*
G01X5142535Y-1371600D01*
G01X5127193Y-1363929D01*
G01Y-1355293D01*
G01X5123536D01*
G01Y-1366164D01*
G01X5134458Y-1371600D01*
G01X5123536Y-1377036D01*
G01Y-1391564D01*
G01X5138064D01*
G01X5143500Y-1380642D01*
G01X5148936Y-1391564D01*
G01X5163464D01*
G01Y-1377036D01*
G01X5152542Y-1371600D01*
G01X5163464Y-1366164D01*
G01Y-1351636D01*
G01X5148936D01*
G01X5143500Y-1362558D01*
G01X5138064Y-1351636D01*
G37*
G36*
G01X5123536Y-1097636D02*
G01X5123536Y-1101293D01*
G01X5127193D01*
G01X5135829D01*
G01X5143500Y-1116635D01*
G01X5151171Y-1101293D01*
G01X5159807D01*
G01Y-1109929D01*
G01X5144465Y-1117600D01*
G01X5159807Y-1125271D01*
G01Y-1133907D01*
G01X5151171D01*
G01X5143500Y-1118565D01*
G01X5135829Y-1133907D01*
G01X5127193D01*
G01Y-1125271D01*
G01X5142535Y-1117600D01*
G01X5127193Y-1109929D01*
G01Y-1101293D01*
G01X5123536D01*
G01Y-1112164D01*
G01X5134458Y-1117600D01*
G01X5123536Y-1123036D01*
G01Y-1137564D01*
G01X5138064D01*
G01X5143500Y-1126642D01*
G01X5148936Y-1137564D01*
G01X5163464D01*
G01Y-1123036D01*
G01X5152542Y-1117600D01*
G01X5163464Y-1112164D01*
G01Y-1097636D01*
G01X5148936D01*
G01X5143500Y-1108558D01*
G01X5138064Y-1097636D01*
G37*
G36*
G01X5377536Y-1351636D02*
G01X5377536Y-1355293D01*
G01X5381193D01*
G01X5389829D01*
G01X5397500Y-1370635D01*
G01X5405171Y-1355293D01*
G01X5413807D01*
G01Y-1363929D01*
G01X5398465Y-1371600D01*
G01X5413807Y-1379271D01*
G01Y-1387907D01*
G01X5405171D01*
G01X5397500Y-1372565D01*
G01X5389829Y-1387907D01*
G01X5381193D01*
G01Y-1379271D01*
G01X5396535Y-1371600D01*
G01X5381193Y-1363929D01*
G01Y-1355293D01*
G01X5377536D01*
G01Y-1366164D01*
G01X5388458Y-1371600D01*
G01X5377536Y-1377036D01*
G01Y-1391564D01*
G01X5392064D01*
G01X5397500Y-1380642D01*
G01X5402936Y-1391564D01*
G01X5417464D01*
G01Y-1377036D01*
G01X5406542Y-1371600D01*
G01X5417464Y-1366164D01*
G01Y-1351636D01*
G01X5402936D01*
G01X5397500Y-1362558D01*
G01X5392064Y-1351636D01*
G37*
G36*
G01X5377536Y-1097636D02*
G01X5377536Y-1101293D01*
G01X5381193D01*
G01X5389829D01*
G01X5397500Y-1116635D01*
G01X5405171Y-1101293D01*
G01X5413807D01*
G01Y-1109929D01*
G01X5398465Y-1117600D01*
G01X5413807Y-1125271D01*
G01Y-1133907D01*
G01X5405171D01*
G01X5397500Y-1118565D01*
G01X5389829Y-1133907D01*
G01X5381193D01*
G01Y-1125271D01*
G01X5396535Y-1117600D01*
G01X5381193Y-1109929D01*
G01Y-1101293D01*
G01X5377536D01*
G01Y-1112164D01*
G01X5388458Y-1117600D01*
G01X5377536Y-1123036D01*
G01Y-1137564D01*
G01X5392064D01*
G01X5397500Y-1126642D01*
G01X5402936Y-1137564D01*
G01X5417464D01*
G01Y-1123036D01*
G01X5406542Y-1117600D01*
G01X5417464Y-1112164D01*
G01Y-1097636D01*
G01X5402936D01*
G01X5397500Y-1108558D01*
G01X5392064Y-1097636D01*
G37*
G36*
G01X5631536Y-1351636D02*
G01X5631536Y-1355293D01*
G01X5635193D01*
G01X5643829D01*
G01X5651500Y-1370635D01*
G01X5659171Y-1355293D01*
G01X5667807D01*
G01Y-1363929D01*
G01X5652465Y-1371600D01*
G01X5667807Y-1379271D01*
G01Y-1387907D01*
G01X5659171D01*
G01X5651500Y-1372565D01*
G01X5643829Y-1387907D01*
G01X5635193D01*
G01Y-1379271D01*
G01X5650535Y-1371600D01*
G01X5635193Y-1363929D01*
G01Y-1355293D01*
G01X5631536D01*
G01Y-1366164D01*
G01X5642458Y-1371600D01*
G01X5631536Y-1377036D01*
G01Y-1391564D01*
G01X5646064D01*
G01X5651500Y-1380642D01*
G01X5656936Y-1391564D01*
G01X5671464D01*
G01Y-1377036D01*
G01X5660542Y-1371600D01*
G01X5671464Y-1366164D01*
G01Y-1351636D01*
G01X5656936D01*
G01X5651500Y-1362558D01*
G01X5646064Y-1351636D01*
G37*
G36*
G01X5631536Y-1097636D02*
G01X5631536Y-1101293D01*
G01X5635193D01*
G01X5643829D01*
G01X5651500Y-1116635D01*
G01X5659171Y-1101293D01*
G01X5667807D01*
G01Y-1109929D01*
G01X5652465Y-1117600D01*
G01X5667807Y-1125271D01*
G01Y-1133907D01*
G01X5659171D01*
G01X5651500Y-1118565D01*
G01X5643829Y-1133907D01*
G01X5635193D01*
G01Y-1125271D01*
G01X5650535Y-1117600D01*
G01X5635193Y-1109929D01*
G01Y-1101293D01*
G01X5631536D01*
G01Y-1112164D01*
G01X5642458Y-1117600D01*
G01X5631536Y-1123036D01*
G01Y-1137564D01*
G01X5646064D01*
G01X5651500Y-1126642D01*
G01X5656936Y-1137564D01*
G01X5671464D01*
G01Y-1123036D01*
G01X5660542Y-1117600D01*
G01X5671464Y-1112164D01*
G01Y-1097636D01*
G01X5656936D01*
G01X5651500Y-1108558D01*
G01X5646064Y-1097636D01*
G37*
G36*
G01X546100Y-4336136D02*
G01X526186Y-4356100D01*
G01X530504D01*
G01X546100Y-4340504D01*
G01X561696Y-4356100D01*
G01X546100Y-4371696D01*
G01X530504Y-4356100D01*
G01X526186D01*
G01X546100Y-4376014D01*
G01X566064Y-4356100D01*
G37*
G36*
G01X787400Y-4336136D02*
G01X767486Y-4356100D01*
G01X771804D01*
G01X787400Y-4340504D01*
G01X802996Y-4356100D01*
G01X787400Y-4371696D01*
G01X771804Y-4356100D01*
G01X767486D01*
G01X787400Y-4376014D01*
G01X807364Y-4356100D01*
G37*
G36*
G01X3949700Y-5136236D02*
G01X3929786Y-5156200D01*
G01X3934104D01*
G01X3949700Y-5140604D01*
G01X3965296Y-5156200D01*
G01X3949700Y-5171796D01*
G01X3934104Y-5156200D01*
G01X3929786D01*
G01X3949700Y-5176114D01*
G01X3969664Y-5156200D01*
G37*
G36*
G01X3860800Y-1554836D02*
G01X3840886Y-1574800D01*
G01X3845204D01*
G01X3860800Y-1559204D01*
G01X3876396Y-1574800D01*
G01X3860800Y-1590396D01*
G01X3845204Y-1574800D01*
G01X3840886D01*
G01X3860800Y-1594714D01*
G01X3880764Y-1574800D01*
G37*
G36*
G01X3403600Y-2570836D02*
G01X3383686Y-2590800D01*
G01X3388004D01*
G01X3403600Y-2575204D01*
G01X3419196Y-2590800D01*
G01X3403600Y-2606396D01*
G01X3388004Y-2590800D01*
G01X3383686D01*
G01X3403600Y-2610714D01*
G01X3423564Y-2590800D01*
G37*
G36*
G01X2743200Y-5377536D02*
G01X2723286Y-5397500D01*
G01X2727604D01*
G01X2743200Y-5381904D01*
G01X2758796Y-5397500D01*
G01X2743200Y-5413096D01*
G01X2727604Y-5397500D01*
G01X2723286D01*
G01X2743200Y-5417414D01*
G01X2763164Y-5397500D01*
G37*
G36*
G01X3263900Y-5339436D02*
G01X3243986Y-5359400D01*
G01X3248304D01*
G01X3263900Y-5343804D01*
G01X3279496Y-5359400D01*
G01X3263900Y-5374996D01*
G01X3248304Y-5359400D01*
G01X3243986D01*
G01X3263900Y-5379314D01*
G01X3283864Y-5359400D01*
G37*
G36*
G01X2374900Y-1554836D02*
G01X2354986Y-1574800D01*
G01X2359304D01*
G01X2374900Y-1559204D01*
G01X2390496Y-1574800D01*
G01X2374900Y-1590396D01*
G01X2359304Y-1574800D01*
G01X2354986D01*
G01X2374900Y-1594714D01*
G01X2394864Y-1574800D01*
G37*
G36*
G01X3784600Y-1986636D02*
G01X3764686Y-2006600D01*
G01X3769004D01*
G01X3784600Y-1991004D01*
G01X3800196Y-2006600D01*
G01X3784600Y-2022196D01*
G01X3769004Y-2006600D01*
G01X3764686D01*
G01X3784600Y-2026514D01*
G01X3804564Y-2006600D01*
G37*
G36*
G01X4102100Y-1999336D02*
G01X4082186Y-2019300D01*
G01X4086504D01*
G01X4102100Y-2003704D01*
G01X4117696Y-2019300D01*
G01X4102100Y-2034896D01*
G01X4086504Y-2019300D01*
G01X4082186D01*
G01X4102100Y-2039214D01*
G01X4122064Y-2019300D01*
G37*
G36*
G01X3670300Y-1770736D02*
G01X3650386Y-1790700D01*
G01X3654704D01*
G01X3670300Y-1775104D01*
G01X3685896Y-1790700D01*
G01X3670300Y-1806296D01*
G01X3654704Y-1790700D01*
G01X3650386D01*
G01X3670300Y-1810614D01*
G01X3690264Y-1790700D01*
G37*
G36*
G01X3670300Y-1681836D02*
G01X3650386Y-1701800D01*
G01X3654704D01*
G01X3670300Y-1686204D01*
G01X3685896Y-1701800D01*
G01X3670300Y-1717396D01*
G01X3654704Y-1701800D01*
G01X3650386D01*
G01X3670300Y-1721714D01*
G01X3690264Y-1701800D01*
G37*
G36*
G01X4305300Y-1770736D02*
G01X4285386Y-1790700D01*
G01X4289704D01*
G01X4305300Y-1775104D01*
G01X4320896Y-1790700D01*
G01X4305300Y-1806296D01*
G01X4289704Y-1790700D01*
G01X4285386D01*
G01X4305300Y-1810614D01*
G01X4325264Y-1790700D01*
G37*
G36*
G01X4406900Y-1681836D02*
G01X4386986Y-1701800D01*
G01X4391304D01*
G01X4406900Y-1686204D01*
G01X4422496Y-1701800D01*
G01X4406900Y-1717396D01*
G01X4391304Y-1701800D01*
G01X4386986D01*
G01X4406900Y-1721714D01*
G01X4426864Y-1701800D01*
G37*
G36*
G01X2139137Y-1661262D02*
G01X2119224Y-1681226D01*
G01X2123542D01*
G01X2139137Y-1665630D01*
G01X2154733Y-1681226D01*
G01X2139137Y-1696822D01*
G01X2123542Y-1681226D01*
G01X2119224D01*
G01X2139137Y-1701140D01*
G01X2159102Y-1681226D01*
G37*
G36*
G01X2647137Y-4709262D02*
G01X2627224Y-4729226D01*
G01X2631542D01*
G01X2647137Y-4713630D01*
G01X2662733Y-4729226D01*
G01X2647137Y-4744822D01*
G01X2631542Y-4729226D01*
G01X2627224D01*
G01X2647137Y-4749140D01*
G01X2667102Y-4729226D01*
G37*
G36*
G01X88900Y-1199236D02*
G01X68986Y-1219200D01*
G01X73304D01*
G01X88900Y-1203604D01*
G01X104496Y-1219200D01*
G01X88900Y-1234796D01*
G01X73304Y-1219200D01*
G01X68986D01*
G01X88900Y-1239164D01*
G01X108864Y-1219200D01*
G37*
G36*
G01X107137Y-1661262D02*
G01X87224Y-1681226D01*
G01X91542D01*
G01X107137Y-1665630D01*
G01X122733Y-1681226D01*
G01X107137Y-1696822D01*
G01X91542Y-1681226D01*
G01X87224D01*
G01X107137Y-1701140D01*
G01X127102Y-1681226D01*
G37*
G36*
G01X107137Y-4201262D02*
G01X87224Y-4221226D01*
G01X91542D01*
G01X107137Y-4205630D01*
G01X122733Y-4221226D01*
G01X107137Y-4236822D01*
G01X91542Y-4221226D01*
G01X87224D01*
G01X107137Y-4241140D01*
G01X127102Y-4221226D01*
G37*
G36*
G01X107137Y-4709262D02*
G01X87224Y-4729226D01*
G01X91542D01*
G01X107137Y-4713630D01*
G01X122733Y-4729226D01*
G01X107137Y-4744822D01*
G01X91542Y-4729226D01*
G01X87224D01*
G01X107137Y-4749140D01*
G01X127102Y-4729226D01*
G37*
G36*
G01X635000Y-4806036D02*
G01X615086Y-4826000D01*
G01X619404D01*
G01X635000Y-4810404D01*
G01X650596Y-4826000D01*
G01X635000Y-4841596D01*
G01X619404Y-4826000D01*
G01X615086D01*
G01X635000Y-4845914D01*
G01X654914Y-4826000D01*
G37*
G36*
G01X1123137Y-137262D02*
G01X1103224Y-157226D01*
G01X1107542D01*
G01X1123137Y-141630D01*
G01X1138733Y-157226D01*
G01X1123137Y-172822D01*
G01X1107542Y-157226D01*
G01X1103224D01*
G01X1123137Y-177140D01*
G01X1143102Y-157226D01*
G37*
G36*
G01X1168400Y-665836D02*
G01X1148486Y-685800D01*
G01X1152804D01*
G01X1168400Y-670204D01*
G01X1183996Y-685800D01*
G01X1168400Y-701396D01*
G01X1152804Y-685800D01*
G01X1148486D01*
G01X1168400Y-705714D01*
G01X1188364Y-685800D01*
G37*
G36*
G01X1123137Y-3185262D02*
G01X1103224Y-3205226D01*
G01X1107542D01*
G01X1123137Y-3189630D01*
G01X1138733Y-3205226D01*
G01X1123137Y-3220822D01*
G01X1107542Y-3205226D01*
G01X1103224D01*
G01X1123137Y-3225140D01*
G01X1143102Y-3205226D01*
G37*
G36*
G01X1123137Y-3693262D02*
G01X1103224Y-3713226D01*
G01X1107542D01*
G01X1123137Y-3697630D01*
G01X1138733Y-3713226D01*
G01X1123137Y-3728822D01*
G01X1107542Y-3713226D01*
G01X1103224D01*
G01X1123137Y-3733140D01*
G01X1143102Y-3713226D01*
G37*
G36*
G01X1123137Y-4201262D02*
G01X1103224Y-4221226D01*
G01X1107542D01*
G01X1123137Y-4205630D01*
G01X1138733Y-4221226D01*
G01X1123137Y-4236822D01*
G01X1107542Y-4221226D01*
G01X1103224D01*
G01X1123137Y-4241140D01*
G01X1143102Y-4221226D01*
G37*
G36*
G01X1631137Y-137262D02*
G01X1611224Y-157226D01*
G01X1615542D01*
G01X1631137Y-141630D01*
G01X1646733Y-157226D01*
G01X1631137Y-172822D01*
G01X1615542Y-157226D01*
G01X1611224D01*
G01X1631137Y-177140D01*
G01X1651102Y-157226D01*
G37*
G36*
G01X1631137Y-645262D02*
G01X1611224Y-665226D01*
G01X1615542D01*
G01X1631137Y-649630D01*
G01X1646733Y-665226D01*
G01X1631137Y-680822D01*
G01X1615542Y-665226D01*
G01X1611224D01*
G01X1631137Y-685140D01*
G01X1651102Y-665226D01*
G37*
G36*
G01X1631137Y-1661262D02*
G01X1611224Y-1681226D01*
G01X1615542D01*
G01X1631137Y-1665630D01*
G01X1646733Y-1681226D01*
G01X1631137Y-1696822D01*
G01X1615542Y-1681226D01*
G01X1611224D01*
G01X1631137Y-1701140D01*
G01X1651102Y-1681226D01*
G37*
G36*
G01X1631137Y-2169262D02*
G01X1611224Y-2189226D01*
G01X1615542D01*
G01X1631137Y-2173630D01*
G01X1646733Y-2189226D01*
G01X1631137Y-2204822D01*
G01X1615542Y-2189226D01*
G01X1611224D01*
G01X1631137Y-2209140D01*
G01X1651102Y-2189226D01*
G37*
G36*
G01X1631137Y-3693262D02*
G01X1611224Y-3713226D01*
G01X1615542D01*
G01X1631137Y-3697630D01*
G01X1646733Y-3713226D01*
G01X1631137Y-3728822D01*
G01X1615542Y-3713226D01*
G01X1611224D01*
G01X1631137Y-3733140D01*
G01X1651102Y-3713226D01*
G37*
G36*
G01X1981200Y-3891636D02*
G01X1961286Y-3911600D01*
G01X1965604D01*
G01X1981200Y-3896004D01*
G01X1996796Y-3911600D01*
G01X1981200Y-3927196D01*
G01X1965604Y-3911600D01*
G01X1961286D01*
G01X1981200Y-3931514D01*
G01X2001164Y-3911600D01*
G37*
G36*
G01X2139137Y-137262D02*
G01X2119224Y-157226D01*
G01X2123542D01*
G01X2139137Y-141630D01*
G01X2154733Y-157226D01*
G01X2139137Y-172822D01*
G01X2123542Y-157226D01*
G01X2119224D01*
G01X2139137Y-177140D01*
G01X2159102Y-157226D01*
G37*
G36*
G01X2139137Y-645262D02*
G01X2119224Y-665226D01*
G01X2123542D01*
G01X2139137Y-649630D01*
G01X2154733Y-665226D01*
G01X2139137Y-680822D01*
G01X2123542Y-665226D01*
G01X2119224D01*
G01X2139137Y-685140D01*
G01X2159102Y-665226D01*
G37*
G36*
G01X2139137Y-2169262D02*
G01X2119224Y-2189226D01*
G01X2123542D01*
G01X2139137Y-2173630D01*
G01X2154733Y-2189226D01*
G01X2139137Y-2204822D01*
G01X2123542Y-2189226D01*
G01X2119224D01*
G01X2139137Y-2209140D01*
G01X2159102Y-2189226D01*
G37*
G36*
G01X2139137Y-2677262D02*
G01X2119224Y-2697226D01*
G01X2123542D01*
G01X2139137Y-2681630D01*
G01X2154733Y-2697226D01*
G01X2139137Y-2712822D01*
G01X2123542Y-2697226D01*
G01X2119224D01*
G01X2139137Y-2717140D01*
G01X2159102Y-2697226D01*
G37*
G36*
G01X2139137Y-3693262D02*
G01X2119224Y-3713226D01*
G01X2123542D01*
G01X2139137Y-3697630D01*
G01X2154733Y-3713226D01*
G01X2139137Y-3728822D01*
G01X2123542Y-3713226D01*
G01X2119224D01*
G01X2139137Y-3733140D01*
G01X2159102Y-3713226D01*
G37*
G36*
G01X1943100Y-4196436D02*
G01X1923186Y-4216400D01*
G01X1927504D01*
G01X1943100Y-4200804D01*
G01X1958696Y-4216400D01*
G01X1943100Y-4231996D01*
G01X1927504Y-4216400D01*
G01X1923186D01*
G01X1943100Y-4236314D01*
G01X1963064Y-4216400D01*
G37*
G36*
G01X2133600Y-5174336D02*
G01X2113686Y-5194300D01*
G01X2118004D01*
G01X2133600Y-5178704D01*
G01X2149196Y-5194300D01*
G01X2133600Y-5209896D01*
G01X2118004Y-5194300D01*
G01X2113686D01*
G01X2133600Y-5214214D01*
G01X2153564Y-5194300D01*
G37*
G36*
G01X2647137Y-137262D02*
G01X2627224Y-157226D01*
G01X2631542D01*
G01X2647137Y-141630D01*
G01X2662733Y-157226D01*
G01X2647137Y-172822D01*
G01X2631542Y-157226D01*
G01X2627224D01*
G01X2647137Y-177140D01*
G01X2667102Y-157226D01*
G37*
G36*
G01X2647137Y-645262D02*
G01X2627224Y-665226D01*
G01X2631542D01*
G01X2647137Y-649630D01*
G01X2662733Y-665226D01*
G01X2647137Y-680822D01*
G01X2631542Y-665226D01*
G01X2627224D01*
G01X2647137Y-685140D01*
G01X2667102Y-665226D01*
G37*
G36*
G01X2647137Y-1661262D02*
G01X2627224Y-1681226D01*
G01X2631542D01*
G01X2647137Y-1665630D01*
G01X2662733Y-1681226D01*
G01X2647137Y-1696822D01*
G01X2631542Y-1681226D01*
G01X2627224D01*
G01X2647137Y-1701140D01*
G01X2667102Y-1681226D01*
G37*
G36*
G01X2647137Y-2169262D02*
G01X2627224Y-2189226D01*
G01X2631542D01*
G01X2647137Y-2173630D01*
G01X2662733Y-2189226D01*
G01X2647137Y-2204822D01*
G01X2631542Y-2189226D01*
G01X2627224D01*
G01X2647137Y-2209140D01*
G01X2667102Y-2189226D01*
G37*
G36*
G01X2527300Y-2799436D02*
G01X2507386Y-2819400D01*
G01X2511704D01*
G01X2527300Y-2803804D01*
G01X2542896Y-2819400D01*
G01X2527300Y-2834996D01*
G01X2511704Y-2819400D01*
G01X2507386D01*
G01X2527300Y-2839314D01*
G01X2547264Y-2819400D01*
G37*
G36*
G01X2647137Y-3185262D02*
G01X2627224Y-3205226D01*
G01X2631542D01*
G01X2647137Y-3189630D01*
G01X2662733Y-3205226D01*
G01X2647137Y-3220822D01*
G01X2631542Y-3205226D01*
G01X2627224D01*
G01X2647137Y-3225140D01*
G01X2667102Y-3205226D01*
G37*
G36*
G01X2647137Y-4201262D02*
G01X2627224Y-4221226D01*
G01X2631542D01*
G01X2647137Y-4205630D01*
G01X2662733Y-4221226D01*
G01X2647137Y-4236822D01*
G01X2631542Y-4221226D01*
G01X2627224D01*
G01X2647137Y-4241140D01*
G01X2667102Y-4221226D01*
G37*
G36*
G01X3155137Y-137262D02*
G01X3135224Y-157226D01*
G01X3139542D01*
G01X3155137Y-141630D01*
G01X3170733Y-157226D01*
G01X3155137Y-172822D01*
G01X3139542Y-157226D01*
G01X3135224D01*
G01X3155137Y-177140D01*
G01X3175102Y-157226D01*
G37*
G36*
G01X3155137Y-645262D02*
G01X3135224Y-665226D01*
G01X3139542D01*
G01X3155137Y-649630D01*
G01X3170733Y-665226D01*
G01X3155137Y-680822D01*
G01X3139542Y-665226D01*
G01X3135224D01*
G01X3155137Y-685140D01*
G01X3175102Y-665226D01*
G37*
G36*
G01X3155137Y-1661262D02*
G01X3135224Y-1681226D01*
G01X3139542D01*
G01X3155137Y-1665630D01*
G01X3170733Y-1681226D01*
G01X3155137Y-1696822D01*
G01X3139542Y-1681226D01*
G01X3135224D01*
G01X3155137Y-1701140D01*
G01X3175102Y-1681226D01*
G37*
G36*
G01X2984500Y-2469236D02*
G01X2964586Y-2489200D01*
G01X2968904D01*
G01X2984500Y-2473604D01*
G01X3000096Y-2489200D01*
G01X2984500Y-2504796D01*
G01X2968904Y-2489200D01*
G01X2964586D01*
G01X2984500Y-2509114D01*
G01X3004464Y-2489200D01*
G37*
G36*
G01X3155137Y-3185262D02*
G01X3135224Y-3205226D01*
G01X3139542D01*
G01X3155137Y-3189630D01*
G01X3170733Y-3205226D01*
G01X3155137Y-3220822D01*
G01X3139542Y-3205226D01*
G01X3135224D01*
G01X3155137Y-3225140D01*
G01X3175102Y-3205226D01*
G37*
G36*
G01X3155137Y-3693262D02*
G01X3135224Y-3713226D01*
G01X3139542D01*
G01X3155137Y-3697630D01*
G01X3170733Y-3713226D01*
G01X3155137Y-3728822D01*
G01X3139542Y-3713226D01*
G01X3135224D01*
G01X3155137Y-3733140D01*
G01X3175102Y-3713226D01*
G37*
G36*
G01X3663137Y-137262D02*
G01X3643224Y-157226D01*
G01X3647542D01*
G01X3663137Y-141630D01*
G01X3678733Y-157226D01*
G01X3663137Y-172822D01*
G01X3647542Y-157226D01*
G01X3643224D01*
G01X3663137Y-177140D01*
G01X3683102Y-157226D01*
G37*
G36*
G01X3663137Y-645262D02*
G01X3643224Y-665226D01*
G01X3647542D01*
G01X3663137Y-649630D01*
G01X3678733Y-665226D01*
G01X3663137Y-680822D01*
G01X3647542Y-665226D01*
G01X3643224D01*
G01X3663137Y-685140D01*
G01X3683102Y-665226D01*
G37*
G36*
G01X3479800Y-2139036D02*
G01X3459886Y-2159000D01*
G01X3464204D01*
G01X3479800Y-2143404D01*
G01X3495396Y-2159000D01*
G01X3479800Y-2174596D01*
G01X3464204Y-2159000D01*
G01X3459886D01*
G01X3479800Y-2178914D01*
G01X3499764Y-2159000D01*
G37*
G36*
G01X3663137Y-5217262D02*
G01X3643224Y-5237226D01*
G01X3647542D01*
G01X3663137Y-5221630D01*
G01X3678733Y-5237226D01*
G01X3663137Y-5252822D01*
G01X3647542Y-5237226D01*
G01X3643224D01*
G01X3663137Y-5257140D01*
G01X3683102Y-5237226D01*
G37*
G36*
G01X4171137Y-137262D02*
G01X4151224Y-157226D01*
G01X4155542D01*
G01X4171137Y-141630D01*
G01X4186733Y-157226D01*
G01X4171137Y-172822D01*
G01X4155542Y-157226D01*
G01X4151224D01*
G01X4171137Y-177140D01*
G01X4191102Y-157226D01*
G37*
G36*
G01X4171137Y-645262D02*
G01X4151224Y-665226D01*
G01X4155542D01*
G01X4171137Y-649630D01*
G01X4186733Y-665226D01*
G01X4171137Y-680822D01*
G01X4155542Y-665226D01*
G01X4151224D01*
G01X4171137Y-685140D01*
G01X4191102Y-665226D01*
G37*
G36*
G01X4171137Y-3185262D02*
G01X4151224Y-3205226D01*
G01X4155542D01*
G01X4171137Y-3189630D01*
G01X4186733Y-3205226D01*
G01X4171137Y-3220822D01*
G01X4155542Y-3205226D01*
G01X4151224D01*
G01X4171137Y-3225140D01*
G01X4191102Y-3205226D01*
G37*
G36*
G01X4171137Y-3693262D02*
G01X4151224Y-3713226D01*
G01X4155542D01*
G01X4171137Y-3697630D01*
G01X4186733Y-3713226D01*
G01X4171137Y-3728822D01*
G01X4155542Y-3713226D01*
G01X4151224D01*
G01X4171137Y-3733140D01*
G01X4191102Y-3713226D01*
G37*
G36*
G01X4171137Y-4201262D02*
G01X4151224Y-4221226D01*
G01X4155542D01*
G01X4171137Y-4205630D01*
G01X4186733Y-4221226D01*
G01X4171137Y-4236822D01*
G01X4155542Y-4221226D01*
G01X4151224D01*
G01X4171137Y-4241140D01*
G01X4191102Y-4221226D01*
G37*
G36*
G01X4171137Y-4709262D02*
G01X4151224Y-4729226D01*
G01X4155542D01*
G01X4171137Y-4713630D01*
G01X4186733Y-4729226D01*
G01X4171137Y-4744822D01*
G01X4155542Y-4729226D01*
G01X4151224D01*
G01X4171137Y-4749140D01*
G01X4191102Y-4729226D01*
G37*
G36*
G01X4679137Y-137262D02*
G01X4659224Y-157226D01*
G01X4663542D01*
G01X4679137Y-141630D01*
G01X4694733Y-157226D01*
G01X4679137Y-172822D01*
G01X4663542Y-157226D01*
G01X4659224D01*
G01X4679137Y-177140D01*
G01X4699102Y-157226D01*
G37*
G36*
G01X4679137Y-645262D02*
G01X4659224Y-665226D01*
G01X4663542D01*
G01X4679137Y-649630D01*
G01X4694733Y-665226D01*
G01X4679137Y-680822D01*
G01X4663542Y-665226D01*
G01X4659224D01*
G01X4679137Y-685140D01*
G01X4699102Y-665226D01*
G37*
G36*
G01X4679137Y-2169262D02*
G01X4659224Y-2189226D01*
G01X4663542D01*
G01X4679137Y-2173630D01*
G01X4694733Y-2189226D01*
G01X4679137Y-2204822D01*
G01X4663542Y-2189226D01*
G01X4659224D01*
G01X4679137Y-2209140D01*
G01X4699102Y-2189226D01*
G37*
G36*
G01X4679137Y-2677262D02*
G01X4659224Y-2697226D01*
G01X4663542D01*
G01X4679137Y-2681630D01*
G01X4694733Y-2697226D01*
G01X4679137Y-2712822D01*
G01X4663542Y-2697226D01*
G01X4659224D01*
G01X4679137Y-2717140D01*
G01X4699102Y-2697226D01*
G37*
G36*
G01X4679137Y-3185262D02*
G01X4659224Y-3205226D01*
G01X4663542D01*
G01X4679137Y-3189630D01*
G01X4694733Y-3205226D01*
G01X4679137Y-3220822D01*
G01X4663542Y-3205226D01*
G01X4659224D01*
G01X4679137Y-3225140D01*
G01X4699102Y-3205226D01*
G37*
G36*
G01X5187137Y-137262D02*
G01X5167224Y-157226D01*
G01X5171542D01*
G01X5187137Y-141630D01*
G01X5202733Y-157226D01*
G01X5187137Y-172822D01*
G01X5171542Y-157226D01*
G01X5167224D01*
G01X5187137Y-177140D01*
G01X5207102Y-157226D01*
G37*
G36*
G01X5187137Y-645262D02*
G01X5167224Y-665226D01*
G01X5171542D01*
G01X5187137Y-649630D01*
G01X5202733Y-665226D01*
G01X5187137Y-680822D01*
G01X5171542Y-665226D01*
G01X5167224D01*
G01X5187137Y-685140D01*
G01X5207102Y-665226D01*
G37*
G36*
G01X5187137Y-1661262D02*
G01X5167224Y-1681226D01*
G01X5171542D01*
G01X5187137Y-1665630D01*
G01X5202733Y-1681226D01*
G01X5187137Y-1696822D01*
G01X5171542Y-1681226D01*
G01X5167224D01*
G01X5187137Y-1701140D01*
G01X5207102Y-1681226D01*
G37*
G36*
G01X5187137Y-2169262D02*
G01X5167224Y-2189226D01*
G01X5171542D01*
G01X5187137Y-2173630D01*
G01X5202733Y-2189226D01*
G01X5187137Y-2204822D01*
G01X5171542Y-2189226D01*
G01X5167224D01*
G01X5187137Y-2209140D01*
G01X5207102Y-2189226D01*
G37*
G36*
G01X5187137Y-2677262D02*
G01X5167224Y-2697226D01*
G01X5171542D01*
G01X5187137Y-2681630D01*
G01X5202733Y-2697226D01*
G01X5187137Y-2712822D01*
G01X5171542Y-2697226D01*
G01X5167224D01*
G01X5187137Y-2717140D01*
G01X5207102Y-2697226D01*
G37*
G36*
G01X5187137Y-3185262D02*
G01X5167224Y-3205226D01*
G01X5171542D01*
G01X5187137Y-3189630D01*
G01X5202733Y-3205226D01*
G01X5187137Y-3220822D01*
G01X5171542Y-3205226D01*
G01X5167224D01*
G01X5187137Y-3225140D01*
G01X5207102Y-3205226D01*
G37*
G36*
G01X5187137Y-3693262D02*
G01X5167224Y-3713226D01*
G01X5171542D01*
G01X5187137Y-3697630D01*
G01X5202733Y-3713226D01*
G01X5187137Y-3728822D01*
G01X5171542Y-3713226D01*
G01X5167224D01*
G01X5187137Y-3733140D01*
G01X5207102Y-3713226D01*
G37*
G36*
G01X5187137Y-4201262D02*
G01X5167224Y-4221226D01*
G01X5171542D01*
G01X5187137Y-4205630D01*
G01X5202733Y-4221226D01*
G01X5187137Y-4236822D01*
G01X5171542Y-4221226D01*
G01X5167224D01*
G01X5187137Y-4241140D01*
G01X5207102Y-4221226D01*
G37*
G36*
G01X5187137Y-4709262D02*
G01X5167224Y-4729226D01*
G01X5171542D01*
G01X5187137Y-4713630D01*
G01X5202733Y-4729226D01*
G01X5187137Y-4744822D01*
G01X5171542Y-4729226D01*
G01X5167224D01*
G01X5187137Y-4749140D01*
G01X5207102Y-4729226D01*
G37*
G36*
G01X5187137Y-5217262D02*
G01X5167224Y-5237226D01*
G01X5171542D01*
G01X5187137Y-5221630D01*
G01X5202733Y-5237226D01*
G01X5187137Y-5252822D01*
G01X5171542Y-5237226D01*
G01X5167224D01*
G01X5187137Y-5257140D01*
G01X5207102Y-5237226D01*
G37*
G36*
G01X5695137Y-137262D02*
G01X5675224Y-157226D01*
G01X5679542D01*
G01X5695137Y-141630D01*
G01X5710733Y-157226D01*
G01X5695137Y-172822D01*
G01X5679542Y-157226D01*
G01X5675224D01*
G01X5695137Y-177140D01*
G01X5715102Y-157226D01*
G37*
G36*
G01X5695137Y-645262D02*
G01X5675224Y-665226D01*
G01X5679542D01*
G01X5695137Y-649630D01*
G01X5710733Y-665226D01*
G01X5695137Y-680822D01*
G01X5679542Y-665226D01*
G01X5675224D01*
G01X5695137Y-685140D01*
G01X5715102Y-665226D01*
G37*
G36*
G01X5695137Y-1661262D02*
G01X5675224Y-1681226D01*
G01X5679542D01*
G01X5695137Y-1665630D01*
G01X5710733Y-1681226D01*
G01X5695137Y-1696822D01*
G01X5679542Y-1681226D01*
G01X5675224D01*
G01X5695137Y-1701140D01*
G01X5715102Y-1681226D01*
G37*
G36*
G01X5695137Y-2677262D02*
G01X5675224Y-2697226D01*
G01X5679542D01*
G01X5695137Y-2681630D01*
G01X5710733Y-2697226D01*
G01X5695137Y-2712822D01*
G01X5679542Y-2697226D01*
G01X5675224D01*
G01X5695137Y-2717140D01*
G01X5715102Y-2697226D01*
G37*
G36*
G01X5695137Y-3185262D02*
G01X5675224Y-3205226D01*
G01X5679542D01*
G01X5695137Y-3189630D01*
G01X5710733Y-3205226D01*
G01X5695137Y-3220822D01*
G01X5679542Y-3205226D01*
G01X5675224D01*
G01X5695137Y-3225140D01*
G01X5715102Y-3205226D01*
G37*
G36*
G01X5695137Y-3693262D02*
G01X5675224Y-3713226D01*
G01X5679542D01*
G01X5695137Y-3697630D01*
G01X5710733Y-3713226D01*
G01X5695137Y-3728822D01*
G01X5679542Y-3713226D01*
G01X5675224D01*
G01X5695137Y-3733140D01*
G01X5715102Y-3713226D01*
G37*
G36*
G01X5695137Y-4201262D02*
G01X5675224Y-4221226D01*
G01X5679542D01*
G01X5695137Y-4205630D01*
G01X5710733Y-4221226D01*
G01X5695137Y-4236822D01*
G01X5679542Y-4221226D01*
G01X5675224D01*
G01X5695137Y-4241140D01*
G01X5715102Y-4221226D01*
G37*
G36*
G01X5695137Y-4709262D02*
G01X5675224Y-4729226D01*
G01X5679542D01*
G01X5695137Y-4713630D01*
G01X5710733Y-4729226D01*
G01X5695137Y-4744822D01*
G01X5679542Y-4729226D01*
G01X5675224D01*
G01X5695137Y-4749140D01*
G01X5715102Y-4729226D01*
G37*
G36*
G01X5695137Y-5217262D02*
G01X5675224Y-5237226D01*
G01X5679542D01*
G01X5695137Y-5221630D01*
G01X5710733Y-5237226D01*
G01X5695137Y-5252822D01*
G01X5679542Y-5237226D01*
G01X5675224D01*
G01X5695137Y-5257140D01*
G01X5715102Y-5237226D01*
G37*
G36*
G01X6203137Y-1153262D02*
G01X6183224Y-1173226D01*
G01X6187542D01*
G01X6203137Y-1157630D01*
G01X6218733Y-1173226D01*
G01X6203137Y-1188822D01*
G01X6187542Y-1173226D01*
G01X6183224D01*
G01X6203137Y-1193140D01*
G01X6223102Y-1173226D01*
G37*
G36*
G01X6203137Y-1661262D02*
G01X6183224Y-1681226D01*
G01X6187542D01*
G01X6203137Y-1665630D01*
G01X6218733Y-1681226D01*
G01X6203137Y-1696822D01*
G01X6187542Y-1681226D01*
G01X6183224D01*
G01X6203137Y-1701140D01*
G01X6223102Y-1681226D01*
G37*
G36*
G01X6203137Y-2169262D02*
G01X6183224Y-2189226D01*
G01X6187542D01*
G01X6203137Y-2173630D01*
G01X6218733Y-2189226D01*
G01X6203137Y-2204822D01*
G01X6187542Y-2189226D01*
G01X6183224D01*
G01X6203137Y-2209140D01*
G01X6223102Y-2189226D01*
G37*
G36*
G01X6203137Y-2677262D02*
G01X6183224Y-2697226D01*
G01X6187542D01*
G01X6203137Y-2681630D01*
G01X6218733Y-2697226D01*
G01X6203137Y-2712822D01*
G01X6187542Y-2697226D01*
G01X6183224D01*
G01X6203137Y-2717140D01*
G01X6223102Y-2697226D01*
G37*
G36*
G01X6203137Y-3185262D02*
G01X6183224Y-3205226D01*
G01X6187542D01*
G01X6203137Y-3189630D01*
G01X6218733Y-3205226D01*
G01X6203137Y-3220822D01*
G01X6187542Y-3205226D01*
G01X6183224D01*
G01X6203137Y-3225140D01*
G01X6223102Y-3205226D01*
G37*
G36*
G01X6203137Y-3693262D02*
G01X6183224Y-3713226D01*
G01X6187542D01*
G01X6203137Y-3697630D01*
G01X6218733Y-3713226D01*
G01X6203137Y-3728822D01*
G01X6187542Y-3713226D01*
G01X6183224D01*
G01X6203137Y-3733140D01*
G01X6223102Y-3713226D01*
G37*
G36*
G01X6203137Y-4201262D02*
G01X6183224Y-4221226D01*
G01X6187542D01*
G01X6203137Y-4205630D01*
G01X6218733Y-4221226D01*
G01X6203137Y-4236822D01*
G01X6187542Y-4221226D01*
G01X6183224D01*
G01X6203137Y-4241140D01*
G01X6223102Y-4221226D01*
G37*
G36*
G01X6203137Y-4709262D02*
G01X6183224Y-4729226D01*
G01X6187542D01*
G01X6203137Y-4713630D01*
G01X6218733Y-4729226D01*
G01X6203137Y-4744822D01*
G01X6187542Y-4729226D01*
G01X6183224D01*
G01X6203137Y-4749140D01*
G01X6223102Y-4729226D01*
G37*
G36*
G01X1549400Y-3332836D02*
G01X1529486Y-3352800D01*
G01X1533804D01*
G01X1549400Y-3337204D01*
G01X1564996Y-3352800D01*
G01X1549400Y-3368396D01*
G01X1533804Y-3352800D01*
G01X1529486D01*
G01X1549400Y-3372714D01*
G01X1569364Y-3352800D01*
G37*
G36*
G01X3340100Y-3116936D02*
G01X3320186Y-3136900D01*
G01X3324504D01*
G01X3340100Y-3121304D01*
G01X3355696Y-3136900D01*
G01X3340100Y-3152496D01*
G01X3324504Y-3136900D01*
G01X3320186D01*
G01X3340100Y-3156814D01*
G01X3360064Y-3136900D01*
G37*
G36*
G01X3848100Y-2875636D02*
G01X3828186Y-2895600D01*
G01X3832504D01*
G01X3848100Y-2880004D01*
G01X3863696Y-2895600D01*
G01X3848100Y-2911196D01*
G01X3832504Y-2895600D01*
G01X3828186D01*
G01X3848100Y-2915514D01*
G01X3868064Y-2895600D01*
G37*
G36*
G01X4064000Y-2850236D02*
G01X4044086Y-2870200D01*
G01X4048404D01*
G01X4064000Y-2854604D01*
G01X4079596Y-2870200D01*
G01X4064000Y-2885796D01*
G01X4048404Y-2870200D01*
G01X4044086D01*
G01X4064000Y-2890114D01*
G01X4083964Y-2870200D01*
G37*
G36*
G01X1435100Y-4628236D02*
G01X1415186Y-4648200D01*
G01X1419504D01*
G01X1435100Y-4632604D01*
G01X1450696Y-4648200D01*
G01X1435100Y-4663796D01*
G01X1419504Y-4648200D01*
G01X1415186D01*
G01X1435100Y-4668114D01*
G01X1455064Y-4648200D01*
G37*
G36*
G01X1244600Y-4818736D02*
G01X1224686Y-4838700D01*
G01X1229004D01*
G01X1244600Y-4823104D01*
G01X1260196Y-4838700D01*
G01X1244600Y-4854296D01*
G01X1229004Y-4838700D01*
G01X1224686D01*
G01X1244600Y-4858614D01*
G01X1264564Y-4838700D01*
G37*
G36*
G01X1244600Y-4996536D02*
G01X1224686Y-5016500D01*
G01X1229004D01*
G01X1244600Y-5000904D01*
G01X1260196Y-5016500D01*
G01X1244600Y-5032096D01*
G01X1229004Y-5016500D01*
G01X1224686D01*
G01X1244600Y-5036414D01*
G01X1264564Y-5016500D01*
G37*
G36*
G01X1244600Y-5174336D02*
G01X1224686Y-5194300D01*
G01X1229004D01*
G01X1244600Y-5178704D01*
G01X1260196Y-5194300D01*
G01X1244600Y-5209896D01*
G01X1229004Y-5194300D01*
G01X1224686D01*
G01X1244600Y-5214214D01*
G01X1264564Y-5194300D01*
G37*
G36*
G01X1244600Y-5377536D02*
G01X1224686Y-5397500D01*
G01X1229004D01*
G01X1244600Y-5381904D01*
G01X1260196Y-5397500D01*
G01X1244600Y-5413096D01*
G01X1229004Y-5397500D01*
G01X1224686D01*
G01X1244600Y-5417414D01*
G01X1264564Y-5397500D01*
G37*
G36*
G01X1244600Y-5555336D02*
G01X1224686Y-5575300D01*
G01X1229004D01*
G01X1244600Y-5559704D01*
G01X1260196Y-5575300D01*
G01X1244600Y-5590896D01*
G01X1229004Y-5575300D01*
G01X1224686D01*
G01X1244600Y-5595214D01*
G01X1264564Y-5575300D01*
G37*
G36*
G01X2133600Y-5377536D02*
G01X2113686Y-5397500D01*
G01X2118004D01*
G01X2133600Y-5381904D01*
G01X2149196Y-5397500D01*
G01X2133600Y-5413096D01*
G01X2118004Y-5397500D01*
G01X2113686D01*
G01X2133600Y-5417414D01*
G01X2153564Y-5397500D01*
G37*
G36*
G01X1320800Y-4348836D02*
G01X1300886Y-4368800D01*
G01X1305204D01*
G01X1320800Y-4353204D01*
G01X1336396Y-4368800D01*
G01X1320800Y-4384396D01*
G01X1305204Y-4368800D01*
G01X1300886D01*
G01X1320800Y-4388714D01*
G01X1340764Y-4368800D01*
G37*
G36*
G01X2209800Y-4107536D02*
G01X2189886Y-4127500D01*
G01X2194204D01*
G01X2209800Y-4111904D01*
G01X2225396Y-4127500D01*
G01X2209800Y-4143096D01*
G01X2194204Y-4127500D01*
G01X2189886D01*
G01X2209800Y-4147414D01*
G01X2229764Y-4127500D01*
G37*
G36*
G01X2133600Y-5542636D02*
G01X2113686Y-5562600D01*
G01X2118004D01*
G01X2133600Y-5547004D01*
G01X2149196Y-5562600D01*
G01X2133600Y-5578196D01*
G01X2118004Y-5562600D01*
G01X2113686D01*
G01X2133600Y-5582514D01*
G01X2153564Y-5562600D01*
G37*
G36*
G01X1663700Y-4412336D02*
G01X1643786Y-4432300D01*
G01X1648104D01*
G01X1663700Y-4416704D01*
G01X1679296Y-4432300D01*
G01X1663700Y-4447896D01*
G01X1648104Y-4432300D01*
G01X1643786D01*
G01X1663700Y-4452214D01*
G01X1683664Y-4432300D01*
G37*
G36*
G01X3733800Y-2570836D02*
G01X3713886Y-2590800D01*
G01X3718204D01*
G01X3733800Y-2575204D01*
G01X3749396Y-2590800D01*
G01X3733800Y-2606396D01*
G01X3718204Y-2590800D01*
G01X3713886D01*
G01X3733800Y-2610714D01*
G01X3753764Y-2590800D01*
G37*
G36*
G01X4284116Y-2212645D02*
G01X4264203Y-2232609D01*
G01X4268521D01*
G01X4284116Y-2217014D01*
G01X4299763Y-2232609D01*
G01X4284116Y-2248205D01*
G01X4268521Y-2232609D01*
G01X4264203D01*
G01X4284116Y-2252523D01*
G01X4304081Y-2232609D01*
G37*
G36*
G01X3771900Y-2304136D02*
G01X3751986Y-2324100D01*
G01X3756304D01*
G01X3771900Y-2308504D01*
G01X3787496Y-2324100D01*
G01X3771900Y-2339696D01*
G01X3756304Y-2324100D01*
G01X3751986D01*
G01X3771900Y-2344014D01*
G01X3791864Y-2324100D01*
G37*
G36*
G01X1244600Y-4628236D02*
G01X1224686Y-4648200D01*
G01X1229004D01*
G01X1244600Y-4632604D01*
G01X1260196Y-4648200D01*
G01X1244600Y-4663796D01*
G01X1229004Y-4648200D01*
G01X1224686D01*
G01X1244600Y-4668114D01*
G01X1264564Y-4648200D01*
G37*
G36*
G01X1727200Y-4640936D02*
G01X1707286Y-4660900D01*
G01X1711604D01*
G01X1727200Y-4645304D01*
G01X1742796Y-4660900D01*
G01X1727200Y-4676496D01*
G01X1711604Y-4660900D01*
G01X1707286D01*
G01X1727200Y-4680814D01*
G01X1747164Y-4660900D01*
G37*
G36*
G01X2095500Y-4437736D02*
G01X2075586Y-4457700D01*
G01X2079904D01*
G01X2095500Y-4442104D01*
G01X2111096Y-4457700D01*
G01X2095500Y-4473296D01*
G01X2079904Y-4457700D01*
G01X2075586D01*
G01X2095500Y-4477614D01*
G01X2115464Y-4457700D01*
G37*
G36*
G01X2273249Y-4437736D02*
G01X2253285Y-4457700D01*
G01X2257654D01*
G01X2273249Y-4442104D01*
G01X2288845Y-4457700D01*
G01X2273249Y-4473296D01*
G01X2257654Y-4457700D01*
G01X2253285D01*
G01X2273249Y-4477614D01*
G01X2293163Y-4457700D01*
G37*
G36*
G01X2273249Y-4639716D02*
G01X2253285Y-4659681D01*
G01X2257654D01*
G01X2273249Y-4644034D01*
G01X2288845Y-4659681D01*
G01X2273249Y-4675276D01*
G01X2257654Y-4659681D01*
G01X2253285D01*
G01X2273249Y-4679594D01*
G01X2293163Y-4659681D01*
G37*
G36*
G01X2260600Y-4818736D02*
G01X2240686Y-4838700D01*
G01X2245004D01*
G01X2260600Y-4823104D01*
G01X2276196Y-4838700D01*
G01X2260600Y-4854296D01*
G01X2245004Y-4838700D01*
G01X2240686D01*
G01X2260600Y-4858614D01*
G01X2280564Y-4838700D01*
G37*
G36*
G01X2260600Y-4983836D02*
G01X2240686Y-5003800D01*
G01X2245004D01*
G01X2260600Y-4988204D01*
G01X2276196Y-5003800D01*
G01X2260600Y-5019396D01*
G01X2245004Y-5003800D01*
G01X2240686D01*
G01X2260600Y-5023714D01*
G01X2280564Y-5003800D01*
G37*
G36*
G01X2136902Y-4996536D02*
G01X2116938Y-5016500D01*
G01X2121306D01*
G01X2136902Y-5000904D01*
G01X2152498Y-5016500D01*
G01X2136902Y-5032096D01*
G01X2121306Y-5016500D01*
G01X2116938D01*
G01X2136902Y-5036414D01*
G01X2156816Y-5016500D01*
G37*
G36*
G01X1790700Y-4894936D02*
G01X1770786Y-4914900D01*
G01X1775104D01*
G01X1790700Y-4899304D01*
G01X1806296Y-4914900D01*
G01X1790700Y-4930496D01*
G01X1775104Y-4914900D01*
G01X1770786D01*
G01X1790700Y-4934814D01*
G01X1810664Y-4914900D01*
G37*
G36*
G01X1701800Y-5491836D02*
G01X1681886Y-5511800D01*
G01X1686204D01*
G01X1701800Y-5496204D01*
G01X1717396Y-5511800D01*
G01X1701800Y-5527396D01*
G01X1686204Y-5511800D01*
G01X1681886D01*
G01X1701800Y-5531714D01*
G01X1721764Y-5511800D01*
G37*
G36*
G01X1600200Y-5491836D02*
G01X1580286Y-5511800D01*
G01X1584604D01*
G01X1600200Y-5496204D01*
G01X1615796Y-5511800D01*
G01X1600200Y-5527396D01*
G01X1584604Y-5511800D01*
G01X1580286D01*
G01X1600200Y-5531714D01*
G01X1620164Y-5511800D01*
G37*
G36*
G01X1917700Y-5517236D02*
G01X1897786Y-5537200D01*
G01X1902104D01*
G01X1917700Y-5521604D01*
G01X1933296Y-5537200D01*
G01X1917700Y-5552796D01*
G01X1902104Y-5537200D01*
G01X1897786D01*
G01X1917700Y-5557114D01*
G01X1937664Y-5537200D01*
G37*
G36*
G01X1816100Y-5352136D02*
G01X1796186Y-5372100D01*
G01X1800504D01*
G01X1816100Y-5356504D01*
G01X1831696Y-5372100D01*
G01X1816100Y-5387696D01*
G01X1800504Y-5372100D01*
G01X1796186D01*
G01X1816100Y-5392014D01*
G01X1836064Y-5372100D01*
G37*
G04 Image End*
G54D10*

M02*
