G04 Layer: TopPasteMaskLayer*
G04 EasyEDA Pro v2.1.49.573a4102.674264, 2024-02-19 19:22:48*
G04 Gerber Generator version 0.3*
G04 Scale: 100 percent, Rotated: No, Reflected: No*
G04 Dimensions in millimeters*
G04 Leading zeros omitted, absolute positions, 3 integers and 5 decimals*
%FSLAX35Y35*%
%MOMM*%
%AMOval*1,1,$1,$2,$3*1,1,$1,$4,$5*20,1,$1,$2,$3,$4,$5,0*%
%ADD10C,0.5*%
%ADD11R,0.59995X2.2*%
%ADD12R,1.8X2.59999*%
%ADD13R,0.8X0.9*%
%ADD14R,0.9X0.8*%
%ADD15R,0.8X0.9*%
%ADD16O,0.905X0.28001*%
%ADD17O,0.28001X1.62001*%
%ADD18R,1.0X0.6*%
%ADD19R,0.9X0.8*%
%ADD20Oval,0.4X0.4X0.0X-0.4X0.0*%
G75*


G04 PolygonModel Start*
G36*
G01X2046158Y-5197497D02*
G01X2046158Y-5117497D01*
G01X2041157Y-5112495D01*
G01X2018360D01*
G01Y-5149496D01*
G01X1985361D01*
G01Y-5112495D01*
G01X1961157D01*
G01X1956158Y-5117497D01*
G01Y-5197497D01*
G01X1961157Y-5202495D01*
G01X2041157D01*
G01X2046158Y-5197497D01*
G37*
G36*
G01X2041157Y-5042496D02*
G01X2018360Y-5042496D01*
G01Y-5004497D01*
G01X1985361D01*
G01Y-5042496D01*
G01X1961157D01*
G01X1956158Y-5037497D01*
G01Y-4958498D01*
G01X1961157Y-4953497D01*
G01X2041157D01*
G01X2046158Y-4958498D01*
G01Y-5037497D01*
G01X2041157Y-5042496D01*
G37*
G36*
G01X1452667Y-4270626D02*
G01X1452667Y-4190627D01*
G01X1447665Y-4185625D01*
G01X1424869D01*
G01Y-4222626D01*
G01X1391869D01*
G01Y-4185625D01*
G01X1367666D01*
G01X1362667Y-4190627D01*
G01Y-4270626D01*
G01X1367666Y-4275625D01*
G01X1447665D01*
G01X1452667Y-4270626D01*
G37*
G36*
G01X1447665Y-4115625D02*
G01X1424869Y-4115625D01*
G01Y-4077627D01*
G01X1391869D01*
G01Y-4115625D01*
G01X1367666D01*
G01X1362667Y-4110627D01*
G01Y-4031628D01*
G01X1367666Y-4026626D01*
G01X1447665D01*
G01X1452667Y-4031628D01*
G01Y-4110627D01*
G01X1447665Y-4115625D01*
G37*
G36*
G01X1617124Y-4270626D02*
G01X1617124Y-4190627D01*
G01X1612123Y-4185625D01*
G01X1589326D01*
G01Y-4222626D01*
G01X1556327D01*
G01Y-4185625D01*
G01X1532123D01*
G01X1527124Y-4190627D01*
G01Y-4270626D01*
G01X1532123Y-4275625D01*
G01X1612123D01*
G01X1617124Y-4270626D01*
G37*
G36*
G01X1612123Y-4115625D02*
G01X1589326Y-4115625D01*
G01Y-4077627D01*
G01X1556327D01*
G01Y-4115625D01*
G01X1532123D01*
G01X1527124Y-4110627D01*
G01Y-4031628D01*
G01X1532123Y-4026626D01*
G01X1612123D01*
G01X1617124Y-4031628D01*
G01Y-4110627D01*
G01X1612123Y-4115625D01*
G37*
G36*
G01X2051599Y-5567802D02*
G01X2051599Y-5487802D01*
G01X2046597Y-5482801D01*
G01X2023801D01*
G01Y-5519801D01*
G01X1990801D01*
G01Y-5482801D01*
G01X1966598D01*
G01X1961599Y-5487802D01*
G01Y-5567802D01*
G01X1966598Y-5572801D01*
G01X2046597D01*
G01X2051599Y-5567802D01*
G37*
G36*
G01X2046597Y-5412801D02*
G01X2023801Y-5412801D01*
G01Y-5374803D01*
G01X1990801D01*
G01Y-5412801D01*
G01X1966598D01*
G01X1961599Y-5407802D01*
G01Y-5328803D01*
G01X1966598Y-5323802D01*
G01X2046597D01*
G01X2051599Y-5328803D01*
G01Y-5407802D01*
G01X2046597Y-5412801D01*
G37*
G36*
G01X1824038Y-4271513D02*
G01X1824038Y-4191513D01*
G01X1819036Y-4186512D01*
G01X1796240D01*
G01Y-4223512D01*
G01X1763240D01*
G01Y-4186512D01*
G01X1739036D01*
G01X1734038Y-4191513D01*
G01Y-4271513D01*
G01X1739036Y-4276512D01*
G01X1819036D01*
G01X1824038Y-4271513D01*
G37*
G36*
G01X1819036Y-4116512D02*
G01X1796240Y-4116512D01*
G01Y-4078514D01*
G01X1763240D01*
G01Y-4116512D01*
G01X1739036D01*
G01X1734038Y-4111513D01*
G01Y-4032514D01*
G01X1739036Y-4027513D01*
G01X1819036D01*
G01X1824038Y-4032514D01*
G01Y-4111513D01*
G01X1819036Y-4116512D01*
G37*
G36*
G01X2172109Y-4691212D02*
G01X2092109Y-4691212D01*
G01X2087108Y-4696214D01*
G01Y-4719010D01*
G01X2124108D01*
G01Y-4752010D01*
G01X2087108D01*
G01Y-4776213D01*
G01X2092109Y-4781212D01*
G01X2172109D01*
G01X2177108Y-4776213D01*
G01Y-4696214D01*
G01X2172109Y-4691212D01*
G37*
G36*
G01X2017108Y-4696214D02*
G01X2017108Y-4719010D01*
G01X1979110D01*
G01Y-4752010D01*
G01X2017108D01*
G01Y-4776213D01*
G01X2012109Y-4781212D01*
G01X1933110D01*
G01X1928109Y-4776213D01*
G01Y-4696214D01*
G01X1933110Y-4691212D01*
G01X2012109D01*
G01X2017108Y-4696214D01*
G37*
G36*
G01X2172752Y-4538812D02*
G01X2092752Y-4538812D01*
G01X2087750Y-4543814D01*
G01Y-4566610D01*
G01X2124751D01*
G01Y-4599610D01*
G01X2087750D01*
G01Y-4623813D01*
G01X2092752Y-4628812D01*
G01X2172752D01*
G01X2177750Y-4623813D01*
G01Y-4543814D01*
G01X2172752Y-4538812D01*
G37*
G36*
G01X2017751Y-4543814D02*
G01X2017751Y-4566610D01*
G01X1979752D01*
G01Y-4599610D01*
G01X2017751D01*
G01Y-4623813D01*
G01X2012752Y-4628812D01*
G01X1933753D01*
G01X1928752Y-4623813D01*
G01Y-4543814D01*
G01X1933753Y-4538812D01*
G01X2012752D01*
G01X2017751Y-4543814D01*
G37*
G04 PolygonModel End*

G04 Pad Start*
G54D10*
G01X2275021Y-1751420D03*
G01X3670421Y-2511820D03*
G01X3552920Y-3210320D03*
G01X3365500Y-2349500D03*
G01X3562420Y-2345120D03*
G01X2070221Y-5264520D03*
G01X4875320Y-3808820D03*
G54D11*
G01X2551201Y-5007686D03*
G01X2651252Y-5007686D03*
G01X2751201Y-5007686D03*
G01X2851201Y-5007686D03*
G01X2951201Y-5007686D03*
G01X3051099Y-5007686D03*
G01X3151276Y-5007686D03*
G01X3251276Y-5007686D03*
G01X3351276Y-5007686D03*
G01X3451276Y-5007686D03*
G01X3551276Y-5007686D03*
G01X3651275Y-5007686D03*
G01X3751224Y-5007686D03*
G01X3851148Y-5007686D03*
G01X3951199Y-5007686D03*
G54D12*
G01X2321281Y-5228514D03*
G01X4181119Y-5228311D03*
G54D13*
G01X4060774Y-2788564D03*
G01X3920769Y-2788564D03*
G54D14*
G01X3329724Y-3033166D03*
G01X3329724Y-2893162D03*
G54D15*
G01X1651000Y-4806798D03*
G01X1791005Y-4806798D03*
G54D16*
G01X3479241Y-2718994D03*
G01X3479241Y-2769006D03*
G01X3479241Y-2818994D03*
G01X3479241Y-2869006D03*
G01X3759759Y-2718994D03*
G01X3759759Y-2769006D03*
G01X3759759Y-2818994D03*
G01X3759759Y-2869006D03*
G54D17*
G01X1500200Y-5405298D03*
G01X1550213Y-5405298D03*
G01X1600200Y-5405298D03*
G01X1650213Y-5405298D03*
G01X1700200Y-5405298D03*
G01X1500200Y-4983302D03*
G01X1550213Y-4983302D03*
G01X1600200Y-4983302D03*
G01X1650213Y-4983302D03*
G01X1700200Y-4983302D03*
G54D18*
G01X4022890Y-2482596D03*
G01X4022890Y-2292604D03*
G01X4282910Y-2292604D03*
G01X4282910Y-2387600D03*
G01X4282910Y-2482596D03*
G54D19*
G01X3863772Y-2325225D03*
G01X3863772Y-2465230D03*
G54D20*
G01X1417701Y-4372889D03*
G01X1417701Y-4437888D03*
G01X1417701Y-4502912D03*
G01X1417701Y-4567911D03*
G01X1782699Y-4567911D03*
G01X1782699Y-4502912D03*
G01X1782699Y-4437888D03*
G01X1782699Y-4372889D03*
G54D14*
G01X1944139Y-4431899D03*
G01X1944139Y-4291894D03*
G54D19*
G01X192187Y-1220325D03*
G01X192187Y-1360330D03*
G54D15*
G01X938609Y-680728D03*
G01X1078614Y-680728D03*
G04 Pad End*

M02*
